{"glyphs":{"0":{"ha":719,"x_min":62,"x_max":656,"o":"m 359 -14 q 547 35 483 -14 q 633 172 610 83 q 656 378 656 260 q 633 584 656 496 q 547 721 610 672 q 359 770 483 770 q 173 721 237 770 q 85 584 109 672 q 62 378 62 496 q 85 172 62 260 q 173 35 109 83 q 359 -14 237 -14 m 359 31 q 209 68 262 31 q 135 183 155 106 q 114 378 114 260 q 135 573 114 496 q 209 687 155 650 q 359 725 262 725 q 512 687 458 725 q 585 573 565 650 q 605 378 605 496 q 585 183 605 260 q 512 68 565 106 q 359 31 458 31 "},"1":{"ha":307,"x_min":16,"x_max":212,"o":"m 190 0 q 210 15 208 0 q 212 47 212 30 l 212 708 q 210 740 212 724 q 189 755 208 755 l 58 755 q 32 752 47 755 q 16 728 16 749 q 31 710 16 711 q 59 708 45 708 l 163 708 l 163 47 q 167 15 163 30 q 190 0 170 0 "},"2":{"ha":627,"x_min":51,"x_max":572,"o":"m 81 -1 l 525 -1 q 548 6 541 -1 q 555 23 555 14 q 548 40 555 33 q 525 47 541 47 l 103 47 q 151 119 113 87 q 243 180 189 151 q 353 241 296 210 q 460 310 410 272 q 541 397 510 348 q 572 513 572 447 q 503 701 572 633 q 294 769 434 769 q 192 760 245 769 q 100 735 138 750 q 63 703 63 720 q 87 685 63 685 q 105 688 95 685 q 189 711 141 700 q 294 722 237 722 q 458 675 393 722 q 522 516 522 627 q 488 406 522 452 q 400 324 454 359 q 287 257 347 288 q 173 194 227 227 q 85 120 119 161 q 51 23 51 79 q 81 -1 51 -1 "},"3":{"ha":642,"x_min":62,"x_max":583,"o":"m 302 -14 q 464 15 401 -14 q 554 93 526 43 q 583 203 583 142 q 538 340 583 286 q 404 410 493 395 q 503 449 468 422 q 551 513 538 477 q 565 585 565 549 q 542 672 565 630 q 461 742 518 715 q 302 770 404 770 q 231 766 271 770 q 153 753 191 762 q 90 733 115 745 q 64 703 64 720 q 70 690 64 696 q 86 684 76 684 q 104 689 94 684 q 187 718 143 707 q 304 728 231 728 q 435 707 389 728 q 499 651 481 685 q 517 581 517 618 q 497 507 517 541 q 428 451 478 472 q 286 430 378 430 l 196 430 q 178 423 184 430 q 172 408 172 416 q 178 393 172 400 q 196 387 184 387 l 292 387 q 443 361 390 387 q 516 295 496 336 q 536 205 536 254 q 484 79 536 128 q 302 31 431 31 q 200 38 239 31 q 136 56 161 46 q 86 70 110 65 q 68 66 75 73 q 62 52 62 60 q 99 21 62 36 q 193 -4 137 5 q 302 -14 248 -14 "},"4":{"ha":718,"x_min":68,"x_max":708,"o":"m 487 0 q 508 15 505 0 q 511 47 511 30 l 511 236 l 609 236 q 631 236 620 236 q 652 235 642 235 q 692 239 675 235 q 708 258 708 243 q 695 281 708 278 q 659 283 682 283 l 511 283 l 511 708 q 508 741 511 726 q 487 755 505 755 q 465 741 467 755 q 462 708 462 726 l 462 283 l 117 283 l 117 710 q 115 740 117 725 q 94 755 112 755 q 71 741 75 755 q 68 710 68 726 l 68 283 q 74 251 68 266 q 117 236 80 236 l 462 236 l 462 47 q 465 15 462 30 q 487 0 467 0 "},"5":{"ha":589,"x_min":58,"x_max":545,"o":"m 298 -27 q 428 -4 372 -27 q 514 74 484 20 q 545 220 545 127 q 477 370 545 328 q 298 412 410 412 l 122 412 l 149 695 l 446 695 q 467 702 460 695 q 473 718 473 709 q 467 735 473 728 q 446 742 460 742 l 149 742 q 107 726 113 742 q 100 694 101 711 l 73 412 q 72 401 72 408 q 91 368 72 372 q 128 364 109 364 l 298 364 q 453 331 410 364 q 495 222 495 297 q 452 76 495 132 q 298 20 410 20 q 226 25 261 20 q 162 37 191 30 q 119 49 142 41 q 82 57 96 57 q 58 39 58 57 q 95 8 58 23 q 189 -17 133 -7 q 298 -27 244 -27 "},"6":{"ha":694,"x_min":63,"x_max":643,"o":"m 347 -14 q 522 17 457 -14 q 615 98 587 48 q 643 202 643 147 q 609 340 643 292 q 507 407 574 389 q 338 425 439 425 q 188 415 237 425 q 115 393 138 404 q 132 571 115 505 q 182 669 149 637 q 261 712 214 702 q 370 722 309 722 q 441 717 406 722 q 505 705 477 712 q 549 693 526 701 q 585 685 572 685 q 610 703 610 685 q 572 734 610 720 q 479 759 534 749 q 370 769 423 769 q 180 730 246 769 q 88 606 113 692 q 63 378 63 519 q 91 146 63 232 q 180 23 118 60 q 347 -14 243 -14 m 350 33 q 212 63 263 33 q 138 163 160 92 q 115 357 115 233 q 201 371 149 365 q 338 378 254 378 q 480 367 424 378 q 564 320 536 357 q 591 208 591 284 q 571 123 591 163 q 498 58 550 83 q 350 33 446 33 "},"7":{"ha":479,"x_min":24,"x_max":463,"o":"m 142 16 q 170 39 159 16 l 458 694 q 463 721 463 707 q 455 745 463 734 q 427 755 448 755 l 50 755 q 31 748 37 755 q 24 732 24 741 q 50 708 24 708 l 406 708 l 122 56 q 119 41 119 50 q 142 16 119 16 "},"8":{"ha":699,"x_min":59,"x_max":640,"o":"m 349 -14 q 520 15 456 -14 q 612 95 584 45 q 640 208 640 146 q 597 340 640 289 q 450 410 555 392 q 556 447 519 419 q 607 510 593 475 q 621 576 621 546 q 598 668 621 624 q 516 741 575 712 q 349 770 458 770 q 182 741 241 770 q 100 668 123 712 q 77 576 77 624 q 92 510 77 546 q 143 447 106 475 q 248 410 180 419 q 101 340 144 392 q 59 208 59 289 q 87 95 59 146 q 178 15 115 45 q 349 -14 242 -14 m 349 432 q 214 453 262 432 q 145 508 165 474 q 125 577 125 541 q 144 646 125 612 q 211 703 162 680 q 349 725 259 725 q 488 703 440 725 q 555 646 536 680 q 573 577 573 612 q 553 508 573 541 q 485 453 534 474 q 349 432 436 432 m 349 31 q 202 54 256 31 q 126 118 149 77 q 104 212 104 159 q 125 297 104 258 q 199 360 146 336 q 349 385 253 385 q 499 360 446 385 q 574 297 553 336 q 595 212 595 258 q 572 118 595 159 q 496 54 550 77 q 349 31 443 31 "},"9":{"ha":694,"x_min":50,"x_max":630,"o":"m 323 -14 q 513 25 447 -14 q 605 150 580 64 q 630 378 630 236 q 603 609 630 524 q 513 732 575 695 q 346 769 451 769 q 171 738 236 769 q 78 658 106 707 q 50 553 50 609 q 84 415 50 464 q 186 349 119 367 q 355 330 254 330 q 505 341 456 330 q 578 363 555 352 q 561 185 578 251 q 511 86 544 119 q 432 43 479 54 q 323 33 385 33 q 252 38 287 33 q 188 50 216 43 q 144 63 168 55 q 108 71 121 71 q 83 53 83 71 q 121 21 83 37 q 214 -4 159 6 q 323 -14 270 -14 m 355 378 q 214 388 270 378 q 130 435 157 399 q 102 548 102 471 q 122 632 102 592 q 196 697 143 672 q 343 722 248 722 q 481 693 430 722 q 555 593 533 663 q 578 399 578 522 q 492 384 545 391 q 355 378 439 378 "},"A":{"ha":915,"x_min":39,"x_max":874,"o":"m 62 -7 q 99 20 85 -7 l 216 232 l 699 232 l 814 23 q 833 0 823 6 q 851 -7 842 -7 q 874 19 874 -7 q 867 45 874 33 l 492 721 q 474 748 481 741 q 457 755 467 755 q 439 748 445 755 q 422 721 433 741 l 48 46 q 41 11 39 29 q 62 -7 43 -7 m 235 272 l 457 677 l 679 272 l 235 272 "},"Á":{"ha":915,"x_min":39,"x_max":874,"o":"m 62 -7 q 99 20 85 -7 l 216 232 l 699 232 l 814 23 q 833 0 823 6 q 851 -7 842 -7 q 874 19 874 -7 q 867 45 874 33 l 492 721 q 474 748 481 741 q 457 755 467 755 q 439 748 445 755 q 422 721 433 741 l 48 46 q 41 11 39 29 q 62 -7 43 -7 m 235 272 l 457 677 l 679 272 l 235 272 m 405 851 q 415 854 410 851 l 606 1017 q 616 1036 616 1025 q 606 1063 616 1051 q 580 1076 595 1076 q 563 1068 570 1076 l 392 881 q 387 869 387 876 q 405 851 387 851 "},"Ă":{"ha":915,"x_min":39,"x_max":874,"o":"m 62 -7 q 99 20 85 -7 l 216 232 l 699 232 l 814 23 q 833 0 823 6 q 851 -7 842 -7 q 874 19 874 -7 q 867 45 874 33 l 492 721 q 474 748 481 741 q 457 755 467 755 q 439 748 445 755 q 422 721 433 741 l 48 46 q 41 11 39 29 q 62 -7 43 -7 m 235 272 l 457 677 l 679 272 l 235 272 m 458 852 q 535 871 507 852 q 577 920 564 891 q 590 975 590 948 q 586 997 590 987 q 565 1006 581 1006 q 547 997 551 1006 q 543 975 543 988 q 525 917 543 944 q 458 890 507 890 q 391 917 409 890 q 373 975 373 944 q 369 997 373 988 q 351 1006 365 1006 q 330 997 334 1006 q 326 975 326 987 q 338 920 326 948 q 380 871 351 891 q 458 852 410 852 "},"Â":{"ha":915,"x_min":39,"x_max":874,"o":"m 62 -7 q 99 20 85 -7 l 216 232 l 699 232 l 814 23 q 833 0 823 6 q 851 -7 842 -7 q 874 19 874 -7 q 867 45 874 33 l 492 721 q 474 748 481 741 q 457 755 467 755 q 439 748 445 755 q 422 721 433 741 l 48 46 q 41 11 39 29 q 62 -7 43 -7 m 235 272 l 457 677 l 679 272 l 235 272 m 349 852 q 385 880 370 852 l 458 1021 l 530 880 q 566 852 544 852 q 585 860 578 852 q 585 880 593 868 l 494 1032 q 458 1058 477 1058 q 422 1032 438 1058 l 330 880 q 330 860 322 868 q 349 852 337 852 "},"Ȁ":{"ha":915,"x_min":39,"x_max":874,"o":"m 62 -7 q 99 20 85 -7 l 216 232 l 699 232 l 814 23 q 833 0 823 6 q 851 -7 842 -7 q 874 19 874 -7 q 867 45 874 33 l 492 721 q 474 748 481 741 q 457 755 467 755 q 439 748 445 755 q 422 721 433 741 l 48 46 q 41 11 39 29 q 62 -7 43 -7 m 235 272 l 457 677 l 679 272 l 235 272 m 547 852 q 565 869 565 852 q 559 882 565 876 l 382 1062 q 365 1069 374 1069 q 344 1059 353 1069 q 335 1037 335 1049 q 345 1018 335 1026 l 536 855 q 547 852 541 852 m 392 852 q 410 869 410 852 q 405 882 410 876 l 227 1062 q 210 1069 220 1069 q 189 1059 198 1069 q 180 1037 180 1049 q 191 1018 180 1026 l 382 855 q 392 852 387 852 "},"Ä":{"ha":915,"x_min":39,"x_max":874,"o":"m 62 -7 q 99 20 85 -7 l 216 232 l 699 232 l 814 23 q 833 0 823 6 q 851 -7 842 -7 q 874 19 874 -7 q 867 45 874 33 l 492 721 q 474 748 481 741 q 457 755 467 755 q 439 748 445 755 q 422 721 433 741 l 48 46 q 41 11 39 29 q 62 -7 43 -7 m 235 272 l 457 677 l 679 272 l 235 272 m 592 873 q 621 884 609 873 q 633 911 633 895 q 621 940 633 929 q 592 951 609 951 q 564 940 574 951 q 553 911 553 929 q 564 884 553 895 q 592 873 574 873 m 321 873 q 350 884 338 873 q 362 911 362 895 q 350 940 362 929 q 321 951 338 951 q 293 940 304 951 q 282 911 282 929 q 293 884 282 895 q 321 873 304 873 "},"À":{"ha":915,"x_min":39,"x_max":874,"o":"m 62 -7 q 99 20 85 -7 l 216 232 l 699 232 l 814 23 q 833 0 823 6 q 851 -7 842 -7 q 874 19 874 -7 q 867 45 874 33 l 492 721 q 474 748 481 741 q 457 755 467 755 q 439 748 445 755 q 422 721 433 741 l 48 46 q 41 11 39 29 q 62 -7 43 -7 m 235 272 l 457 677 l 679 272 l 235 272 m 511 852 q 529 870 529 852 q 524 882 529 877 l 353 1069 q 336 1077 345 1077 q 310 1065 321 1077 q 299 1038 299 1053 q 309 1019 299 1027 l 500 856 q 511 852 505 852 "},"Ȃ":{"ha":915,"x_min":39,"x_max":874,"o":"m 62 -7 q 99 20 85 -7 l 216 232 l 699 232 l 814 23 q 833 0 823 6 q 851 -7 842 -7 q 874 19 874 -7 q 867 45 874 33 l 492 721 q 474 748 481 741 q 457 755 467 755 q 439 748 445 755 q 422 721 433 741 l 48 46 q 41 11 39 29 q 62 -7 43 -7 m 235 272 l 457 677 l 679 272 l 235 272 m 351 852 q 367 861 363 852 q 371 883 371 870 q 390 943 371 914 q 458 971 409 971 q 526 943 507 971 q 545 883 545 914 q 548 861 545 870 q 565 852 552 852 q 584 862 580 852 q 588 883 588 872 q 576 939 588 910 q 535 987 564 967 q 458 1006 507 1006 q 381 987 410 1006 q 340 939 352 967 q 328 883 328 910 q 332 862 328 872 q 351 852 336 852 "},"Ā":{"ha":915,"x_min":39,"x_max":874,"o":"m 62 -7 q 99 20 85 -7 l 216 232 l 699 232 l 814 23 q 833 0 823 6 q 851 -7 842 -7 q 874 19 874 -7 q 867 45 874 33 l 492 721 q 474 748 481 741 q 457 755 467 755 q 439 748 445 755 q 422 721 433 741 l 48 46 q 41 11 39 29 q 62 -7 43 -7 m 235 272 l 457 677 l 679 272 l 235 272 m 342 863 l 574 863 q 591 871 586 863 q 595 884 595 879 q 591 899 595 890 q 574 907 586 907 l 342 907 q 325 899 330 907 q 320 884 320 890 q 325 871 320 879 q 342 863 330 863 "},"Ą":{"ha":915,"x_min":39,"x_max":892,"o":"m 62 -7 q 99 20 85 -7 l 216 232 l 699 232 l 814 23 q 833 0 823 6 q 851 -7 842 -7 q 874 19 874 -7 q 867 45 874 33 l 492 721 q 474 748 481 741 q 457 755 467 755 q 439 748 445 755 q 422 721 433 741 l 48 46 q 41 11 39 29 q 62 -7 43 -7 m 235 272 l 457 677 l 679 272 l 235 272 m 806 -189 q 856 -175 832 -189 q 892 -137 880 -161 l 885 -131 q 863 -144 876 -136 q 837 -151 850 -151 q 814 -141 826 -151 q 802 -102 802 -130 q 814 -52 802 -81 q 850 4 826 -24 l 829 4 q 767 -59 791 -27 q 742 -123 742 -91 q 763 -174 742 -159 q 806 -189 783 -189 "},"Å":{"ha":915,"x_min":39,"x_max":874,"o":"m 62 -7 q 99 20 85 -7 l 216 232 l 699 232 l 814 23 q 833 0 823 6 q 851 -7 842 -7 q 874 19 874 -7 q 867 45 874 33 l 492 721 q 474 748 481 741 q 457 755 467 755 q 439 748 445 755 q 422 721 433 741 l 48 46 q 41 11 39 29 q 62 -7 43 -7 m 235 272 l 457 677 l 679 272 l 235 272 m 458 852 q 514 874 490 852 q 537 928 537 896 q 514 983 537 961 q 458 1005 490 1005 q 401 983 424 1005 q 378 928 378 961 q 402 874 378 896 q 458 852 426 852 m 458 886 q 429 899 441 886 q 416 928 416 911 q 429 958 416 947 q 458 970 441 970 q 488 958 475 970 q 500 928 500 947 q 488 899 500 911 q 458 886 475 886 "},"Ã":{"ha":915,"x_min":39,"x_max":874,"o":"m 62 -7 q 99 20 85 -7 l 216 232 l 699 232 l 814 23 q 833 0 823 6 q 851 -7 842 -7 q 874 19 874 -7 q 867 45 874 33 l 492 721 q 474 748 481 741 q 457 755 467 755 q 439 748 445 755 q 422 721 433 741 l 48 46 q 41 11 39 29 q 62 -7 43 -7 m 235 272 l 457 677 l 679 272 l 235 272 m 324 852 q 340 861 336 852 q 344 882 344 870 q 351 907 344 901 q 368 912 358 912 q 418 897 386 912 q 486 867 451 882 q 547 852 522 852 q 599 871 584 852 q 614 920 614 891 q 610 942 614 932 q 591 951 606 951 q 575 942 579 951 q 571 921 571 933 q 564 897 571 902 q 547 891 557 891 q 492 906 519 891 q 435 937 465 922 q 368 951 406 951 q 316 932 331 951 q 301 883 301 912 q 305 862 301 872 q 324 852 309 852 "},"Æ":{"ha":981,"x_min":6,"x_max":917,"o":"m 28 -7 q 49 0 39 -7 q 71 29 60 7 l 180 229 l 425 229 l 425 24 q 429 3 425 6 q 452 0 432 0 l 867 0 q 902 2 886 0 q 917 24 917 4 q 902 43 917 41 q 867 45 886 45 l 483 45 l 483 363 l 853 363 q 884 368 871 363 q 897 388 897 372 q 885 407 897 404 q 853 410 873 410 l 483 410 l 483 711 l 865 711 q 900 713 885 711 q 916 732 916 715 q 900 753 916 751 q 865 755 885 755 l 420 755 q 406 745 412 754 q 392 722 399 735 l 20 48 q 11 31 15 39 q 6 14 6 22 q 10 1 6 8 q 28 -7 14 -7 m 197 269 l 425 688 l 425 269 l 197 269 "},"B":{"ha":955,"x_min":109,"x_max":867,"o":"m 132 0 l 522 0 q 697 17 619 0 q 821 82 775 34 q 867 221 867 130 q 836 325 867 288 q 755 380 804 363 q 650 403 705 397 q 697 408 668 403 q 756 430 726 413 q 806 479 786 446 q 827 567 827 512 q 795 675 827 636 q 710 730 764 713 q 587 751 656 747 q 446 755 519 755 l 135 755 q 109 730 109 755 l 109 24 q 132 0 109 0 m 166 420 l 166 711 l 471 711 q 660 694 595 711 q 746 645 724 677 q 769 567 769 613 q 739 474 769 506 q 647 431 709 443 q 487 420 585 420 l 166 420 m 166 45 l 166 382 l 487 382 q 722 349 635 382 q 809 221 809 315 q 802 156 809 187 q 770 99 795 124 q 692 59 745 74 q 548 45 640 45 l 166 45 "},"C":{"ha":1010,"x_min":83,"x_max":952,"o":"m 592 -14 q 763 2 680 -14 q 931 53 846 18 q 952 78 952 62 q 929 98 952 98 q 917 96 925 98 q 755 47 839 63 q 592 31 671 31 q 246 113 351 31 q 141 378 141 195 q 246 643 141 560 q 592 725 351 725 q 755 709 671 725 q 917 660 839 692 q 930 656 925 656 q 951 677 951 656 q 931 703 951 694 q 763 754 846 738 q 592 770 680 770 q 212 679 340 770 q 83 378 83 589 q 212 76 83 167 q 592 -14 340 -14 "},"Ć":{"ha":1010,"x_min":83,"x_max":952,"o":"m 592 -14 q 763 2 680 -14 q 931 53 846 18 q 952 78 952 62 q 929 98 952 98 q 917 96 925 98 q 755 47 839 63 q 592 31 671 31 q 246 113 351 31 q 141 378 141 195 q 246 643 141 560 q 592 725 351 725 q 755 709 671 725 q 917 660 839 692 q 930 656 925 656 q 951 677 951 656 q 931 703 951 694 q 763 754 846 738 q 592 770 680 770 q 212 679 340 770 q 83 378 83 589 q 212 76 83 167 q 592 -14 340 -14 m 503 851 q 513 854 509 851 l 705 1017 q 715 1036 715 1025 q 704 1063 715 1051 q 678 1076 693 1076 q 661 1068 669 1076 l 490 881 q 485 869 485 876 q 503 851 485 851 "},"Č":{"ha":1010,"x_min":83,"x_max":952,"o":"m 592 -14 q 763 2 680 -14 q 931 53 846 18 q 952 78 952 62 q 929 98 952 98 q 917 96 925 98 q 755 47 839 63 q 592 31 671 31 q 246 113 351 31 q 141 378 141 195 q 246 643 141 560 q 592 725 351 725 q 755 709 671 725 q 917 660 839 692 q 930 656 925 656 q 951 677 951 656 q 931 703 951 694 q 763 754 846 738 q 592 770 680 770 q 212 679 340 770 q 83 378 83 589 q 212 76 83 167 q 592 -14 340 -14 m 556 852 q 592 878 575 852 l 684 1029 q 684 1050 691 1042 q 665 1058 676 1058 q 628 1030 642 1058 l 556 889 l 484 1030 q 447 1058 469 1058 q 428 1050 435 1058 q 428 1029 420 1042 l 520 878 q 556 852 536 852 "},"Ç":{"ha":1010,"x_min":83,"x_max":952,"o":"m 592 -14 q 763 2 680 -14 q 931 53 846 18 q 952 78 952 62 q 929 98 952 98 q 917 96 925 98 q 755 47 839 63 q 592 31 671 31 q 246 113 351 31 q 141 378 141 195 q 246 643 141 560 q 592 725 351 725 q 755 709 671 725 q 917 660 839 692 q 930 656 925 656 q 951 677 951 656 q 931 703 951 694 q 763 754 846 738 q 592 770 680 770 q 212 679 340 770 q 83 378 83 589 q 212 76 83 167 q 592 -14 340 -14 m 463 -220 q 478 -215 471 -220 q 493 -196 485 -210 l 600 -5 q 602 5 602 -1 q 590 20 602 20 q 572 7 581 20 l 444 -178 q 437 -196 437 -188 q 444 -213 437 -205 q 463 -220 452 -220 "},"Ĉ":{"ha":1010,"x_min":83,"x_max":952,"o":"m 592 -14 q 763 2 680 -14 q 931 53 846 18 q 952 78 952 62 q 929 98 952 98 q 917 96 925 98 q 755 47 839 63 q 592 31 671 31 q 246 113 351 31 q 141 378 141 195 q 246 643 141 560 q 592 725 351 725 q 755 709 671 725 q 917 660 839 692 q 930 656 925 656 q 951 677 951 656 q 931 703 951 694 q 763 754 846 738 q 592 770 680 770 q 212 679 340 770 q 83 378 83 589 q 212 76 83 167 q 592 -14 340 -14 m 447 852 q 484 880 469 852 l 556 1021 l 628 880 q 665 852 642 852 q 684 860 676 852 q 684 880 691 868 l 592 1032 q 556 1058 576 1058 q 520 1032 536 1058 l 428 880 q 428 860 420 868 q 447 852 435 852 "},"Ċ":{"ha":1010,"x_min":83,"x_max":952,"o":"m 592 -14 q 763 2 680 -14 q 931 53 846 18 q 952 78 952 62 q 929 98 952 98 q 917 96 925 98 q 755 47 839 63 q 592 31 671 31 q 246 113 351 31 q 141 378 141 195 q 246 643 141 560 q 592 725 351 725 q 755 709 671 725 q 917 660 839 692 q 930 656 925 656 q 951 677 951 656 q 931 703 951 694 q 763 754 846 738 q 592 770 680 770 q 212 679 340 770 q 83 378 83 589 q 212 76 83 167 q 592 -14 340 -14 m 555 873 q 584 884 572 873 q 596 911 596 895 q 584 940 596 929 q 555 951 572 951 q 527 940 538 951 q 516 911 516 929 q 527 884 516 895 q 555 873 538 873 "},"D":{"ha":1133,"x_min":109,"x_max":1049,"o":"m 135 0 l 602 0 q 849 35 749 0 q 999 152 948 69 q 1049 379 1049 235 q 999 603 1049 520 q 849 720 948 685 q 602 755 749 755 l 136 755 q 112 753 115 755 q 109 730 109 750 l 109 24 q 112 3 109 6 q 135 0 115 0 m 166 45 l 166 711 l 602 711 q 834 676 749 711 q 955 569 919 642 q 991 379 991 496 q 955 187 991 261 q 834 79 919 113 q 602 45 749 45 l 166 45 "},"Ǳ":{"ha":2013,"x_min":109,"x_max":1982,"o":"m 135 0 l 602 0 q 849 35 749 0 q 999 152 948 69 q 1049 379 1049 235 q 999 603 1049 520 q 849 720 948 685 q 602 755 749 755 l 136 755 q 112 753 115 755 q 109 730 109 750 l 109 24 q 112 3 109 6 q 135 0 115 0 m 166 45 l 166 711 l 602 711 q 834 676 749 711 q 955 569 919 642 q 991 379 991 496 q 955 187 991 261 q 834 79 919 113 q 602 45 749 45 l 166 45 m 1189 0 l 1929 0 q 1953 7 1945 0 q 1961 22 1961 14 q 1953 38 1961 31 q 1929 45 1945 45 l 1224 45 l 1960 696 q 1975 713 1967 704 q 1982 732 1982 722 q 1966 752 1982 749 q 1927 755 1950 755 l 1189 755 q 1166 748 1173 755 q 1158 733 1158 741 q 1166 718 1158 724 q 1189 711 1173 711 l 1896 711 l 1161 60 q 1145 43 1150 50 q 1139 24 1139 35 q 1152 3 1139 6 q 1189 0 1164 0 "},"Ǆ":{"ha":2013,"x_min":109,"x_max":1982,"o":"m 135 0 l 602 0 q 849 35 749 0 q 999 152 948 69 q 1049 379 1049 235 q 999 603 1049 520 q 849 720 948 685 q 602 755 749 755 l 136 755 q 112 753 115 755 q 109 730 109 750 l 109 24 q 112 3 109 6 q 135 0 115 0 m 166 45 l 166 711 l 602 711 q 834 676 749 711 q 955 569 919 642 q 991 379 991 496 q 955 187 991 261 q 834 79 919 113 q 602 45 749 45 l 166 45 m 1189 0 l 1929 0 q 1953 7 1945 0 q 1961 22 1961 14 q 1953 38 1961 31 q 1929 45 1945 45 l 1224 45 l 1960 696 q 1975 713 1967 704 q 1982 732 1982 722 q 1966 752 1982 749 q 1927 755 1950 755 l 1189 755 q 1166 748 1173 755 q 1158 733 1158 741 q 1166 718 1158 724 q 1189 711 1173 711 l 1896 711 l 1161 60 q 1145 43 1150 50 q 1139 24 1139 35 q 1152 3 1139 6 q 1189 0 1164 0 m 1560 852 q 1596 878 1579 852 l 1688 1029 q 1688 1050 1695 1042 q 1669 1058 1681 1058 q 1632 1030 1647 1058 l 1560 889 l 1488 1030 q 1451 1058 1473 1058 q 1432 1050 1440 1058 q 1432 1029 1425 1042 l 1525 878 q 1560 852 1541 852 "},"Ď":{"ha":1133,"x_min":109,"x_max":1049,"o":"m 135 0 l 602 0 q 849 35 749 0 q 999 152 948 69 q 1049 379 1049 235 q 999 603 1049 520 q 849 720 948 685 q 602 755 749 755 l 136 755 q 112 753 115 755 q 109 730 109 750 l 109 24 q 112 3 109 6 q 135 0 115 0 m 166 45 l 166 711 l 602 711 q 834 676 749 711 q 955 569 919 642 q 991 379 991 496 q 955 187 991 261 q 834 79 919 113 q 602 45 749 45 l 166 45 m 566 852 q 602 878 585 852 l 694 1029 q 694 1050 701 1042 q 675 1058 686 1058 q 638 1030 652 1058 l 566 889 l 494 1030 q 457 1058 479 1058 q 438 1050 446 1058 q 438 1029 431 1042 l 530 878 q 566 852 547 852 "},"Đ":{"ha":1119,"x_min":16,"x_max":1036,"o":"m 121 0 l 588 0 q 835 35 736 0 q 985 152 935 69 q 1036 379 1036 235 q 985 603 1036 520 q 835 720 935 685 q 588 755 736 755 l 123 755 q 99 752 104 755 q 95 730 95 748 l 95 416 l 34 416 q 20 408 24 416 q 16 391 16 399 q 20 374 16 382 q 34 366 24 366 l 95 366 l 95 24 q 98 3 95 6 q 121 0 102 0 m 153 45 l 153 366 l 345 366 q 359 374 355 366 q 363 391 363 382 q 359 408 363 399 q 345 416 355 416 l 153 416 l 153 711 l 588 711 q 820 676 735 711 q 942 569 905 642 q 978 379 978 496 q 942 187 978 261 q 820 79 905 113 q 588 45 735 45 l 153 45 "},"ǲ":{"ha":1825,"x_min":109,"x_max":1761,"o":"m 135 0 l 602 0 q 849 35 749 0 q 999 152 948 69 q 1049 379 1049 235 q 999 603 1049 520 q 849 720 948 685 q 602 755 749 755 l 136 755 q 112 753 115 755 q 109 730 109 750 l 109 24 q 112 3 109 6 q 135 0 115 0 m 166 45 l 166 711 l 602 711 q 834 676 749 711 q 955 569 919 642 q 991 379 991 496 q 955 187 991 261 q 834 79 919 113 q 602 45 749 45 l 166 45 m 1227 0 l 1713 0 q 1746 2 1731 0 q 1761 18 1761 3 q 1746 37 1761 35 q 1712 39 1731 39 l 1261 39 l 1736 463 q 1752 494 1752 477 q 1745 511 1752 503 q 1718 519 1737 519 l 1241 519 q 1207 518 1221 519 q 1193 498 1193 516 q 1208 483 1193 484 q 1242 481 1223 481 l 1688 481 l 1217 60 q 1199 27 1199 45 q 1207 7 1199 14 q 1227 0 1216 0 "},"ǅ":{"ha":1825,"x_min":109,"x_max":1761,"o":"m 135 0 l 602 0 q 849 35 749 0 q 999 152 948 69 q 1049 379 1049 235 q 999 603 1049 520 q 849 720 948 685 q 602 755 749 755 l 136 755 q 112 753 115 755 q 109 730 109 750 l 109 24 q 112 3 109 6 q 135 0 115 0 m 166 45 l 166 711 l 602 711 q 834 676 749 711 q 955 569 919 642 q 991 379 991 496 q 955 187 991 261 q 834 79 919 113 q 602 45 749 45 l 166 45 m 1227 0 l 1713 0 q 1746 2 1731 0 q 1761 18 1761 3 q 1746 37 1761 35 q 1712 39 1731 39 l 1261 39 l 1736 463 q 1752 494 1752 477 q 1745 511 1752 503 q 1718 519 1737 519 l 1241 519 q 1207 518 1221 519 q 1193 498 1193 516 q 1208 483 1193 484 q 1242 481 1223 481 l 1688 481 l 1217 60 q 1199 27 1199 45 q 1207 7 1199 14 q 1227 0 1216 0 m 1475 616 q 1511 642 1494 616 l 1603 793 q 1603 814 1610 806 q 1584 822 1595 822 q 1547 794 1561 822 l 1475 653 l 1402 794 q 1366 822 1388 822 q 1347 814 1354 822 q 1347 793 1339 806 l 1439 642 q 1475 616 1455 616 "},"Ð":{"ha":1119,"x_min":16,"x_max":1036,"o":"m 121 0 l 588 0 q 835 35 736 0 q 985 152 935 69 q 1036 379 1036 235 q 985 603 1036 520 q 835 720 935 685 q 588 755 736 755 l 123 755 q 99 752 104 755 q 95 730 95 748 l 95 416 l 34 416 q 20 408 24 416 q 16 391 16 399 q 20 374 16 382 q 34 366 24 366 l 95 366 l 95 24 q 98 3 95 6 q 121 0 102 0 m 153 45 l 153 366 l 345 366 q 359 374 355 366 q 363 391 363 382 q 359 408 363 399 q 345 416 355 416 l 153 416 l 153 711 l 588 711 q 820 676 735 711 q 942 569 905 642 q 978 379 978 496 q 942 187 978 261 q 820 79 905 113 q 588 45 735 45 l 153 45 "},"E":{"ha":883,"x_min":109,"x_max":805,"o":"m 127 0 l 760 0 q 792 2 780 1 q 805 24 805 4 q 790 43 805 41 q 755 45 774 45 l 167 45 l 167 368 l 755 368 q 777 372 768 368 q 785 392 785 377 q 775 410 785 406 q 750 414 765 414 l 167 414 l 167 711 l 753 711 q 788 713 773 711 q 804 732 804 715 q 788 753 804 751 q 753 755 773 755 l 134 755 q 112 749 115 755 q 109 724 109 743 l 109 24 q 112 4 109 8 q 127 0 114 0 "},"É":{"ha":883,"x_min":109,"x_max":805,"o":"m 127 0 l 760 0 q 792 2 780 1 q 805 24 805 4 q 790 43 805 41 q 755 45 774 45 l 167 45 l 167 368 l 755 368 q 777 372 768 368 q 785 392 785 377 q 775 410 785 406 q 750 414 765 414 l 167 414 l 167 711 l 753 711 q 788 713 773 711 q 804 732 804 715 q 788 753 804 751 q 753 755 773 755 l 134 755 q 112 749 115 755 q 109 724 109 743 l 109 24 q 112 4 109 8 q 127 0 114 0 m 389 851 q 399 854 394 851 l 590 1017 q 600 1036 600 1025 q 589 1063 600 1051 q 564 1076 578 1076 q 547 1068 554 1076 l 376 881 q 370 869 370 876 q 389 851 370 851 "},"Ě":{"ha":883,"x_min":109,"x_max":805,"o":"m 127 0 l 760 0 q 792 2 780 1 q 805 24 805 4 q 790 43 805 41 q 755 45 774 45 l 167 45 l 167 368 l 755 368 q 777 372 768 368 q 785 392 785 377 q 775 410 785 406 q 750 414 765 414 l 167 414 l 167 711 l 753 711 q 788 713 773 711 q 804 732 804 715 q 788 753 804 751 q 753 755 773 755 l 134 755 q 112 749 115 755 q 109 724 109 743 l 109 24 q 112 4 109 8 q 127 0 114 0 m 441 852 q 477 878 460 852 l 569 1029 q 569 1050 576 1042 q 550 1058 562 1058 q 513 1030 528 1058 l 441 889 l 369 1030 q 332 1058 354 1058 q 313 1050 321 1058 q 313 1029 306 1042 l 406 878 q 441 852 422 852 "},"Ê":{"ha":883,"x_min":109,"x_max":805,"o":"m 127 0 l 760 0 q 792 2 780 1 q 805 24 805 4 q 790 43 805 41 q 755 45 774 45 l 167 45 l 167 368 l 755 368 q 777 372 768 368 q 785 392 785 377 q 775 410 785 406 q 750 414 765 414 l 167 414 l 167 711 l 753 711 q 788 713 773 711 q 804 732 804 715 q 788 753 804 751 q 753 755 773 755 l 134 755 q 112 749 115 755 q 109 724 109 743 l 109 24 q 112 4 109 8 q 127 0 114 0 m 332 852 q 369 880 354 852 l 441 1021 l 513 880 q 550 852 528 852 q 569 860 562 852 q 569 880 576 868 l 477 1032 q 441 1058 461 1058 q 406 1032 422 1058 l 313 880 q 313 860 306 868 q 332 852 321 852 "},"Ȅ":{"ha":883,"x_min":109,"x_max":805,"o":"m 127 0 l 760 0 q 792 2 780 1 q 805 24 805 4 q 790 43 805 41 q 755 45 774 45 l 167 45 l 167 368 l 755 368 q 777 372 768 368 q 785 392 785 377 q 775 410 785 406 q 750 414 765 414 l 167 414 l 167 711 l 753 711 q 788 713 773 711 q 804 732 804 715 q 788 753 804 751 q 753 755 773 755 l 134 755 q 112 749 115 755 q 109 724 109 743 l 109 24 q 112 4 109 8 q 127 0 114 0 m 530 852 q 549 869 549 852 q 543 882 549 876 l 366 1062 q 349 1069 358 1069 q 328 1059 336 1069 q 319 1037 319 1049 q 329 1018 319 1026 l 520 855 q 530 852 525 852 m 376 852 q 394 869 394 852 q 389 882 394 876 l 211 1062 q 194 1069 203 1069 q 173 1059 182 1069 q 164 1037 164 1049 q 174 1018 164 1026 l 366 855 q 376 852 370 852 "},"Ë":{"ha":883,"x_min":109,"x_max":805,"o":"m 127 0 l 760 0 q 792 2 780 1 q 805 24 805 4 q 790 43 805 41 q 755 45 774 45 l 167 45 l 167 368 l 755 368 q 777 372 768 368 q 785 392 785 377 q 775 410 785 406 q 750 414 765 414 l 167 414 l 167 711 l 753 711 q 788 713 773 711 q 804 732 804 715 q 788 753 804 751 q 753 755 773 755 l 134 755 q 112 749 115 755 q 109 724 109 743 l 109 24 q 112 4 109 8 q 127 0 114 0 m 576 873 q 605 884 593 873 q 616 911 616 895 q 605 940 616 929 q 576 951 593 951 q 547 940 558 951 q 536 911 536 929 q 547 884 536 895 q 576 873 558 873 m 305 873 q 334 884 322 873 q 346 911 346 895 q 334 940 346 929 q 305 951 322 951 q 277 940 288 951 q 266 911 266 929 q 277 884 266 895 q 305 873 288 873 "},"Ė":{"ha":883,"x_min":109,"x_max":805,"o":"m 127 0 l 760 0 q 792 2 780 1 q 805 24 805 4 q 790 43 805 41 q 755 45 774 45 l 167 45 l 167 368 l 755 368 q 777 372 768 368 q 785 392 785 377 q 775 410 785 406 q 750 414 765 414 l 167 414 l 167 711 l 753 711 q 788 713 773 711 q 804 732 804 715 q 788 753 804 751 q 753 755 773 755 l 134 755 q 112 749 115 755 q 109 724 109 743 l 109 24 q 112 4 109 8 q 127 0 114 0 m 441 873 q 470 884 458 873 q 481 911 481 895 q 470 940 481 929 q 441 951 458 951 q 412 940 423 951 q 401 911 401 929 q 412 884 401 895 q 441 873 423 873 "},"È":{"ha":883,"x_min":109,"x_max":805,"o":"m 127 0 l 760 0 q 792 2 780 1 q 805 24 805 4 q 790 43 805 41 q 755 45 774 45 l 167 45 l 167 368 l 755 368 q 777 372 768 368 q 785 392 785 377 q 775 410 785 406 q 750 414 765 414 l 167 414 l 167 711 l 753 711 q 788 713 773 711 q 804 732 804 715 q 788 753 804 751 q 753 755 773 755 l 134 755 q 112 749 115 755 q 109 724 109 743 l 109 24 q 112 4 109 8 q 127 0 114 0 m 494 852 q 513 870 513 852 q 507 882 513 877 l 336 1069 q 319 1077 329 1077 q 294 1065 304 1077 q 283 1038 283 1053 q 293 1019 283 1027 l 484 856 q 494 852 489 852 "},"Ȇ":{"ha":883,"x_min":109,"x_max":805,"o":"m 127 0 l 760 0 q 792 2 780 1 q 805 24 805 4 q 790 43 805 41 q 755 45 774 45 l 167 45 l 167 368 l 755 368 q 777 372 768 368 q 785 392 785 377 q 775 410 785 406 q 750 414 765 414 l 167 414 l 167 711 l 753 711 q 788 713 773 711 q 804 732 804 715 q 788 753 804 751 q 753 755 773 755 l 134 755 q 112 749 115 755 q 109 724 109 743 l 109 24 q 112 4 109 8 q 127 0 114 0 m 334 852 q 351 861 347 852 q 355 883 355 870 q 374 943 355 914 q 441 971 393 971 q 509 943 490 971 q 528 883 528 914 q 532 861 528 870 q 549 852 536 852 q 568 862 564 852 q 572 883 572 872 q 559 939 572 910 q 519 987 547 967 q 441 1006 490 1006 q 365 987 393 1006 q 323 939 336 967 q 311 883 311 910 q 315 862 311 872 q 334 852 319 852 "},"Ē":{"ha":883,"x_min":109,"x_max":805,"o":"m 127 0 l 760 0 q 792 2 780 1 q 805 24 805 4 q 790 43 805 41 q 755 45 774 45 l 167 45 l 167 368 l 755 368 q 777 372 768 368 q 785 392 785 377 q 775 410 785 406 q 750 414 765 414 l 167 414 l 167 711 l 753 711 q 788 713 773 711 q 804 732 804 715 q 788 753 804 751 q 753 755 773 755 l 134 755 q 112 749 115 755 q 109 724 109 743 l 109 24 q 112 4 109 8 q 127 0 114 0 m 326 863 l 557 863 q 574 871 570 863 q 579 884 579 879 q 574 899 579 890 q 557 907 570 907 l 326 907 q 309 899 313 907 q 304 884 304 890 q 309 871 304 879 q 326 863 313 863 "},"Ę":{"ha":883,"x_min":109,"x_max":838,"o":"m 127 0 l 760 0 q 792 2 780 1 q 805 24 805 4 q 790 43 805 41 q 755 45 774 45 l 167 45 l 167 368 l 755 368 q 777 372 768 368 q 785 392 785 377 q 775 410 785 406 q 750 414 765 414 l 167 414 l 167 711 l 753 711 q 788 713 773 711 q 804 732 804 715 q 788 753 804 751 q 753 755 773 755 l 134 755 q 112 749 115 755 q 109 724 109 743 l 109 24 q 112 4 109 8 q 127 0 114 0 m 753 -186 q 803 -172 779 -186 q 838 -134 827 -158 l 831 -128 q 810 -141 823 -134 q 783 -149 797 -149 q 761 -138 772 -149 q 749 -100 749 -127 q 761 -50 749 -78 q 796 7 772 -21 l 776 7 q 713 -56 738 -24 q 688 -121 688 -88 q 709 -171 688 -156 q 753 -186 730 -186 "},"F":{"ha":840,"x_min":109,"x_max":840,"o":"m 139 0 q 161 14 155 0 q 167 47 167 28 l 167 358 l 701 358 q 732 361 718 358 q 745 382 745 364 q 733 400 745 397 q 701 403 720 403 l 167 403 l 167 711 l 798 711 q 829 713 817 711 q 840 732 840 716 q 828 752 840 749 q 798 755 815 755 l 134 755 q 112 753 115 755 q 109 730 109 750 l 109 46 q 114 14 109 28 q 139 0 119 0 "},"G":{"ha":1101,"x_min":83,"x_max":1023,"o":"m 592 -14 q 780 0 686 -14 q 975 33 874 14 q 1008 48 992 37 q 1023 80 1023 59 l 1023 363 q 1013 400 1023 389 q 975 411 1003 411 l 629 411 q 596 408 612 411 q 581 387 581 405 q 596 367 581 370 q 629 363 612 363 l 975 363 l 975 80 q 787 44 882 58 q 592 31 692 31 q 246 113 351 31 q 141 378 141 195 q 246 643 141 560 q 592 725 351 725 q 755 709 671 725 q 917 660 839 692 q 930 656 925 656 q 951 677 951 656 q 931 703 951 694 q 763 754 846 738 q 592 770 680 770 q 212 679 340 770 q 83 378 83 589 q 212 76 83 167 q 592 -14 340 -14 "},"Ǵ":{"ha":1101,"x_min":83,"x_max":1023,"o":"m 592 -14 q 780 0 686 -14 q 975 33 874 14 q 1008 48 992 37 q 1023 80 1023 59 l 1023 363 q 1013 400 1023 389 q 975 411 1003 411 l 629 411 q 596 408 612 411 q 581 387 581 405 q 596 367 581 370 q 629 363 612 363 l 975 363 l 975 80 q 787 44 882 58 q 592 31 692 31 q 246 113 351 31 q 141 378 141 195 q 246 643 141 560 q 592 725 351 725 q 755 709 671 725 q 917 660 839 692 q 930 656 925 656 q 951 677 951 656 q 931 703 951 694 q 763 754 846 738 q 592 770 680 770 q 212 679 340 770 q 83 378 83 589 q 212 76 83 167 q 592 -14 340 -14 m 498 851 q 508 854 503 851 l 699 1017 q 709 1036 709 1025 q 699 1063 709 1051 q 673 1076 688 1076 q 656 1068 663 1076 l 485 881 q 479 869 479 876 q 498 851 479 851 "},"Ğ":{"ha":1101,"x_min":83,"x_max":1023,"o":"m 592 -14 q 780 0 686 -14 q 975 33 874 14 q 1008 48 992 37 q 1023 80 1023 59 l 1023 363 q 1013 400 1023 389 q 975 411 1003 411 l 629 411 q 596 408 612 411 q 581 387 581 405 q 596 367 581 370 q 629 363 612 363 l 975 363 l 975 80 q 787 44 882 58 q 592 31 692 31 q 246 113 351 31 q 141 378 141 195 q 246 643 141 560 q 592 725 351 725 q 755 709 671 725 q 917 660 839 692 q 930 656 925 656 q 951 677 951 656 q 931 703 951 694 q 763 754 846 738 q 592 770 680 770 q 212 679 340 770 q 83 378 83 589 q 212 76 83 167 q 592 -14 340 -14 m 551 852 q 628 871 600 852 q 670 920 657 891 q 683 975 683 948 q 679 997 683 987 q 658 1006 674 1006 q 640 997 644 1006 q 635 975 635 988 q 617 917 635 944 q 551 890 600 890 q 484 917 502 890 q 466 975 466 944 q 462 997 466 988 q 444 1006 458 1006 q 423 997 427 1006 q 418 975 418 987 q 431 920 418 948 q 473 871 444 891 q 551 852 503 852 "},"Ĝ":{"ha":1101,"x_min":83,"x_max":1023,"o":"m 592 -14 q 780 0 686 -14 q 975 33 874 14 q 1008 48 992 37 q 1023 80 1023 59 l 1023 363 q 1013 400 1023 389 q 975 411 1003 411 l 629 411 q 596 408 612 411 q 581 387 581 405 q 596 367 581 370 q 629 363 612 363 l 975 363 l 975 80 q 787 44 882 58 q 592 31 692 31 q 246 113 351 31 q 141 378 141 195 q 246 643 141 560 q 592 725 351 725 q 755 709 671 725 q 917 660 839 692 q 930 656 925 656 q 951 677 951 656 q 931 703 951 694 q 763 754 846 738 q 592 770 680 770 q 212 679 340 770 q 83 378 83 589 q 212 76 83 167 q 592 -14 340 -14 m 441 852 q 478 880 463 852 l 551 1021 l 623 880 q 659 852 637 852 q 678 860 671 852 q 678 880 686 868 l 587 1032 q 551 1058 570 1058 q 515 1032 531 1058 l 422 880 q 422 860 415 868 q 441 852 430 852 "},"Ģ":{"ha":1101,"x_min":83,"x_max":1023,"o":"m 592 -14 q 780 0 686 -14 q 975 33 874 14 q 1008 48 992 37 q 1023 80 1023 59 l 1023 363 q 1013 400 1023 389 q 975 411 1003 411 l 629 411 q 596 408 612 411 q 581 387 581 405 q 596 367 581 370 q 629 363 612 363 l 975 363 l 975 80 q 787 44 882 58 q 592 31 692 31 q 246 113 351 31 q 141 378 141 195 q 246 643 141 560 q 592 725 351 725 q 755 709 671 725 q 917 660 839 692 q 930 656 925 656 q 951 677 951 656 q 931 703 951 694 q 763 754 846 738 q 592 770 680 770 q 212 679 340 770 q 83 378 83 589 q 212 76 83 167 q 592 -14 340 -14 m 500 -240 q 571 -205 545 -240 q 597 -135 597 -170 q 582 -97 597 -109 q 551 -85 566 -85 q 517 -95 532 -85 q 503 -125 503 -105 q 513 -155 503 -145 q 530 -168 524 -165 q 538 -180 538 -172 q 498 -216 538 -214 q 484 -227 484 -216 q 500 -240 484 -240 "},"Ġ":{"ha":1101,"x_min":83,"x_max":1023,"o":"m 592 -14 q 780 0 686 -14 q 975 33 874 14 q 1008 48 992 37 q 1023 80 1023 59 l 1023 363 q 1013 400 1023 389 q 975 411 1003 411 l 629 411 q 596 408 612 411 q 581 387 581 405 q 596 367 581 370 q 629 363 612 363 l 975 363 l 975 80 q 787 44 882 58 q 592 31 692 31 q 246 113 351 31 q 141 378 141 195 q 246 643 141 560 q 592 725 351 725 q 755 709 671 725 q 917 660 839 692 q 930 656 925 656 q 951 677 951 656 q 931 703 951 694 q 763 754 846 738 q 592 770 680 770 q 212 679 340 770 q 83 378 83 589 q 212 76 83 167 q 592 -14 340 -14 m 550 873 q 579 884 567 873 q 591 911 591 895 q 579 940 591 929 q 550 951 567 951 q 522 940 532 951 q 511 911 511 929 q 522 884 511 895 q 550 873 532 873 "},"H":{"ha":931,"x_min":108,"x_max":823,"o":"m 139 0 q 160 15 154 0 q 165 47 165 31 l 165 369 l 766 369 l 766 47 q 770 15 766 30 q 795 0 774 0 q 819 15 814 0 q 823 47 823 30 l 823 708 q 819 741 823 726 q 794 755 814 755 q 770 741 774 755 q 766 708 766 726 l 766 411 l 165 411 l 165 708 q 160 740 165 725 q 140 755 155 755 q 114 741 119 755 q 108 708 108 726 l 108 47 q 113 15 108 30 q 139 0 118 0 "},"Ħ":{"ha":931,"x_min":43,"x_max":890,"o":"m 139 0 q 160 15 154 0 q 165 47 165 31 l 165 369 l 766 369 l 766 47 q 770 15 766 30 q 795 0 774 0 q 819 15 814 0 q 823 47 823 30 l 823 603 l 871 603 q 885 609 881 603 q 890 622 890 615 q 885 635 890 629 q 871 642 881 642 l 823 642 l 823 708 q 819 741 823 726 q 794 755 814 755 q 770 741 774 755 q 766 708 766 726 l 766 642 l 165 642 l 165 708 q 160 740 165 725 q 140 755 155 755 q 114 741 119 755 q 108 708 108 726 l 108 642 l 62 642 q 48 635 54 642 q 43 622 43 629 q 48 609 43 615 q 62 603 54 603 l 108 603 l 108 47 q 113 15 108 30 q 139 0 118 0 m 165 411 l 165 603 l 766 603 l 766 411 l 165 411 "},"Ĥ":{"ha":931,"x_min":108,"x_max":823,"o":"m 139 0 q 160 15 154 0 q 165 47 165 31 l 165 369 l 766 369 l 766 47 q 770 15 766 30 q 795 0 774 0 q 819 15 814 0 q 823 47 823 30 l 823 708 q 819 741 823 726 q 794 755 814 755 q 770 741 774 755 q 766 708 766 726 l 766 411 l 165 411 l 165 708 q 160 740 165 725 q 140 755 155 755 q 114 741 119 755 q 108 708 108 726 l 108 47 q 113 15 108 30 q 139 0 118 0 m 357 852 q 393 880 378 852 l 466 1021 l 538 880 q 574 852 552 852 q 593 860 586 852 q 593 880 601 868 l 502 1032 q 466 1058 486 1058 q 430 1032 446 1058 l 338 880 q 338 860 330 868 q 357 852 345 852 "},"I":{"ha":699,"x_min":29,"x_max":669,"o":"m 79 0 l 621 0 q 655 2 640 0 q 669 22 669 4 q 655 43 669 41 q 621 45 640 45 l 378 45 l 378 711 l 621 711 q 655 713 640 711 q 669 733 669 715 q 655 753 669 751 q 621 755 640 755 l 79 755 q 46 753 62 755 q 29 732 29 751 q 45 713 29 715 q 79 711 61 711 l 321 711 l 321 45 l 79 45 q 45 43 61 45 q 29 24 29 41 q 46 2 29 4 q 79 0 62 0 "},"Ĳ":{"ha":1416,"x_min":29,"x_max":1308,"o":"m 79 0 l 621 0 q 655 2 640 0 q 669 22 669 4 q 655 43 669 41 q 621 45 640 45 l 378 45 l 378 711 l 621 711 q 655 713 640 711 q 669 733 669 715 q 655 753 669 751 q 621 755 640 755 l 79 755 q 46 753 62 755 q 29 732 29 751 q 45 713 29 715 q 79 711 61 711 l 321 711 l 321 45 l 79 45 q 45 43 61 45 q 29 24 29 41 q 46 2 29 4 q 79 0 62 0 m 1016 -14 q 1193 32 1129 -14 q 1282 170 1256 77 q 1308 403 1308 262 l 1308 708 q 1303 740 1308 724 q 1281 755 1299 755 q 1256 742 1261 755 q 1251 708 1251 728 l 1251 403 q 1232 200 1251 283 q 1163 76 1213 118 q 1016 33 1112 33 q 908 40 963 33 q 810 74 852 46 q 753 163 768 101 q 742 181 751 175 q 724 188 733 188 q 703 172 706 188 q 704 145 700 157 q 766 47 722 81 q 875 -1 810 12 q 1016 -14 939 -14 "},"Í":{"ha":699,"x_min":29,"x_max":669,"o":"m 79 0 l 621 0 q 655 2 640 0 q 669 22 669 4 q 655 43 669 41 q 621 45 640 45 l 378 45 l 378 711 l 621 711 q 655 713 640 711 q 669 733 669 715 q 655 753 669 751 q 621 755 640 755 l 79 755 q 46 753 62 755 q 29 732 29 751 q 45 713 29 715 q 79 711 61 711 l 321 711 l 321 45 l 79 45 q 45 43 61 45 q 29 24 29 41 q 46 2 29 4 q 79 0 62 0 m 297 851 q 307 854 302 851 l 498 1017 q 509 1036 509 1025 q 498 1063 509 1051 q 472 1076 487 1076 q 455 1068 463 1076 l 284 881 q 279 869 279 876 q 297 851 279 851 "},"Ĭ":{"ha":699,"x_min":29,"x_max":669,"o":"m 79 0 l 621 0 q 655 2 640 0 q 669 22 669 4 q 655 43 669 41 q 621 45 640 45 l 378 45 l 378 711 l 621 711 q 655 713 640 711 q 669 733 669 715 q 655 753 669 751 q 621 755 640 755 l 79 755 q 46 753 62 755 q 29 732 29 751 q 45 713 29 715 q 79 711 61 711 l 321 711 l 321 45 l 79 45 q 45 43 61 45 q 29 24 29 41 q 46 2 29 4 q 79 0 62 0 m 350 852 q 428 871 399 852 q 469 920 456 891 q 482 975 482 948 q 478 997 482 987 q 457 1006 473 1006 q 439 997 443 1006 q 435 975 435 988 q 417 917 435 944 q 350 890 399 890 q 283 917 301 890 q 265 975 265 944 q 261 997 265 988 q 243 1006 257 1006 q 222 997 227 1006 q 218 975 218 987 q 231 920 218 948 q 273 871 243 891 q 350 852 302 852 "},"Î":{"ha":699,"x_min":29,"x_max":669,"o":"m 79 0 l 621 0 q 655 2 640 0 q 669 22 669 4 q 655 43 669 41 q 621 45 640 45 l 378 45 l 378 711 l 621 711 q 655 713 640 711 q 669 733 669 715 q 655 753 669 751 q 621 755 640 755 l 79 755 q 46 753 62 755 q 29 732 29 751 q 45 713 29 715 q 79 711 61 711 l 321 711 l 321 45 l 79 45 q 45 43 61 45 q 29 24 29 41 q 46 2 29 4 q 79 0 62 0 m 241 852 q 277 880 262 852 l 350 1021 l 422 880 q 458 852 436 852 q 477 860 470 852 q 477 880 485 868 l 386 1032 q 350 1058 370 1058 q 314 1032 330 1058 l 222 880 q 222 860 214 868 q 241 852 229 852 "},"Ȉ":{"ha":699,"x_min":29,"x_max":669,"o":"m 79 0 l 621 0 q 655 2 640 0 q 669 22 669 4 q 655 43 669 41 q 621 45 640 45 l 378 45 l 378 711 l 621 711 q 655 713 640 711 q 669 733 669 715 q 655 753 669 751 q 621 755 640 755 l 79 755 q 46 753 62 755 q 29 732 29 751 q 45 713 29 715 q 79 711 61 711 l 321 711 l 321 45 l 79 45 q 45 43 61 45 q 29 24 29 41 q 46 2 29 4 q 79 0 62 0 m 439 852 q 457 869 457 852 q 452 882 457 876 l 274 1062 q 257 1069 267 1069 q 236 1059 245 1069 q 227 1037 227 1049 q 237 1018 227 1026 l 429 855 q 439 852 433 852 m 284 852 q 302 869 302 852 q 297 882 302 876 l 119 1062 q 102 1069 112 1069 q 81 1059 90 1069 q 73 1037 73 1049 q 83 1018 73 1026 l 274 855 q 284 852 279 852 "},"Ï":{"ha":699,"x_min":29,"x_max":669,"o":"m 79 0 l 621 0 q 655 2 640 0 q 669 22 669 4 q 655 43 669 41 q 621 45 640 45 l 378 45 l 378 711 l 621 711 q 655 713 640 711 q 669 733 669 715 q 655 753 669 751 q 621 755 640 755 l 79 755 q 46 753 62 755 q 29 732 29 751 q 45 713 29 715 q 79 711 61 711 l 321 711 l 321 45 l 79 45 q 45 43 61 45 q 29 24 29 41 q 46 2 29 4 q 79 0 62 0 m 484 873 q 513 884 501 873 q 525 911 525 895 q 513 940 525 929 q 484 951 501 951 q 456 940 467 951 q 445 911 445 929 q 456 884 445 895 q 484 873 467 873 m 214 873 q 242 884 231 873 q 254 911 254 895 q 242 940 254 929 q 214 951 231 951 q 185 940 196 951 q 174 911 174 929 q 185 884 174 895 q 214 873 196 873 "},"İ":{"ha":699,"x_min":29,"x_max":669,"o":"m 79 0 l 621 0 q 655 2 640 0 q 669 22 669 4 q 655 43 669 41 q 621 45 640 45 l 378 45 l 378 711 l 621 711 q 655 713 640 711 q 669 733 669 715 q 655 753 669 751 q 621 755 640 755 l 79 755 q 46 753 62 755 q 29 732 29 751 q 45 713 29 715 q 79 711 61 711 l 321 711 l 321 45 l 79 45 q 45 43 61 45 q 29 24 29 41 q 46 2 29 4 q 79 0 62 0 m 349 873 q 378 884 366 873 q 390 911 390 895 q 378 940 390 929 q 349 951 366 951 q 321 940 332 951 q 310 911 310 929 q 321 884 310 895 q 349 873 332 873 "},"Ì":{"ha":699,"x_min":29,"x_max":669,"o":"m 79 0 l 621 0 q 655 2 640 0 q 669 22 669 4 q 655 43 669 41 q 621 45 640 45 l 378 45 l 378 711 l 621 711 q 655 713 640 711 q 669 733 669 715 q 655 753 669 751 q 621 755 640 755 l 79 755 q 46 753 62 755 q 29 732 29 751 q 45 713 29 715 q 79 711 61 711 l 321 711 l 321 45 l 79 45 q 45 43 61 45 q 29 24 29 41 q 46 2 29 4 q 79 0 62 0 m 403 852 q 421 870 421 852 q 416 882 421 877 l 245 1069 q 228 1077 237 1077 q 202 1065 213 1077 q 191 1038 191 1053 q 201 1019 191 1027 l 393 856 q 403 852 397 852 "},"Ȋ":{"ha":699,"x_min":29,"x_max":669,"o":"m 79 0 l 621 0 q 655 2 640 0 q 669 22 669 4 q 655 43 669 41 q 621 45 640 45 l 378 45 l 378 711 l 621 711 q 655 713 640 711 q 669 733 669 715 q 655 753 669 751 q 621 755 640 755 l 79 755 q 46 753 62 755 q 29 732 29 751 q 45 713 29 715 q 79 711 61 711 l 321 711 l 321 45 l 79 45 q 45 43 61 45 q 29 24 29 41 q 46 2 29 4 q 79 0 62 0 m 243 852 q 259 861 256 852 q 263 883 263 870 q 282 943 263 914 q 350 971 301 971 q 418 943 399 971 q 437 883 437 914 q 440 861 437 870 q 457 852 444 852 q 476 862 472 852 q 480 883 480 872 q 468 939 480 910 q 427 987 456 967 q 350 1006 399 1006 q 273 987 302 1006 q 232 939 244 967 q 220 883 220 910 q 224 862 220 872 q 243 852 228 852 "},"Ī":{"ha":699,"x_min":29,"x_max":669,"o":"m 79 0 l 621 0 q 655 2 640 0 q 669 22 669 4 q 655 43 669 41 q 621 45 640 45 l 378 45 l 378 711 l 621 711 q 655 713 640 711 q 669 733 669 715 q 655 753 669 751 q 621 755 640 755 l 79 755 q 46 753 62 755 q 29 732 29 751 q 45 713 29 715 q 79 711 61 711 l 321 711 l 321 45 l 79 45 q 45 43 61 45 q 29 24 29 41 q 46 2 29 4 q 79 0 62 0 m 234 863 l 466 863 q 483 871 478 863 q 488 884 488 879 q 483 899 488 890 q 466 907 478 907 l 234 907 q 217 899 222 907 q 212 884 212 890 q 217 871 212 879 q 234 863 222 863 "},"Į":{"ha":699,"x_min":29,"x_max":669,"o":"m 79 0 l 621 0 q 655 2 640 0 q 669 22 669 4 q 655 43 669 41 q 621 45 640 45 l 378 45 l 378 711 l 621 711 q 655 713 640 711 q 669 733 669 715 q 655 753 669 751 q 621 755 640 755 l 79 755 q 46 753 62 755 q 29 732 29 751 q 45 713 29 715 q 79 711 61 711 l 321 711 l 321 45 l 79 45 q 45 43 61 45 q 29 24 29 41 q 46 2 29 4 q 79 0 62 0 m 316 -186 q 366 -172 342 -186 q 401 -134 390 -158 l 395 -128 q 373 -141 386 -134 q 347 -149 360 -149 q 324 -138 336 -149 q 312 -100 312 -127 q 324 -50 312 -78 q 359 7 336 -21 l 339 7 q 276 -56 301 -24 q 252 -121 252 -88 q 272 -171 252 -156 q 316 -186 293 -186 "},"Ĩ":{"ha":699,"x_min":29,"x_max":669,"o":"m 79 0 l 621 0 q 655 2 640 0 q 669 22 669 4 q 655 43 669 41 q 621 45 640 45 l 378 45 l 378 711 l 621 711 q 655 713 640 711 q 669 733 669 715 q 655 753 669 751 q 621 755 640 755 l 79 755 q 46 753 62 755 q 29 732 29 751 q 45 713 29 715 q 79 711 61 711 l 321 711 l 321 45 l 79 45 q 45 43 61 45 q 29 24 29 41 q 46 2 29 4 q 79 0 62 0 m 216 852 q 232 861 228 852 q 236 882 236 870 q 243 907 236 901 q 260 912 250 912 q 311 897 278 912 q 378 867 343 882 q 439 852 414 852 q 491 871 476 852 q 506 920 506 891 q 502 942 506 932 q 483 951 498 951 q 467 942 471 951 q 463 921 463 933 q 456 897 463 902 q 439 891 449 891 q 384 906 411 891 q 328 937 357 922 q 260 951 298 951 q 208 932 223 951 q 193 883 193 912 q 197 862 193 872 q 216 852 201 852 "},"J":{"ha":717,"x_min":1,"x_max":609,"o":"m 317 -14 q 493 32 430 -14 q 583 170 557 77 q 609 403 609 262 l 609 708 q 604 740 609 724 q 582 755 600 755 q 557 742 562 755 q 551 708 551 728 l 551 403 q 533 200 551 283 q 464 76 514 118 q 317 33 413 33 q 209 40 264 33 q 111 74 153 46 q 54 163 68 101 q 43 181 52 175 q 25 188 34 188 q 4 172 7 188 q 5 145 1 157 q 67 47 22 81 q 176 -1 111 12 q 317 -14 240 -14 "},"Ĵ":{"ha":717,"x_min":1,"x_max":717,"o":"m 317 -14 q 493 32 430 -14 q 583 170 557 77 q 609 403 609 262 l 609 708 q 604 740 609 724 q 582 755 600 755 q 557 742 562 755 q 551 708 551 728 l 551 403 q 533 200 551 283 q 464 76 514 118 q 317 33 413 33 q 209 40 264 33 q 111 74 153 46 q 54 163 68 101 q 43 181 52 175 q 25 188 34 188 q 4 172 7 188 q 5 145 1 157 q 67 47 22 81 q 176 -1 111 12 q 317 -14 240 -14 m 473 852 q 509 880 494 852 l 582 1021 l 654 880 q 690 852 668 852 q 709 860 702 852 q 709 880 717 868 l 618 1032 q 582 1058 602 1058 q 546 1032 562 1058 l 454 880 q 454 860 446 868 q 473 852 461 852 "},"K":{"ha":833,"x_min":109,"x_max":760,"o":"m 138 0 q 161 14 155 0 q 167 47 167 28 l 167 301 l 307 393 l 713 10 q 735 0 724 0 q 752 7 745 0 q 759 25 759 15 q 745 52 759 40 l 350 421 l 745 708 q 760 734 760 719 q 737 755 760 755 q 710 745 724 755 l 167 355 l 167 712 q 161 743 167 730 q 140 755 156 755 q 114 743 120 755 q 109 711 109 730 l 109 46 q 114 14 109 28 q 138 0 119 0 "},"Ķ":{"ha":833,"x_min":109,"x_max":760,"o":"m 138 0 q 161 14 155 0 q 167 47 167 28 l 167 301 l 307 393 l 713 10 q 735 0 724 0 q 752 7 745 0 q 759 25 759 15 q 745 52 759 40 l 350 421 l 745 708 q 760 734 760 719 q 737 755 760 755 q 710 745 724 755 l 167 355 l 167 712 q 161 743 167 730 q 140 755 156 755 q 114 743 120 755 q 109 711 109 730 l 109 46 q 114 14 109 28 q 138 0 119 0 m 389 -240 q 459 -205 433 -240 q 486 -135 486 -170 q 470 -97 486 -109 q 439 -85 455 -85 q 406 -95 420 -85 q 392 -125 392 -105 q 402 -155 392 -145 q 419 -168 412 -165 q 427 -180 427 -172 q 387 -216 427 -214 q 373 -227 373 -216 q 389 -240 373 -240 "},"L":{"ha":777,"x_min":109,"x_max":777,"o":"m 136 0 l 749 0 q 769 7 762 0 q 777 22 777 14 q 769 38 777 31 q 749 45 762 45 l 166 45 l 166 711 q 161 742 166 728 q 140 755 157 755 q 115 742 121 755 q 109 711 109 729 l 109 25 q 112 4 109 7 q 136 0 115 0 "},"Ǉ":{"ha":1493,"x_min":109,"x_max":1385,"o":"m 136 0 l 749 0 q 769 7 762 0 q 777 22 777 14 q 769 38 777 31 q 749 45 762 45 l 166 45 l 166 711 q 161 742 166 728 q 140 755 157 755 q 115 742 121 755 q 109 711 109 729 l 109 25 q 112 4 109 7 q 136 0 115 0 m 1093 -14 q 1270 32 1206 -14 q 1359 170 1333 77 q 1385 403 1385 262 l 1385 708 q 1381 740 1385 724 q 1358 755 1376 755 q 1333 742 1339 755 q 1328 708 1328 728 l 1328 403 q 1309 200 1328 283 q 1240 76 1291 118 q 1093 33 1190 33 q 985 40 1040 33 q 887 74 930 46 q 831 163 845 101 q 819 181 828 175 q 802 188 810 188 q 780 172 783 188 q 781 145 777 157 q 843 47 799 81 q 952 -1 888 12 q 1093 -14 1017 -14 "},"Ĺ":{"ha":777,"x_min":109,"x_max":777,"o":"m 136 0 l 749 0 q 769 7 762 0 q 777 22 777 14 q 769 38 777 31 q 749 45 762 45 l 166 45 l 166 711 q 161 742 166 728 q 140 755 157 755 q 115 742 121 755 q 109 711 109 729 l 109 25 q 112 4 109 7 q 136 0 115 0 m 336 851 q 346 854 341 851 l 537 1017 q 547 1036 547 1025 q 536 1063 547 1051 q 511 1076 526 1076 q 494 1068 501 1076 l 323 881 q 317 869 317 876 q 336 851 317 851 "},"Ľ":{"ha":777,"x_min":109,"x_max":777,"o":"m 136 0 l 749 0 q 769 7 762 0 q 777 22 777 14 q 769 38 777 31 q 749 45 762 45 l 166 45 l 166 711 q 161 742 166 728 q 140 755 157 755 q 115 742 121 755 q 109 711 109 729 l 109 25 q 112 4 109 7 q 136 0 115 0 m 662 614 q 732 650 706 614 q 758 720 758 685 q 743 758 758 745 q 712 770 728 770 q 679 760 693 770 q 665 730 665 749 q 675 700 665 709 q 692 686 685 690 q 700 674 700 682 q 660 639 700 641 q 646 627 646 638 q 662 614 646 614 "},"Ļ":{"ha":777,"x_min":109,"x_max":777,"o":"m 136 0 l 749 0 q 769 7 762 0 q 777 22 777 14 q 769 38 777 31 q 749 45 762 45 l 166 45 l 166 711 q 161 742 166 728 q 140 755 157 755 q 115 742 121 755 q 109 711 109 729 l 109 25 q 112 4 109 7 q 136 0 115 0 m 398 -240 q 468 -205 442 -240 q 494 -135 494 -170 q 479 -97 494 -109 q 448 -85 464 -85 q 415 -95 429 -85 q 401 -125 401 -105 q 411 -155 401 -145 q 428 -168 421 -165 q 436 -180 436 -172 q 396 -216 436 -214 q 382 -227 382 -216 q 398 -240 382 -240 "},"Ŀ":{"ha":777,"x_min":109,"x_max":777,"o":"m 136 0 l 749 0 q 769 7 762 0 q 777 22 777 14 q 769 38 777 31 q 749 45 762 45 l 166 45 l 166 711 q 161 742 166 728 q 140 755 157 755 q 115 742 121 755 q 109 711 109 729 l 109 25 q 112 4 109 7 q 136 0 115 0 m 442 342 q 474 353 460 342 q 487 384 487 365 q 474 416 487 404 q 442 428 460 428 q 411 416 422 428 q 399 384 399 404 q 411 353 399 365 q 442 342 422 342 "},"ǈ":{"ha":1104,"x_min":109,"x_max":1034,"o":"m 136 0 l 749 0 q 769 7 762 0 q 777 22 777 14 q 769 38 777 31 q 749 45 762 45 l 166 45 l 166 711 q 161 742 166 728 q 140 755 157 755 q 115 742 121 755 q 109 711 109 729 l 109 25 q 112 4 109 7 q 136 0 115 0 m 821 -180 q 935 -156 895 -180 q 994 -94 976 -132 q 1016 -14 1012 -56 q 1020 64 1020 28 l 1020 484 q 1017 514 1020 502 q 994 526 1013 526 q 971 514 976 526 q 966 484 966 502 l 966 64 q 964 -6 966 28 q 949 -70 962 -41 q 907 -116 937 -99 q 821 -134 878 -134 q 790 -136 804 -134 q 777 -157 777 -139 q 790 -177 777 -174 q 821 -180 804 -180 m 993 637 q 1022 648 1010 637 q 1034 675 1034 659 q 1022 704 1034 693 q 993 715 1010 715 q 964 704 975 715 q 954 675 954 693 q 964 648 954 659 q 993 637 975 637 "},"Ł":{"ha":752,"x_min":-18,"x_max":730,"o":"m 167 0 l 682 0 q 716 3 702 0 q 730 24 730 6 q 716 44 730 41 q 682 47 702 47 l 189 47 l 189 388 l 448 496 l 435 540 l 189 439 l 189 708 q 186 742 189 728 q 167 755 183 755 q 144 742 147 755 q 140 708 140 729 l 140 418 l -18 355 l -4 312 l 140 369 l 140 47 q 144 5 140 11 q 167 0 147 0 "},"M":{"ha":1199,"x_min":108,"x_max":1091,"o":"m 137 0 q 160 14 154 0 q 165 47 165 28 l 165 650 l 566 58 q 600 35 581 35 q 633 58 616 35 l 1034 650 l 1034 47 q 1039 14 1034 28 q 1062 0 1045 0 q 1086 14 1082 0 q 1091 47 1091 28 l 1091 719 q 1083 745 1091 734 q 1061 755 1074 755 q 1020 726 1039 755 l 600 94 l 179 726 q 138 755 159 755 q 116 745 125 755 q 108 719 108 734 l 108 47 q 113 14 108 28 q 137 0 117 0 "},"N":{"ha":1036,"x_min":109,"x_max":927,"o":"m 138 0 q 160 14 155 0 q 166 47 166 28 l 166 669 l 865 21 q 904 0 888 0 q 927 43 927 0 l 927 704 q 922 740 927 725 q 899 755 916 755 q 874 740 878 755 q 869 704 869 724 l 869 87 l 176 733 q 136 753 153 753 q 109 711 109 753 l 109 47 q 114 14 109 28 q 138 0 119 0 "},"Ǌ":{"ha":1752,"x_min":109,"x_max":1645,"o":"m 138 0 q 160 14 155 0 q 166 47 166 28 l 166 669 l 865 21 q 904 0 888 0 q 927 43 927 0 l 927 704 q 922 740 927 725 q 899 755 916 755 q 874 740 878 755 q 869 704 869 724 l 869 87 l 176 733 q 136 753 153 753 q 109 711 109 753 l 109 47 q 114 14 109 28 q 138 0 119 0 m 1352 -14 q 1529 32 1466 -14 q 1618 170 1592 77 q 1645 403 1645 262 l 1645 708 q 1640 740 1645 724 q 1617 755 1635 755 q 1592 742 1598 755 q 1587 708 1587 728 l 1587 403 q 1568 200 1587 283 q 1499 76 1550 118 q 1352 33 1449 33 q 1244 40 1299 33 q 1146 74 1189 46 q 1090 163 1104 101 q 1078 181 1087 175 q 1061 188 1069 188 q 1039 172 1042 188 q 1040 145 1036 157 q 1102 47 1058 81 q 1211 -1 1147 12 q 1352 -14 1276 -14 "},"Ń":{"ha":1036,"x_min":109,"x_max":927,"o":"m 138 0 q 160 14 155 0 q 166 47 166 28 l 166 669 l 865 21 q 904 0 888 0 q 927 43 927 0 l 927 704 q 922 740 927 725 q 899 755 916 755 q 874 740 878 755 q 869 704 869 724 l 869 87 l 176 733 q 136 753 153 753 q 109 711 109 753 l 109 47 q 114 14 109 28 q 138 0 119 0 m 465 851 q 475 854 471 851 l 667 1017 q 677 1036 677 1025 q 666 1063 677 1051 q 640 1076 655 1076 q 623 1068 631 1076 l 452 881 q 447 869 447 876 q 465 851 447 851 "},"Ň":{"ha":1036,"x_min":109,"x_max":927,"o":"m 138 0 q 160 14 155 0 q 166 47 166 28 l 166 669 l 865 21 q 904 0 888 0 q 927 43 927 0 l 927 704 q 922 740 927 725 q 899 755 916 755 q 874 740 878 755 q 869 704 869 724 l 869 87 l 176 733 q 136 753 153 753 q 109 711 109 753 l 109 47 q 114 14 109 28 q 138 0 119 0 m 518 852 q 554 878 537 852 l 646 1029 q 646 1050 653 1042 q 627 1058 638 1058 q 590 1030 604 1058 l 518 889 l 446 1030 q 409 1058 431 1058 q 390 1050 397 1058 q 390 1029 382 1042 l 482 878 q 518 852 498 852 "},"Ņ":{"ha":1036,"x_min":109,"x_max":927,"o":"m 138 0 q 160 14 155 0 q 166 47 166 28 l 166 669 l 865 21 q 904 0 888 0 q 927 43 927 0 l 927 704 q 922 740 927 725 q 899 755 916 755 q 874 740 878 755 q 869 704 869 724 l 869 87 l 176 733 q 136 753 153 753 q 109 711 109 753 l 109 47 q 114 14 109 28 q 138 0 119 0 m 468 -240 q 538 -205 512 -240 q 564 -135 564 -170 q 549 -97 564 -109 q 518 -85 534 -85 q 485 -95 499 -85 q 471 -125 471 -105 q 481 -155 471 -145 q 498 -168 491 -165 q 506 -180 506 -172 q 466 -216 506 -214 q 452 -227 452 -216 q 468 -240 452 -240 "},"ǋ":{"ha":1363,"x_min":109,"x_max":1293,"o":"m 138 0 q 160 14 155 0 q 166 47 166 28 l 166 669 l 865 21 q 904 0 888 0 q 927 43 927 0 l 927 704 q 922 740 927 725 q 899 755 916 755 q 874 740 878 755 q 869 704 869 724 l 869 87 l 176 733 q 136 753 153 753 q 109 711 109 753 l 109 47 q 114 14 109 28 q 138 0 119 0 m 1080 -180 q 1194 -156 1154 -180 q 1253 -94 1235 -132 q 1275 -14 1271 -56 q 1279 64 1279 28 l 1279 484 q 1276 514 1279 502 q 1253 526 1272 526 q 1230 514 1235 526 q 1225 484 1225 502 l 1225 64 q 1223 -6 1225 28 q 1208 -70 1221 -41 q 1166 -116 1196 -99 q 1080 -134 1137 -134 q 1049 -136 1063 -134 q 1036 -157 1036 -139 q 1049 -177 1036 -174 q 1080 -180 1063 -180 m 1252 637 q 1281 648 1269 637 q 1293 675 1293 659 q 1281 704 1293 693 q 1252 715 1269 715 q 1223 704 1234 715 q 1213 675 1213 693 q 1223 648 1213 659 q 1252 637 1234 637 "},"Ñ":{"ha":1036,"x_min":109,"x_max":927,"o":"m 138 0 q 160 14 155 0 q 166 47 166 28 l 166 669 l 865 21 q 904 0 888 0 q 927 43 927 0 l 927 704 q 922 740 927 725 q 899 755 916 755 q 874 740 878 755 q 869 704 869 724 l 869 87 l 176 733 q 136 753 153 753 q 109 711 109 753 l 109 47 q 114 14 109 28 q 138 0 119 0 m 385 852 q 400 861 396 852 q 404 882 404 870 q 411 907 404 901 q 429 912 418 912 q 479 897 446 912 q 547 867 511 882 q 607 852 582 852 q 659 871 644 852 q 674 920 674 891 q 670 942 674 932 q 651 951 666 951 q 635 942 640 951 q 631 921 631 933 q 624 897 631 902 q 607 891 617 891 q 552 906 579 891 q 496 937 526 922 q 429 951 466 951 q 376 932 391 951 q 361 883 361 912 q 366 862 361 872 q 385 852 370 852 "},"Ŋ":{"ha":1035,"x_min":109,"x_max":927,"o":"m 727 -180 q 833 -159 793 -180 q 893 -103 873 -138 q 920 -30 913 -69 q 927 43 927 9 l 927 704 q 922 740 927 725 q 899 755 916 755 q 874 740 878 755 q 869 704 869 724 l 869 87 l 176 733 q 136 753 153 753 q 109 711 109 753 l 109 47 q 114 14 109 28 q 138 0 119 0 q 160 14 155 0 q 166 47 166 28 l 166 669 l 871 16 q 860 -57 870 -23 q 820 -113 850 -92 q 727 -134 789 -134 q 696 -136 709 -134 q 682 -157 682 -139 q 696 -177 682 -174 q 727 -180 709 -180 "},"O":{"ha":1163,"x_min":83,"x_max":1080,"o":"m 581 -14 q 959 83 839 -14 q 1080 378 1080 180 q 959 673 1080 576 q 581 770 839 770 q 203 673 323 770 q 83 378 83 576 q 203 83 83 180 q 581 -14 323 -14 m 581 31 q 250 110 359 31 q 141 378 141 189 q 250 646 141 567 q 581 725 359 725 q 913 646 804 725 q 1022 378 1022 567 q 913 110 1022 189 q 581 31 804 31 "},"Ó":{"ha":1163,"x_min":83,"x_max":1080,"o":"m 581 -14 q 959 83 839 -14 q 1080 378 1080 180 q 959 673 1080 576 q 581 770 839 770 q 203 673 323 770 q 83 378 83 576 q 203 83 83 180 q 581 -14 323 -14 m 581 31 q 250 110 359 31 q 141 378 141 189 q 250 646 141 567 q 581 725 359 725 q 913 646 804 725 q 1022 378 1022 567 q 913 110 1022 189 q 581 31 804 31 m 529 851 q 539 854 534 851 l 730 1017 q 741 1036 741 1025 q 730 1063 741 1051 q 704 1076 719 1076 q 687 1068 694 1076 l 516 881 q 511 869 511 876 q 529 851 511 851 "},"Ŏ":{"ha":1163,"x_min":83,"x_max":1080,"o":"m 581 -14 q 959 83 839 -14 q 1080 378 1080 180 q 959 673 1080 576 q 581 770 839 770 q 203 673 323 770 q 83 378 83 576 q 203 83 83 180 q 581 -14 323 -14 m 581 31 q 250 110 359 31 q 141 378 141 189 q 250 646 141 567 q 581 725 359 725 q 913 646 804 725 q 1022 378 1022 567 q 913 110 1022 189 q 581 31 804 31 m 582 852 q 660 871 631 852 q 701 920 688 891 q 714 975 714 948 q 710 997 714 987 q 689 1006 705 1006 q 671 997 675 1006 q 667 975 667 988 q 649 917 667 944 q 582 890 631 890 q 515 917 533 890 q 497 975 497 944 q 493 997 497 988 q 475 1006 489 1006 q 454 997 458 1006 q 450 975 450 987 q 463 920 450 948 q 505 871 475 891 q 582 852 534 852 "},"Ô":{"ha":1163,"x_min":83,"x_max":1080,"o":"m 581 -14 q 959 83 839 -14 q 1080 378 1080 180 q 959 673 1080 576 q 581 770 839 770 q 203 673 323 770 q 83 378 83 576 q 203 83 83 180 q 581 -14 323 -14 m 581 31 q 250 110 359 31 q 141 378 141 189 q 250 646 141 567 q 581 725 359 725 q 913 646 804 725 q 1022 378 1022 567 q 913 110 1022 189 q 581 31 804 31 m 473 852 q 509 880 494 852 l 582 1021 l 654 880 q 690 852 668 852 q 709 860 702 852 q 709 880 717 868 l 618 1032 q 582 1058 602 1058 q 546 1032 562 1058 l 454 880 q 454 860 446 868 q 473 852 461 852 "},"Ȍ":{"ha":1163,"x_min":83,"x_max":1080,"o":"m 581 -14 q 959 83 839 -14 q 1080 378 1080 180 q 959 673 1080 576 q 581 770 839 770 q 203 673 323 770 q 83 378 83 576 q 203 83 83 180 q 581 -14 323 -14 m 581 31 q 250 110 359 31 q 141 378 141 189 q 250 646 141 567 q 581 725 359 725 q 913 646 804 725 q 1022 378 1022 567 q 913 110 1022 189 q 581 31 804 31 m 671 852 q 689 869 689 852 q 684 882 689 876 l 506 1062 q 489 1069 498 1069 q 468 1059 477 1069 q 459 1037 459 1049 q 469 1018 459 1026 l 661 855 q 671 852 665 852 m 516 852 q 534 869 534 852 q 529 882 534 876 l 351 1062 q 334 1069 344 1069 q 313 1059 322 1069 q 304 1037 304 1049 q 315 1018 304 1026 l 506 855 q 516 852 511 852 "},"Ö":{"ha":1163,"x_min":83,"x_max":1080,"o":"m 581 -14 q 959 83 839 -14 q 1080 378 1080 180 q 959 673 1080 576 q 581 770 839 770 q 203 673 323 770 q 83 378 83 576 q 203 83 83 180 q 581 -14 323 -14 m 581 31 q 250 110 359 31 q 141 378 141 189 q 250 646 141 567 q 581 725 359 725 q 913 646 804 725 q 1022 378 1022 567 q 913 110 1022 189 q 581 31 804 31 m 716 873 q 745 884 733 873 q 757 911 757 895 q 745 940 757 929 q 716 951 733 951 q 688 940 699 951 q 677 911 677 929 q 688 884 677 895 q 716 873 699 873 m 446 873 q 474 884 463 873 q 486 911 486 895 q 474 940 486 929 q 446 951 463 951 q 417 940 428 951 q 406 911 406 929 q 417 884 406 895 q 446 873 428 873 "},"Ò":{"ha":1163,"x_min":83,"x_max":1080,"o":"m 581 -14 q 959 83 839 -14 q 1080 378 1080 180 q 959 673 1080 576 q 581 770 839 770 q 203 673 323 770 q 83 378 83 576 q 203 83 83 180 q 581 -14 323 -14 m 581 31 q 250 110 359 31 q 141 378 141 189 q 250 646 141 567 q 581 725 359 725 q 913 646 804 725 q 1022 378 1022 567 q 913 110 1022 189 q 581 31 804 31 m 635 852 q 653 870 653 852 q 648 882 653 877 l 477 1069 q 460 1077 469 1077 q 434 1065 445 1077 q 423 1038 423 1053 q 433 1019 423 1027 l 625 856 q 635 852 629 852 "},"Ő":{"ha":1163,"x_min":83,"x_max":1080,"o":"m 581 -14 q 959 83 839 -14 q 1080 378 1080 180 q 959 673 1080 576 q 581 770 839 770 q 203 673 323 770 q 83 378 83 576 q 203 83 83 180 q 581 -14 323 -14 m 581 31 q 250 110 359 31 q 141 378 141 189 q 250 646 141 567 q 581 725 359 725 q 913 646 804 725 q 1022 378 1022 567 q 913 110 1022 189 q 581 31 804 31 m 654 850 q 664 854 659 850 l 862 1015 q 872 1034 872 1023 q 861 1057 872 1046 q 837 1068 849 1068 q 820 1061 827 1068 l 641 880 q 635 868 635 875 q 654 850 635 850 m 499 850 q 509 854 505 850 l 707 1015 q 718 1034 718 1023 q 706 1057 718 1046 q 682 1068 694 1068 q 665 1061 673 1068 l 486 880 q 481 868 481 875 q 499 850 481 850 "},"Ȏ":{"ha":1163,"x_min":83,"x_max":1080,"o":"m 581 -14 q 959 83 839 -14 q 1080 378 1080 180 q 959 673 1080 576 q 581 770 839 770 q 203 673 323 770 q 83 378 83 576 q 203 83 83 180 q 581 -14 323 -14 m 581 31 q 250 110 359 31 q 141 378 141 189 q 250 646 141 567 q 581 725 359 725 q 913 646 804 725 q 1022 378 1022 567 q 913 110 1022 189 q 581 31 804 31 m 475 852 q 491 861 488 852 q 495 883 495 870 q 514 943 495 914 q 582 971 533 971 q 650 943 631 971 q 669 883 669 914 q 672 861 669 870 q 689 852 676 852 q 708 862 704 852 q 712 883 712 872 q 700 939 712 910 q 659 987 688 967 q 582 1006 631 1006 q 505 987 534 1006 q 464 939 476 967 q 452 883 452 910 q 456 862 452 872 q 475 852 460 852 "},"Ō":{"ha":1163,"x_min":83,"x_max":1080,"o":"m 581 -14 q 959 83 839 -14 q 1080 378 1080 180 q 959 673 1080 576 q 581 770 839 770 q 203 673 323 770 q 83 378 83 576 q 203 83 83 180 q 581 -14 323 -14 m 581 31 q 250 110 359 31 q 141 378 141 189 q 250 646 141 567 q 581 725 359 725 q 913 646 804 725 q 1022 378 1022 567 q 913 110 1022 189 q 581 31 804 31 m 466 863 l 698 863 q 715 871 710 863 q 720 884 720 879 q 715 899 720 890 q 698 907 710 907 l 466 907 q 449 899 454 907 q 444 884 444 890 q 449 871 444 879 q 466 863 454 863 "},"Ø":{"ha":1163,"x_min":83,"x_max":1080,"o":"m 410 -108 q 429 -97 422 -108 q 441 -69 435 -85 l 464 -9 q 521 -13 492 -12 q 581 -14 550 -14 q 959 83 839 -14 q 1080 378 1080 180 q 1000 633 1080 539 q 752 757 920 728 l 774 815 q 779 830 777 823 q 781 844 781 838 q 777 861 781 853 q 759 868 773 868 q 737 856 743 868 q 726 829 731 844 l 701 764 q 581 770 646 770 q 203 673 323 770 q 83 378 83 576 q 164 121 83 216 q 414 -1 244 27 l 393 -55 q 388 -69 391 -62 q 385 -81 385 -75 q 389 -98 385 -89 q 410 -108 393 -108 m 429 41 q 213 145 284 65 q 141 378 141 224 q 250 646 141 567 q 581 725 359 725 q 635 724 609 725 q 685 720 661 723 l 429 41 m 581 31 q 480 35 527 31 l 736 714 q 951 611 880 691 q 1022 378 1022 530 q 913 110 1022 189 q 581 31 804 31 "},"Õ":{"ha":1163,"x_min":83,"x_max":1080,"o":"m 581 -14 q 959 83 839 -14 q 1080 378 1080 180 q 959 673 1080 576 q 581 770 839 770 q 203 673 323 770 q 83 378 83 576 q 203 83 83 180 q 581 -14 323 -14 m 581 31 q 250 110 359 31 q 141 378 141 189 q 250 646 141 567 q 581 725 359 725 q 913 646 804 725 q 1022 378 1022 567 q 913 110 1022 189 q 581 31 804 31 m 448 852 q 464 861 460 852 q 468 882 468 870 q 475 907 468 901 q 492 912 482 912 q 543 897 510 912 q 610 867 575 882 q 671 852 646 852 q 723 871 708 852 q 738 920 738 891 q 734 942 738 932 q 715 951 730 951 q 699 942 703 951 q 695 921 695 933 q 688 897 695 902 q 671 891 681 891 q 616 906 643 891 q 559 937 589 922 q 492 951 530 951 q 440 932 455 951 q 425 883 425 912 q 429 862 425 872 q 448 852 433 852 "},"Œ":{"ha":1613,"x_min":83,"x_max":1544,"o":"m 581 -14 q 848 23 741 -14 q 851 3 848 6 q 874 0 854 0 l 1506 0 q 1533 4 1522 0 q 1544 24 1544 7 q 1531 42 1544 39 q 1501 45 1519 45 l 905 45 l 905 366 l 1474 366 q 1484 366 1479 366 q 1493 366 1489 366 q 1515 369 1507 366 q 1524 388 1524 373 q 1513 405 1524 401 q 1486 408 1501 408 l 905 408 l 905 711 l 1500 711 q 1530 714 1518 711 q 1542 732 1542 717 q 1531 752 1542 748 q 1505 755 1520 755 l 873 755 q 852 754 856 755 q 848 733 848 752 q 728 761 794 753 q 581 770 662 770 q 203 673 323 770 q 83 378 83 576 q 203 83 83 180 q 581 -14 323 -14 m 581 31 q 250 110 359 31 q 141 378 141 189 q 250 646 141 567 q 581 725 359 725 q 730 715 664 725 q 848 684 796 705 l 848 73 q 730 41 796 51 q 581 31 664 31 "},"P":{"ha":805,"x_min":109,"x_max":783,"o":"m 140 0 q 161 16 156 0 q 166 52 166 32 l 166 236 l 368 236 q 527 241 452 236 q 659 269 602 246 q 750 343 717 292 q 783 486 783 394 q 753 628 783 575 q 668 709 723 682 q 537 746 613 737 q 368 755 461 755 l 143 755 q 116 753 123 755 q 109 730 109 750 l 109 52 q 114 15 109 31 q 140 0 120 0 m 166 278 l 166 711 l 368 711 q 570 694 491 711 q 687 629 649 677 q 725 486 725 581 q 687 347 725 391 q 571 291 650 303 q 368 278 492 278 l 166 278 "},"Þ":{"ha":699,"x_min":109,"x_max":671,"o":"m 140 0 q 161 16 156 0 q 166 52 166 32 l 166 179 l 334 179 q 506 197 439 179 q 608 245 572 215 q 657 313 644 275 q 671 390 671 351 q 657 469 671 431 q 606 538 643 507 q 504 588 570 570 q 334 606 438 606 l 166 606 l 166 701 q 161 737 166 721 q 140 753 156 753 q 114 738 120 753 q 109 701 109 722 l 109 52 q 114 15 109 31 q 140 0 120 0 m 166 224 l 166 562 l 334 562 q 480 547 425 562 q 566 508 536 532 q 606 453 595 484 q 616 391 616 422 q 606 330 616 359 q 567 276 596 300 q 482 238 538 252 q 334 224 426 224 l 166 224 "},"Q":{"ha":1163,"x_min":83,"x_max":1080,"o":"m 709 -142 q 732 -119 732 -142 q 731 -106 732 -113 q 728 -90 730 -98 l 711 -7 q 990 111 901 16 q 1080 378 1080 207 q 959 673 1080 576 q 581 770 839 770 q 203 673 323 770 q 83 378 83 576 q 203 83 83 180 q 581 -14 323 -14 q 623 -13 603 -14 q 663 -12 644 -12 l 681 -102 q 689 -129 684 -117 q 709 -142 694 -142 m 581 31 q 250 110 359 31 q 141 378 141 189 q 250 646 141 567 q 581 725 359 725 q 913 646 804 725 q 1022 378 1022 567 q 943 136 1022 216 q 702 37 863 56 l 692 85 q 685 114 690 102 q 665 127 680 127 q 646 119 651 127 q 641 102 641 111 q 642 89 641 96 q 645 74 644 81 l 653 33 q 581 31 618 31 "},"R":{"ha":852,"x_min":109,"x_max":774,"o":"m 141 0 q 162 16 157 0 q 167 52 167 32 l 167 307 l 420 307 l 692 16 q 709 4 701 7 q 725 0 718 0 q 748 22 748 0 q 736 47 748 35 l 487 309 q 587 322 536 311 q 680 355 637 332 q 748 419 722 378 q 774 521 774 459 q 741 655 774 607 q 647 724 707 703 q 506 750 587 745 q 331 755 426 755 l 134 755 q 112 753 115 755 q 109 730 109 750 l 109 52 q 115 15 109 31 q 141 0 121 0 m 167 351 l 167 711 l 331 711 q 542 701 456 711 q 672 651 628 690 q 716 521 716 611 q 675 410 716 446 q 567 362 634 374 q 421 351 500 351 l 167 351 "},"Ŕ":{"ha":852,"x_min":109,"x_max":774,"o":"m 141 0 q 162 16 157 0 q 167 52 167 32 l 167 307 l 420 307 l 692 16 q 709 4 701 7 q 725 0 718 0 q 748 22 748 0 q 736 47 748 35 l 487 309 q 587 322 536 311 q 680 355 637 332 q 748 419 722 378 q 774 521 774 459 q 741 655 774 607 q 647 724 707 703 q 506 750 587 745 q 331 755 426 755 l 134 755 q 112 753 115 755 q 109 730 109 750 l 109 52 q 115 15 109 31 q 141 0 121 0 m 167 351 l 167 711 l 331 711 q 542 701 456 711 q 672 651 628 690 q 716 521 716 611 q 675 410 716 446 q 567 362 634 374 q 421 351 500 351 l 167 351 m 387 851 q 397 854 392 851 l 588 1017 q 598 1036 598 1025 q 587 1063 598 1051 q 562 1076 576 1076 q 545 1068 552 1076 l 374 881 q 368 869 368 876 q 387 851 368 851 "},"Ř":{"ha":852,"x_min":109,"x_max":774,"o":"m 141 0 q 162 16 157 0 q 167 52 167 32 l 167 307 l 420 307 l 692 16 q 709 4 701 7 q 725 0 718 0 q 748 22 748 0 q 736 47 748 35 l 487 309 q 587 322 536 311 q 680 355 637 332 q 748 419 722 378 q 774 521 774 459 q 741 655 774 607 q 647 724 707 703 q 506 750 587 745 q 331 755 426 755 l 134 755 q 112 753 115 755 q 109 730 109 750 l 109 52 q 115 15 109 31 q 141 0 121 0 m 167 351 l 167 711 l 331 711 q 542 701 456 711 q 672 651 628 690 q 716 521 716 611 q 675 410 716 446 q 567 362 634 374 q 421 351 500 351 l 167 351 m 439 852 q 475 878 458 852 l 567 1029 q 567 1050 574 1042 q 548 1058 559 1058 q 511 1030 526 1058 l 439 889 l 367 1030 q 330 1058 352 1058 q 311 1050 319 1058 q 311 1029 304 1042 l 404 878 q 439 852 420 852 "},"Ŗ":{"ha":852,"x_min":109,"x_max":774,"o":"m 141 0 q 162 16 157 0 q 167 52 167 32 l 167 307 l 420 307 l 692 16 q 709 4 701 7 q 725 0 718 0 q 748 22 748 0 q 736 47 748 35 l 487 309 q 587 322 536 311 q 680 355 637 332 q 748 419 722 378 q 774 521 774 459 q 741 655 774 607 q 647 724 707 703 q 506 750 587 745 q 331 755 426 755 l 134 755 q 112 753 115 755 q 109 730 109 750 l 109 52 q 115 15 109 31 q 141 0 121 0 m 167 351 l 167 711 l 331 711 q 542 701 456 711 q 672 651 628 690 q 716 521 716 611 q 675 410 716 446 q 567 362 634 374 q 421 351 500 351 l 167 351 m 396 -240 q 466 -205 440 -240 q 492 -135 492 -170 q 477 -97 492 -109 q 446 -85 462 -85 q 413 -95 427 -85 q 399 -125 399 -105 q 409 -155 399 -145 q 426 -168 419 -165 q 434 -180 434 -172 q 394 -216 434 -214 q 380 -227 380 -216 q 396 -240 380 -240 "},"Ȑ":{"ha":852,"x_min":109,"x_max":774,"o":"m 141 0 q 162 16 157 0 q 167 52 167 32 l 167 307 l 420 307 l 692 16 q 709 4 701 7 q 725 0 718 0 q 748 22 748 0 q 736 47 748 35 l 487 309 q 587 322 536 311 q 680 355 637 332 q 748 419 722 378 q 774 521 774 459 q 741 655 774 607 q 647 724 707 703 q 506 750 587 745 q 331 755 426 755 l 134 755 q 112 753 115 755 q 109 730 109 750 l 109 52 q 115 15 109 31 q 141 0 121 0 m 167 351 l 167 711 l 331 711 q 542 701 456 711 q 672 651 628 690 q 716 521 716 611 q 675 410 716 446 q 567 362 634 374 q 421 351 500 351 l 167 351 m 528 852 q 547 869 547 852 q 541 882 547 876 l 363 1062 q 347 1069 356 1069 q 326 1059 334 1069 q 317 1037 317 1049 q 327 1018 317 1026 l 518 855 q 528 852 523 852 m 374 852 q 392 869 392 852 q 387 882 392 876 l 209 1062 q 192 1069 201 1069 q 171 1059 180 1069 q 162 1037 162 1049 q 172 1018 162 1026 l 363 855 q 374 852 368 852 "},"Ȓ":{"ha":852,"x_min":109,"x_max":774,"o":"m 141 0 q 162 16 157 0 q 167 52 167 32 l 167 307 l 420 307 l 692 16 q 709 4 701 7 q 725 0 718 0 q 748 22 748 0 q 736 47 748 35 l 487 309 q 587 322 536 311 q 680 355 637 332 q 748 419 722 378 q 774 521 774 459 q 741 655 774 607 q 647 724 707 703 q 506 750 587 745 q 331 755 426 755 l 134 755 q 112 753 115 755 q 109 730 109 750 l 109 52 q 115 15 109 31 q 141 0 121 0 m 167 351 l 167 711 l 331 711 q 542 701 456 711 q 672 651 628 690 q 716 521 716 611 q 675 410 716 446 q 567 362 634 374 q 421 351 500 351 l 167 351 m 332 852 q 349 861 345 852 q 353 883 353 870 q 372 943 353 914 q 439 971 391 971 q 507 943 488 971 q 526 883 526 914 q 530 861 526 870 q 547 852 534 852 q 566 862 562 852 q 570 883 570 872 q 557 939 570 910 q 517 987 545 967 q 439 1006 488 1006 q 362 987 391 1006 q 321 939 334 967 q 309 883 309 910 q 313 862 309 872 q 332 852 317 852 "},"S":{"ha":1044,"x_min":75,"x_max":968,"o":"m 562 -14 q 713 -3 640 -14 q 843 34 785 8 q 934 102 901 59 q 968 211 968 146 q 932 314 968 275 q 838 374 897 353 q 704 405 778 395 q 550 419 629 414 q 396 428 471 423 q 262 446 322 433 q 168 484 203 458 q 132 557 132 510 q 182 659 132 622 q 313 710 232 695 q 488 725 395 725 q 692 708 591 725 q 864 661 793 691 q 876 659 869 659 q 893 667 887 659 q 900 684 900 675 q 889 703 900 698 q 791 734 854 719 q 649 760 728 750 q 486 770 570 770 q 336 760 409 770 q 203 727 262 751 q 110 660 144 703 q 75 553 75 618 q 110 458 75 494 q 205 406 145 423 q 339 380 264 388 q 492 370 413 373 q 646 361 572 367 q 780 340 720 355 q 875 295 840 325 q 910 211 910 264 q 863 104 910 143 q 740 48 817 64 q 572 31 663 31 q 386 44 479 31 q 219 74 293 56 q 110 105 145 91 q 100 107 105 107 q 83 87 83 107 q 101 61 83 70 q 206 28 134 46 q 372 -1 278 11 q 562 -14 466 -14 "},"Ś":{"ha":1044,"x_min":75,"x_max":968,"o":"m 562 -14 q 713 -3 640 -14 q 843 34 785 8 q 934 102 901 59 q 968 211 968 146 q 932 314 968 275 q 838 374 897 353 q 704 405 778 395 q 550 419 629 414 q 396 428 471 423 q 262 446 322 433 q 168 484 203 458 q 132 557 132 510 q 182 659 132 622 q 313 710 232 695 q 488 725 395 725 q 692 708 591 725 q 864 661 793 691 q 876 659 869 659 q 893 667 887 659 q 900 684 900 675 q 889 703 900 698 q 791 734 854 719 q 649 760 728 750 q 486 770 570 770 q 336 760 409 770 q 203 727 262 751 q 110 660 144 703 q 75 553 75 618 q 110 458 75 494 q 205 406 145 423 q 339 380 264 388 q 492 370 413 373 q 646 361 572 367 q 780 340 720 355 q 875 295 840 325 q 910 211 910 264 q 863 104 910 143 q 740 48 817 64 q 572 31 663 31 q 386 44 479 31 q 219 74 293 56 q 110 105 145 91 q 100 107 105 107 q 83 87 83 107 q 101 61 83 70 q 206 28 134 46 q 372 -1 278 11 q 562 -14 466 -14 m 469 851 q 479 854 475 851 l 671 1017 q 681 1036 681 1025 q 670 1063 681 1051 q 644 1076 659 1076 q 627 1068 635 1076 l 456 881 q 451 869 451 876 q 469 851 451 851 "},"Š":{"ha":1044,"x_min":75,"x_max":968,"o":"m 562 -14 q 713 -3 640 -14 q 843 34 785 8 q 934 102 901 59 q 968 211 968 146 q 932 314 968 275 q 838 374 897 353 q 704 405 778 395 q 550 419 629 414 q 396 428 471 423 q 262 446 322 433 q 168 484 203 458 q 132 557 132 510 q 182 659 132 622 q 313 710 232 695 q 488 725 395 725 q 692 708 591 725 q 864 661 793 691 q 876 659 869 659 q 893 667 887 659 q 900 684 900 675 q 889 703 900 698 q 791 734 854 719 q 649 760 728 750 q 486 770 570 770 q 336 760 409 770 q 203 727 262 751 q 110 660 144 703 q 75 553 75 618 q 110 458 75 494 q 205 406 145 423 q 339 380 264 388 q 492 370 413 373 q 646 361 572 367 q 780 340 720 355 q 875 295 840 325 q 910 211 910 264 q 863 104 910 143 q 740 48 817 64 q 572 31 663 31 q 386 44 479 31 q 219 74 293 56 q 110 105 145 91 q 100 107 105 107 q 83 87 83 107 q 101 61 83 70 q 206 28 134 46 q 372 -1 278 11 q 562 -14 466 -14 m 522 852 q 558 878 541 852 l 650 1029 q 650 1050 657 1042 q 631 1058 642 1058 q 594 1030 608 1058 l 522 889 l 450 1030 q 413 1058 435 1058 q 394 1050 401 1058 q 394 1029 387 1042 l 486 878 q 522 852 503 852 "},"Ş":{"ha":1044,"x_min":75,"x_max":968,"o":"m 562 -14 q 713 -3 640 -14 q 843 34 785 8 q 934 102 901 59 q 968 211 968 146 q 932 314 968 275 q 838 374 897 353 q 704 405 778 395 q 550 419 629 414 q 396 428 471 423 q 262 446 322 433 q 168 484 203 458 q 132 557 132 510 q 182 659 132 622 q 313 710 232 695 q 488 725 395 725 q 692 708 591 725 q 864 661 793 691 q 876 659 869 659 q 893 667 887 659 q 900 684 900 675 q 889 703 900 698 q 791 734 854 719 q 649 760 728 750 q 486 770 570 770 q 336 760 409 770 q 203 727 262 751 q 110 660 144 703 q 75 553 75 618 q 110 458 75 494 q 205 406 145 423 q 339 380 264 388 q 492 370 413 373 q 646 361 572 367 q 780 340 720 355 q 875 295 840 325 q 910 211 910 264 q 863 104 910 143 q 740 48 817 64 q 572 31 663 31 q 386 44 479 31 q 219 74 293 56 q 110 105 145 91 q 100 107 105 107 q 83 87 83 107 q 101 61 83 70 q 206 28 134 46 q 372 -1 278 11 q 562 -14 466 -14 m 408 -220 q 422 -215 415 -220 q 437 -196 429 -210 l 544 -5 q 547 5 547 -1 q 534 20 547 20 q 517 7 526 20 l 388 -178 q 381 -196 381 -188 q 389 -213 381 -205 q 408 -220 396 -220 "},"Ș":{"ha":1044,"x_min":75,"x_max":968,"o":"m 562 -14 q 713 -3 640 -14 q 843 34 785 8 q 934 102 901 59 q 968 211 968 146 q 932 314 968 275 q 838 374 897 353 q 704 405 778 395 q 550 419 629 414 q 396 428 471 423 q 262 446 322 433 q 168 484 203 458 q 132 557 132 510 q 182 659 132 622 q 313 710 232 695 q 488 725 395 725 q 692 708 591 725 q 864 661 793 691 q 876 659 869 659 q 893 667 887 659 q 900 684 900 675 q 889 703 900 698 q 791 734 854 719 q 649 760 728 750 q 486 770 570 770 q 336 760 409 770 q 203 727 262 751 q 110 660 144 703 q 75 553 75 618 q 110 458 75 494 q 205 406 145 423 q 339 380 264 388 q 492 370 413 373 q 646 361 572 367 q 780 340 720 355 q 875 295 840 325 q 910 211 910 264 q 863 104 910 143 q 740 48 817 64 q 572 31 663 31 q 386 44 479 31 q 219 74 293 56 q 110 105 145 91 q 100 107 105 107 q 83 87 83 107 q 101 61 83 70 q 206 28 134 46 q 372 -1 278 11 q 562 -14 466 -14 m 478 -240 q 548 -205 522 -240 q 574 -135 574 -170 q 559 -97 574 -109 q 528 -85 544 -85 q 495 -95 509 -85 q 481 -125 481 -105 q 491 -155 481 -145 q 508 -168 501 -165 q 516 -180 516 -172 q 476 -216 516 -214 q 462 -227 462 -216 q 478 -240 462 -240 "},"ẞ":{"ha":889,"x_min":109,"x_max":781,"o":"m 136 -203 l 749 -203 q 774 -190 768 -203 q 781 -159 781 -177 l 781 866 q 777 887 781 884 q 753 891 774 891 l 140 891 q 115 878 121 891 q 109 847 109 865 l 109 -178 q 112 -200 109 -196 q 136 -203 115 -203 m 163 -158 l 163 846 l 726 846 l 726 -158 l 163 -158 "},"T":{"ha":911,"x_min":12,"x_max":899,"o":"m 457 0 q 481 15 477 0 q 486 50 486 31 l 486 711 l 850 711 q 884 712 869 711 q 899 730 899 713 q 884 753 899 750 q 850 755 869 755 l 62 755 q 29 753 45 755 q 12 730 12 750 q 28 712 12 713 q 62 711 43 711 l 428 711 l 428 50 q 434 15 428 31 q 457 0 439 0 "},"Ť":{"ha":911,"x_min":12,"x_max":899,"o":"m 457 0 q 481 15 477 0 q 486 50 486 31 l 486 711 l 850 711 q 884 712 869 711 q 899 730 899 713 q 884 753 899 750 q 850 755 869 755 l 62 755 q 29 753 45 755 q 12 730 12 750 q 28 712 12 713 q 62 711 43 711 l 428 711 l 428 50 q 434 15 428 31 q 457 0 439 0 m 456 852 q 492 878 475 852 l 583 1029 q 583 1050 591 1042 q 564 1058 576 1058 q 528 1030 542 1058 l 456 889 l 383 1030 q 347 1058 368 1058 q 328 1050 335 1058 q 328 1029 320 1042 l 420 878 q 456 852 436 852 "},"Ţ":{"ha":911,"x_min":12,"x_max":899,"o":"m 457 0 q 481 15 477 0 q 486 50 486 31 l 486 711 l 850 711 q 884 712 869 711 q 899 730 899 713 q 884 753 899 750 q 850 755 869 755 l 62 755 q 29 753 45 755 q 12 730 12 750 q 28 712 12 713 q 62 711 43 711 l 428 711 l 428 50 q 434 15 428 31 q 457 0 439 0 m 335 -220 q 350 -215 342 -220 q 365 -196 357 -210 l 471 -5 q 474 5 474 -1 q 462 20 474 20 q 444 7 453 20 l 315 -178 q 309 -196 309 -188 q 316 -213 309 -205 q 335 -220 323 -220 "},"Ț":{"ha":911,"x_min":12,"x_max":899,"o":"m 457 0 q 481 15 477 0 q 486 50 486 31 l 486 711 l 850 711 q 884 712 869 711 q 899 730 899 713 q 884 753 899 750 q 850 755 869 755 l 62 755 q 29 753 45 755 q 12 730 12 750 q 28 712 12 713 q 62 711 43 711 l 428 711 l 428 50 q 434 15 428 31 q 457 0 439 0 m 406 -240 q 476 -205 450 -240 q 502 -135 502 -170 q 487 -97 502 -109 q 456 -85 471 -85 q 422 -95 437 -85 q 408 -125 408 -105 q 418 -155 408 -145 q 435 -168 429 -165 q 444 -180 444 -172 q 404 -216 444 -214 q 389 -227 389 -216 q 406 -240 389 -240 "},"U":{"ha":1076,"x_min":96,"x_max":980,"o":"m 538 -14 q 870 77 760 -14 q 980 380 980 168 l 980 708 q 975 741 980 726 q 950 755 970 755 q 928 741 933 755 q 922 708 922 726 l 922 380 q 888 184 922 262 q 770 68 854 106 q 538 31 686 31 q 307 68 391 31 q 188 184 222 106 q 153 380 153 262 l 153 708 q 148 741 153 726 q 126 755 143 755 q 101 741 106 755 q 96 708 96 726 l 96 380 q 206 77 96 168 q 538 -14 317 -14 "},"Ú":{"ha":1076,"x_min":96,"x_max":980,"o":"m 538 -14 q 870 77 760 -14 q 980 380 980 168 l 980 708 q 975 741 980 726 q 950 755 970 755 q 928 741 933 755 q 922 708 922 726 l 922 380 q 888 184 922 262 q 770 68 854 106 q 538 31 686 31 q 307 68 391 31 q 188 184 222 106 q 153 380 153 262 l 153 708 q 148 741 153 726 q 126 755 143 755 q 101 741 106 755 q 96 708 96 726 l 96 380 q 206 77 96 168 q 538 -14 317 -14 m 485 851 q 495 854 490 851 l 686 1017 q 696 1036 696 1025 q 686 1063 696 1051 q 660 1076 675 1076 q 643 1068 650 1076 l 472 881 q 467 869 467 876 q 485 851 467 851 "},"Ŭ":{"ha":1076,"x_min":96,"x_max":980,"o":"m 538 -14 q 870 77 760 -14 q 980 380 980 168 l 980 708 q 975 741 980 726 q 950 755 970 755 q 928 741 933 755 q 922 708 922 726 l 922 380 q 888 184 922 262 q 770 68 854 106 q 538 31 686 31 q 307 68 391 31 q 188 184 222 106 q 153 380 153 262 l 153 708 q 148 741 153 726 q 126 755 143 755 q 101 741 106 755 q 96 708 96 726 l 96 380 q 206 77 96 168 q 538 -14 317 -14 m 538 852 q 615 871 587 852 q 657 920 644 891 q 670 975 670 948 q 666 997 670 987 q 645 1006 661 1006 q 627 997 631 1006 q 623 975 623 988 q 605 917 623 944 q 538 890 587 890 q 471 917 489 890 q 453 975 453 944 q 449 997 453 988 q 431 1006 445 1006 q 410 997 414 1006 q 406 975 406 987 q 418 920 406 948 q 460 871 431 891 q 538 852 490 852 "},"Û":{"ha":1076,"x_min":96,"x_max":980,"o":"m 538 -14 q 870 77 760 -14 q 980 380 980 168 l 980 708 q 975 741 980 726 q 950 755 970 755 q 928 741 933 755 q 922 708 922 726 l 922 380 q 888 184 922 262 q 770 68 854 106 q 538 31 686 31 q 307 68 391 31 q 188 184 222 106 q 153 380 153 262 l 153 708 q 148 741 153 726 q 126 755 143 755 q 101 741 106 755 q 96 708 96 726 l 96 380 q 206 77 96 168 q 538 -14 317 -14 m 429 852 q 465 880 450 852 l 538 1021 l 610 880 q 646 852 624 852 q 665 860 658 852 q 665 880 673 868 l 574 1032 q 538 1058 557 1058 q 502 1032 518 1058 l 410 880 q 410 860 402 868 q 429 852 417 852 "},"Ȕ":{"ha":1076,"x_min":96,"x_max":980,"o":"m 538 -14 q 870 77 760 -14 q 980 380 980 168 l 980 708 q 975 741 980 726 q 950 755 970 755 q 928 741 933 755 q 922 708 922 726 l 922 380 q 888 184 922 262 q 770 68 854 106 q 538 31 686 31 q 307 68 391 31 q 188 184 222 106 q 153 380 153 262 l 153 708 q 148 741 153 726 q 126 755 143 755 q 101 741 106 755 q 96 708 96 726 l 96 380 q 206 77 96 168 q 538 -14 317 -14 m 627 852 q 645 869 645 852 q 640 882 645 876 l 462 1062 q 445 1069 454 1069 q 424 1059 433 1069 q 415 1037 415 1049 q 425 1018 415 1026 l 616 855 q 627 852 621 852 m 472 852 q 490 869 490 852 q 485 882 490 876 l 307 1062 q 290 1069 300 1069 q 269 1059 278 1069 q 260 1037 260 1049 q 271 1018 260 1026 l 462 855 q 472 852 467 852 "},"Ü":{"ha":1076,"x_min":96,"x_max":980,"o":"m 538 -14 q 870 77 760 -14 q 980 380 980 168 l 980 708 q 975 741 980 726 q 950 755 970 755 q 928 741 933 755 q 922 708 922 726 l 922 380 q 888 184 922 262 q 770 68 854 106 q 538 31 686 31 q 307 68 391 31 q 188 184 222 106 q 153 380 153 262 l 153 708 q 148 741 153 726 q 126 755 143 755 q 101 741 106 755 q 96 708 96 726 l 96 380 q 206 77 96 168 q 538 -14 317 -14 m 672 873 q 701 884 689 873 q 713 911 713 895 q 701 940 713 929 q 672 951 689 951 q 644 940 654 951 q 633 911 633 929 q 644 884 633 895 q 672 873 654 873 m 401 873 q 430 884 418 873 q 442 911 442 895 q 430 940 442 929 q 401 951 418 951 q 373 940 384 951 q 362 911 362 929 q 373 884 362 895 q 401 873 384 873 "},"Ù":{"ha":1076,"x_min":96,"x_max":980,"o":"m 538 -14 q 870 77 760 -14 q 980 380 980 168 l 980 708 q 975 741 980 726 q 950 755 970 755 q 928 741 933 755 q 922 708 922 726 l 922 380 q 888 184 922 262 q 770 68 854 106 q 538 31 686 31 q 307 68 391 31 q 188 184 222 106 q 153 380 153 262 l 153 708 q 148 741 153 726 q 126 755 143 755 q 101 741 106 755 q 96 708 96 726 l 96 380 q 206 77 96 168 q 538 -14 317 -14 m 591 852 q 609 870 609 852 q 604 882 609 877 l 433 1069 q 416 1077 425 1077 q 390 1065 401 1077 q 379 1038 379 1053 q 389 1019 379 1027 l 581 856 q 591 852 585 852 "},"Ű":{"ha":1076,"x_min":96,"x_max":980,"o":"m 538 -14 q 870 77 760 -14 q 980 380 980 168 l 980 708 q 975 741 980 726 q 950 755 970 755 q 928 741 933 755 q 922 708 922 726 l 922 380 q 888 184 922 262 q 770 68 854 106 q 538 31 686 31 q 307 68 391 31 q 188 184 222 106 q 153 380 153 262 l 153 708 q 148 741 153 726 q 126 755 143 755 q 101 741 106 755 q 96 708 96 726 l 96 380 q 206 77 96 168 q 538 -14 317 -14 m 610 850 q 620 854 615 850 l 818 1015 q 828 1034 828 1023 q 817 1057 828 1046 q 793 1068 805 1068 q 776 1061 783 1068 l 597 880 q 591 868 591 875 q 610 850 591 850 m 455 850 q 465 854 460 850 l 663 1015 q 673 1034 673 1023 q 662 1057 673 1046 q 638 1068 650 1068 q 621 1061 629 1068 l 442 880 q 437 868 437 875 q 455 850 437 850 "},"Ȗ":{"ha":1076,"x_min":96,"x_max":980,"o":"m 538 -14 q 870 77 760 -14 q 980 380 980 168 l 980 708 q 975 741 980 726 q 950 755 970 755 q 928 741 933 755 q 922 708 922 726 l 922 380 q 888 184 922 262 q 770 68 854 106 q 538 31 686 31 q 307 68 391 31 q 188 184 222 106 q 153 380 153 262 l 153 708 q 148 741 153 726 q 126 755 143 755 q 101 741 106 755 q 96 708 96 726 l 96 380 q 206 77 96 168 q 538 -14 317 -14 m 431 852 q 447 861 444 852 q 451 883 451 870 q 470 943 451 914 q 538 971 489 971 q 606 943 587 971 q 625 883 625 914 q 628 861 625 870 q 645 852 632 852 q 664 862 660 852 q 668 883 668 872 q 656 939 668 910 q 615 987 644 967 q 538 1006 587 1006 q 461 987 490 1006 q 420 939 432 967 q 408 883 408 910 q 412 862 408 872 q 431 852 416 852 "},"Ū":{"ha":1076,"x_min":96,"x_max":980,"o":"m 538 -14 q 870 77 760 -14 q 980 380 980 168 l 980 708 q 975 741 980 726 q 950 755 970 755 q 928 741 933 755 q 922 708 922 726 l 922 380 q 888 184 922 262 q 770 68 854 106 q 538 31 686 31 q 307 68 391 31 q 188 184 222 106 q 153 380 153 262 l 153 708 q 148 741 153 726 q 126 755 143 755 q 101 741 106 755 q 96 708 96 726 l 96 380 q 206 77 96 168 q 538 -14 317 -14 m 422 863 l 654 863 q 671 871 666 863 q 675 884 675 879 q 671 899 675 890 q 654 907 666 907 l 422 907 q 405 899 410 907 q 400 884 400 890 q 405 871 400 879 q 422 863 410 863 "},"Ų":{"ha":1076,"x_min":96,"x_max":980,"o":"m 538 -14 q 870 77 760 -14 q 980 380 980 168 l 980 708 q 975 741 980 726 q 950 755 970 755 q 928 741 933 755 q 922 708 922 726 l 922 380 q 888 184 922 262 q 770 68 854 106 q 538 31 686 31 q 307 68 391 31 q 188 184 222 106 q 153 380 153 262 l 153 708 q 148 741 153 726 q 126 755 143 755 q 101 741 106 755 q 96 708 96 726 l 96 380 q 206 77 96 168 q 538 -14 317 -14 m 505 -200 q 555 -186 531 -200 q 591 -148 579 -172 l 584 -142 q 562 -155 575 -147 q 536 -162 549 -162 q 513 -152 525 -162 q 501 -113 501 -141 q 513 -63 501 -92 q 549 -7 525 -35 l 528 -7 q 466 -70 490 -38 q 441 -134 441 -102 q 461 -185 441 -170 q 505 -200 482 -200 "},"Ů":{"ha":1076,"x_min":96,"x_max":980,"o":"m 538 -14 q 870 77 760 -14 q 980 380 980 168 l 980 708 q 975 741 980 726 q 950 755 970 755 q 928 741 933 755 q 922 708 922 726 l 922 380 q 888 184 922 262 q 770 68 854 106 q 538 31 686 31 q 307 68 391 31 q 188 184 222 106 q 153 380 153 262 l 153 708 q 148 741 153 726 q 126 755 143 755 q 101 741 106 755 q 96 708 96 726 l 96 380 q 206 77 96 168 q 538 -14 317 -14 m 538 852 q 594 874 570 852 q 617 928 617 896 q 594 983 617 961 q 538 1005 570 1005 q 481 983 504 1005 q 458 928 458 961 q 482 874 458 896 q 538 852 506 852 m 538 886 q 509 899 521 886 q 496 928 496 911 q 509 958 496 947 q 538 970 521 970 q 568 958 555 970 q 580 928 580 947 q 568 899 580 911 q 538 886 555 886 "},"Ũ":{"ha":1076,"x_min":96,"x_max":980,"o":"m 538 -14 q 870 77 760 -14 q 980 380 980 168 l 980 708 q 975 741 980 726 q 950 755 970 755 q 928 741 933 755 q 922 708 922 726 l 922 380 q 888 184 922 262 q 770 68 854 106 q 538 31 686 31 q 307 68 391 31 q 188 184 222 106 q 153 380 153 262 l 153 708 q 148 741 153 726 q 126 755 143 755 q 101 741 106 755 q 96 708 96 726 l 96 380 q 206 77 96 168 q 538 -14 317 -14 m 404 852 q 420 861 416 852 q 424 882 424 870 q 431 907 424 901 q 448 912 438 912 q 498 897 466 912 q 566 867 531 882 q 627 852 602 852 q 679 871 664 852 q 694 920 694 891 q 690 942 694 932 q 671 951 686 951 q 655 942 659 951 q 651 921 651 933 q 644 897 651 902 q 627 891 637 891 q 572 906 599 891 q 515 937 545 922 q 448 951 486 951 q 396 932 411 951 q 381 883 381 912 q 385 862 381 872 q 404 852 389 852 "},"V":{"ha":968,"x_min":39,"x_max":928,"o":"m 484 0 q 519 24 505 0 l 914 698 q 924 715 920 707 q 928 731 928 724 q 923 747 928 739 q 905 755 918 755 q 887 744 895 753 q 871 722 879 734 l 484 61 l 96 722 q 81 744 89 734 q 62 755 73 753 q 45 746 50 755 q 39 732 39 738 q 43 716 39 724 q 52 698 47 707 l 449 24 q 484 0 463 0 "},"W":{"ha":1215,"x_min":68,"x_max":1146,"o":"m 349 0 q 369 10 361 0 q 382 36 376 20 l 607 665 l 833 36 q 845 10 839 20 q 865 0 852 0 q 885 10 879 0 q 899 36 891 20 l 1138 700 q 1144 718 1141 709 q 1146 733 1146 726 q 1141 748 1146 741 q 1122 755 1136 755 q 1104 744 1111 755 q 1092 718 1097 732 l 865 85 l 640 718 q 628 745 634 735 q 606 755 621 755 q 587 744 593 755 q 575 718 581 732 l 349 85 l 124 718 q 113 744 119 732 q 93 755 106 755 q 74 748 79 755 q 68 733 68 741 q 72 718 68 726 q 78 700 75 709 l 317 36 q 329 10 322 20 q 349 0 335 0 "},"Ẃ":{"ha":1215,"x_min":68,"x_max":1146,"o":"m 349 0 q 369 10 361 0 q 382 36 376 20 l 607 665 l 833 36 q 845 10 839 20 q 865 0 852 0 q 885 10 879 0 q 899 36 891 20 l 1138 700 q 1144 718 1141 709 q 1146 733 1146 726 q 1141 748 1146 741 q 1122 755 1136 755 q 1104 744 1111 755 q 1092 718 1097 732 l 865 85 l 640 718 q 628 745 634 735 q 606 755 621 755 q 587 744 593 755 q 575 718 581 732 l 349 85 l 124 718 q 113 744 119 732 q 93 755 106 755 q 74 748 79 755 q 68 733 68 741 q 72 718 68 726 q 78 700 75 709 l 317 36 q 329 10 322 20 q 349 0 335 0 m 555 851 q 565 854 560 851 l 756 1017 q 766 1036 766 1025 q 755 1063 766 1051 q 730 1076 745 1076 q 713 1068 720 1076 l 542 881 q 536 869 536 876 q 555 851 536 851 "},"Ŵ":{"ha":1215,"x_min":68,"x_max":1146,"o":"m 349 0 q 369 10 361 0 q 382 36 376 20 l 607 665 l 833 36 q 845 10 839 20 q 865 0 852 0 q 885 10 879 0 q 899 36 891 20 l 1138 700 q 1144 718 1141 709 q 1146 733 1146 726 q 1141 748 1146 741 q 1122 755 1136 755 q 1104 744 1111 755 q 1092 718 1097 732 l 865 85 l 640 718 q 628 745 634 735 q 606 755 621 755 q 587 744 593 755 q 575 718 581 732 l 349 85 l 124 718 q 113 744 119 732 q 93 755 106 755 q 74 748 79 755 q 68 733 68 741 q 72 718 68 726 q 78 700 75 709 l 317 36 q 329 10 322 20 q 349 0 335 0 m 498 852 q 535 880 520 852 l 608 1021 l 680 880 q 716 852 694 852 q 735 860 728 852 q 735 880 743 868 l 644 1032 q 608 1058 627 1058 q 572 1032 588 1058 l 479 880 q 479 860 472 868 q 498 852 487 852 "},"Ẅ":{"ha":1215,"x_min":68,"x_max":1146,"o":"m 349 0 q 369 10 361 0 q 382 36 376 20 l 607 665 l 833 36 q 845 10 839 20 q 865 0 852 0 q 885 10 879 0 q 899 36 891 20 l 1138 700 q 1144 718 1141 709 q 1146 733 1146 726 q 1141 748 1146 741 q 1122 755 1136 755 q 1104 744 1111 755 q 1092 718 1097 732 l 865 85 l 640 718 q 628 745 634 735 q 606 755 621 755 q 587 744 593 755 q 575 718 581 732 l 349 85 l 124 718 q 113 744 119 732 q 93 755 106 755 q 74 748 79 755 q 68 733 68 741 q 72 718 68 726 q 78 700 75 709 l 317 36 q 329 10 322 20 q 349 0 335 0 m 742 873 q 771 884 759 873 q 783 911 783 895 q 771 940 783 929 q 742 951 759 951 q 713 940 724 951 q 703 911 703 929 q 713 884 703 895 q 742 873 724 873 m 471 873 q 500 884 488 873 q 512 911 512 895 q 500 940 512 929 q 471 951 488 951 q 443 940 454 951 q 432 911 432 929 q 443 884 432 895 q 471 873 454 873 "},"Ẁ":{"ha":1215,"x_min":68,"x_max":1146,"o":"m 349 0 q 369 10 361 0 q 382 36 376 20 l 607 665 l 833 36 q 845 10 839 20 q 865 0 852 0 q 885 10 879 0 q 899 36 891 20 l 1138 700 q 1144 718 1141 709 q 1146 733 1146 726 q 1141 748 1146 741 q 1122 755 1136 755 q 1104 744 1111 755 q 1092 718 1097 732 l 865 85 l 640 718 q 628 745 634 735 q 606 755 621 755 q 587 744 593 755 q 575 718 581 732 l 349 85 l 124 718 q 113 744 119 732 q 93 755 106 755 q 74 748 79 755 q 68 733 68 741 q 72 718 68 726 q 78 700 75 709 l 317 36 q 329 10 322 20 q 349 0 335 0 m 661 852 q 679 870 679 852 q 673 882 679 877 l 503 1069 q 486 1077 495 1077 q 460 1065 471 1077 q 449 1038 449 1053 q 459 1019 449 1027 l 650 856 q 661 852 655 852 "},"X":{"ha":973,"x_min":90,"x_max":882,"o":"m 109 0 q 141 16 125 0 l 486 338 l 831 16 q 863 0 848 0 q 882 19 882 0 q 865 51 882 35 l 522 371 l 859 707 q 871 732 871 718 q 850 755 871 755 q 823 741 836 755 l 486 404 l 150 741 q 123 755 136 755 q 101 732 101 755 q 113 707 101 719 l 451 371 l 107 50 q 90 18 90 34 q 109 0 90 0 "},"Y":{"ha":790,"x_min":34,"x_max":756,"o":"m 397 0 q 419 14 414 0 q 425 47 425 27 l 425 319 l 745 705 q 756 730 756 719 q 734 755 756 755 q 705 739 719 755 l 395 363 l 85 739 q 56 755 71 755 q 34 732 34 755 q 45 705 34 719 l 367 321 l 367 45 q 372 14 367 28 q 397 0 378 0 "},"Ý":{"ha":790,"x_min":34,"x_max":756,"o":"m 397 0 q 419 14 414 0 q 425 47 425 27 l 425 319 l 745 705 q 756 730 756 719 q 734 755 756 755 q 705 739 719 755 l 395 363 l 85 739 q 56 755 71 755 q 34 732 34 755 q 45 705 34 719 l 367 321 l 367 45 q 372 14 367 28 q 397 0 378 0 m 342 851 q 353 854 348 851 l 544 1017 q 554 1036 554 1025 q 543 1063 554 1051 q 517 1076 532 1076 q 500 1068 508 1076 l 330 881 q 324 869 324 876 q 342 851 324 851 "},"Ŷ":{"ha":790,"x_min":34,"x_max":756,"o":"m 397 0 q 419 14 414 0 q 425 47 425 27 l 425 319 l 745 705 q 756 730 756 719 q 734 755 756 755 q 705 739 719 755 l 395 363 l 85 739 q 56 755 71 755 q 34 732 34 755 q 45 705 34 719 l 367 321 l 367 45 q 372 14 367 28 q 397 0 378 0 m 286 852 q 323 880 308 852 l 395 1021 l 467 880 q 504 852 481 852 q 523 860 515 852 q 523 880 530 868 l 431 1032 q 395 1058 415 1058 q 359 1032 376 1058 l 267 880 q 267 860 260 868 q 286 852 275 852 "},"Ÿ":{"ha":790,"x_min":34,"x_max":756,"o":"m 397 0 q 419 14 414 0 q 425 47 425 27 l 425 319 l 745 705 q 756 730 756 719 q 734 755 756 755 q 705 739 719 755 l 395 363 l 85 739 q 56 755 71 755 q 34 732 34 755 q 45 705 34 719 l 367 321 l 367 45 q 372 14 367 28 q 397 0 378 0 m 530 873 q 558 884 547 873 q 570 911 570 895 q 558 940 570 929 q 530 951 547 951 q 501 940 512 951 q 490 911 490 929 q 501 884 490 895 q 530 873 512 873 m 259 873 q 288 884 276 873 q 300 911 300 895 q 288 940 300 929 q 259 951 276 951 q 231 940 241 951 q 220 911 220 929 q 231 884 220 895 q 259 873 241 873 "},"Ỳ":{"ha":790,"x_min":34,"x_max":756,"o":"m 397 0 q 419 14 414 0 q 425 47 425 27 l 425 319 l 745 705 q 756 730 756 719 q 734 755 756 755 q 705 739 719 755 l 395 363 l 85 739 q 56 755 71 755 q 34 732 34 755 q 45 705 34 719 l 367 321 l 367 45 q 372 14 367 28 q 397 0 378 0 m 448 852 q 467 870 467 852 q 461 882 467 877 l 290 1069 q 273 1077 283 1077 q 248 1065 258 1077 q 237 1038 237 1053 q 247 1019 237 1027 l 438 856 q 448 852 443 852 "},"Z":{"ha":905,"x_min":32,"x_max":875,"o":"m 81 0 l 822 0 q 846 7 838 0 q 854 22 854 14 q 846 38 854 31 q 822 45 838 45 l 117 45 l 852 696 q 867 713 860 704 q 875 732 875 722 q 859 752 875 749 q 819 755 843 755 l 81 755 q 58 748 66 755 q 51 733 51 741 q 58 718 51 724 q 81 711 66 711 l 789 711 l 54 60 q 37 43 43 50 q 32 24 32 35 q 44 3 32 6 q 81 0 56 0 "},"Ź":{"ha":905,"x_min":32,"x_max":875,"o":"m 81 0 l 822 0 q 846 7 838 0 q 854 22 854 14 q 846 38 854 31 q 822 45 838 45 l 117 45 l 852 696 q 867 713 860 704 q 875 732 875 722 q 859 752 875 749 q 819 755 843 755 l 81 755 q 58 748 66 755 q 51 733 51 741 q 58 718 51 724 q 81 711 66 711 l 789 711 l 54 60 q 37 43 43 50 q 32 24 32 35 q 44 3 32 6 q 81 0 56 0 m 400 851 q 410 854 406 851 l 602 1017 q 612 1036 612 1025 q 601 1063 612 1051 q 575 1076 590 1076 q 558 1068 566 1076 l 387 881 q 382 869 382 876 q 400 851 382 851 "},"Ž":{"ha":905,"x_min":32,"x_max":875,"o":"m 81 0 l 822 0 q 846 7 838 0 q 854 22 854 14 q 846 38 854 31 q 822 45 838 45 l 117 45 l 852 696 q 867 713 860 704 q 875 732 875 722 q 859 752 875 749 q 819 755 843 755 l 81 755 q 58 748 66 755 q 51 733 51 741 q 58 718 51 724 q 81 711 66 711 l 789 711 l 54 60 q 37 43 43 50 q 32 24 32 35 q 44 3 32 6 q 81 0 56 0 m 453 852 q 489 878 472 852 l 581 1029 q 581 1050 588 1042 q 562 1058 573 1058 q 525 1030 539 1058 l 453 889 l 380 1030 q 344 1058 366 1058 q 325 1050 332 1058 q 325 1029 317 1042 l 417 878 q 453 852 433 852 "},"Ż":{"ha":905,"x_min":32,"x_max":875,"o":"m 81 0 l 822 0 q 846 7 838 0 q 854 22 854 14 q 846 38 854 31 q 822 45 838 45 l 117 45 l 852 696 q 867 713 860 704 q 875 732 875 722 q 859 752 875 749 q 819 755 843 755 l 81 755 q 58 748 66 755 q 51 733 51 741 q 58 718 51 724 q 81 711 66 711 l 789 711 l 54 60 q 37 43 43 50 q 32 24 32 35 q 44 3 32 6 q 81 0 56 0 m 452 873 q 481 884 469 873 q 493 911 493 895 q 481 940 493 929 q 452 951 469 951 q 424 940 435 951 q 413 911 413 929 q 424 884 413 895 q 452 873 435 873 "},"a":{"ha":808,"x_min":91,"x_max":708,"o":"m 340 -7 q 496 8 435 -7 q 596 46 558 24 q 653 88 633 68 l 653 50 q 659 14 653 28 q 680 0 665 0 q 704 16 699 0 q 708 47 708 32 l 708 263 q 670 435 708 377 q 567 513 633 493 q 418 533 501 533 q 213 517 279 533 q 135 496 146 501 q 127 483 127 492 q 134 466 127 474 q 149 457 140 457 q 154 458 150 457 q 239 481 186 469 q 398 494 292 494 q 533 479 475 494 q 622 420 590 465 q 653 286 653 376 q 529 314 610 304 q 361 323 448 323 q 224 308 285 323 q 127 256 163 293 q 91 152 91 218 q 124 60 91 95 q 215 9 158 25 q 340 -7 271 -7 m 335 33 q 199 60 252 33 q 145 152 145 87 q 203 256 145 229 q 366 283 262 283 q 513 275 439 283 q 653 257 587 267 l 653 121 q 544 63 619 93 q 335 33 469 33 "},"á":{"ha":808,"x_min":91,"x_max":708,"o":"m 340 -7 q 496 8 435 -7 q 596 46 558 24 q 653 88 633 68 l 653 50 q 659 14 653 28 q 680 0 665 0 q 704 16 699 0 q 708 47 708 32 l 708 263 q 670 435 708 377 q 567 513 633 493 q 418 533 501 533 q 213 517 279 533 q 135 496 146 501 q 127 483 127 492 q 134 466 127 474 q 149 457 140 457 q 154 458 150 457 q 239 481 186 469 q 398 494 292 494 q 533 479 475 494 q 622 420 590 465 q 653 286 653 376 q 529 314 610 304 q 361 323 448 323 q 224 308 285 323 q 127 256 163 293 q 91 152 91 218 q 124 60 91 95 q 215 9 158 25 q 340 -7 271 -7 m 335 33 q 199 60 252 33 q 145 152 145 87 q 203 256 145 229 q 366 283 262 283 q 513 275 439 283 q 653 257 587 267 l 653 121 q 544 63 619 93 q 335 33 469 33 m 351 615 q 361 618 357 615 l 553 781 q 563 800 563 789 q 552 827 563 815 q 526 840 541 840 q 509 832 517 840 l 338 645 q 333 633 333 640 q 351 615 333 615 "},"ă":{"ha":808,"x_min":91,"x_max":708,"o":"m 340 -7 q 496 8 435 -7 q 596 46 558 24 q 653 88 633 68 l 653 50 q 659 14 653 28 q 680 0 665 0 q 704 16 699 0 q 708 47 708 32 l 708 263 q 670 435 708 377 q 567 513 633 493 q 418 533 501 533 q 213 517 279 533 q 135 496 146 501 q 127 483 127 492 q 134 466 127 474 q 149 457 140 457 q 154 458 150 457 q 239 481 186 469 q 398 494 292 494 q 533 479 475 494 q 622 420 590 465 q 653 286 653 376 q 529 314 610 304 q 361 323 448 323 q 224 308 285 323 q 127 256 163 293 q 91 152 91 218 q 124 60 91 95 q 215 9 158 25 q 340 -7 271 -7 m 335 33 q 199 60 252 33 q 145 152 145 87 q 203 256 145 229 q 366 283 262 283 q 513 275 439 283 q 653 257 587 267 l 653 121 q 544 63 619 93 q 335 33 469 33 m 404 616 q 482 635 453 616 q 524 684 511 655 q 536 739 536 712 q 532 761 536 751 q 511 770 528 770 q 493 761 497 770 q 489 739 489 752 q 471 681 489 708 q 404 654 453 654 q 337 681 355 654 q 319 739 319 708 q 315 761 319 752 q 297 770 311 770 q 276 761 281 770 q 272 739 272 751 q 285 684 272 712 q 327 635 298 655 q 404 616 356 616 "},"â":{"ha":808,"x_min":91,"x_max":708,"o":"m 340 -7 q 496 8 435 -7 q 596 46 558 24 q 653 88 633 68 l 653 50 q 659 14 653 28 q 680 0 665 0 q 704 16 699 0 q 708 47 708 32 l 708 263 q 670 435 708 377 q 567 513 633 493 q 418 533 501 533 q 213 517 279 533 q 135 496 146 501 q 127 483 127 492 q 134 466 127 474 q 149 457 140 457 q 154 458 150 457 q 239 481 186 469 q 398 494 292 494 q 533 479 475 494 q 622 420 590 465 q 653 286 653 376 q 529 314 610 304 q 361 323 448 323 q 224 308 285 323 q 127 256 163 293 q 91 152 91 218 q 124 60 91 95 q 215 9 158 25 q 340 -7 271 -7 m 335 33 q 199 60 252 33 q 145 152 145 87 q 203 256 145 229 q 366 283 262 283 q 513 275 439 283 q 653 257 587 267 l 653 121 q 544 63 619 93 q 335 33 469 33 m 295 616 q 332 644 317 616 l 404 785 l 476 644 q 513 616 490 616 q 532 624 524 616 q 532 644 539 632 l 440 796 q 404 822 424 822 q 368 796 385 822 l 276 644 q 276 624 269 632 q 295 616 283 616 "},"ȁ":{"ha":808,"x_min":91,"x_max":708,"o":"m 340 -7 q 496 8 435 -7 q 596 46 558 24 q 653 88 633 68 l 653 50 q 659 14 653 28 q 680 0 665 0 q 704 16 699 0 q 708 47 708 32 l 708 263 q 670 435 708 377 q 567 513 633 493 q 418 533 501 533 q 213 517 279 533 q 135 496 146 501 q 127 483 127 492 q 134 466 127 474 q 149 457 140 457 q 154 458 150 457 q 239 481 186 469 q 398 494 292 494 q 533 479 475 494 q 622 420 590 465 q 653 286 653 376 q 529 314 610 304 q 361 323 448 323 q 224 308 285 323 q 127 256 163 293 q 91 152 91 218 q 124 60 91 95 q 215 9 158 25 q 340 -7 271 -7 m 335 33 q 199 60 252 33 q 145 152 145 87 q 203 256 145 229 q 366 283 262 283 q 513 275 439 283 q 653 257 587 267 l 653 121 q 544 63 619 93 q 335 33 469 33 m 493 616 q 511 633 511 616 q 506 646 511 640 l 328 826 q 311 833 321 833 q 290 823 299 833 q 281 801 281 813 q 292 782 281 790 l 483 619 q 493 616 488 616 m 338 616 q 357 633 357 616 q 351 646 357 640 l 174 826 q 157 833 166 833 q 136 823 144 833 q 127 801 127 813 q 137 782 127 790 l 328 619 q 338 616 333 616 "},"ä":{"ha":808,"x_min":91,"x_max":708,"o":"m 340 -7 q 496 8 435 -7 q 596 46 558 24 q 653 88 633 68 l 653 50 q 659 14 653 28 q 680 0 665 0 q 704 16 699 0 q 708 47 708 32 l 708 263 q 670 435 708 377 q 567 513 633 493 q 418 533 501 533 q 213 517 279 533 q 135 496 146 501 q 127 483 127 492 q 134 466 127 474 q 149 457 140 457 q 154 458 150 457 q 239 481 186 469 q 398 494 292 494 q 533 479 475 494 q 622 420 590 465 q 653 286 653 376 q 529 314 610 304 q 361 323 448 323 q 224 308 285 323 q 127 256 163 293 q 91 152 91 218 q 124 60 91 95 q 215 9 158 25 q 340 -7 271 -7 m 335 33 q 199 60 252 33 q 145 152 145 87 q 203 256 145 229 q 366 283 262 283 q 513 275 439 283 q 653 257 587 267 l 653 121 q 544 63 619 93 q 335 33 469 33 m 538 637 q 567 648 555 637 q 579 675 579 659 q 567 704 579 693 q 538 715 555 715 q 510 704 521 715 q 499 675 499 693 q 510 648 499 659 q 538 637 521 637 m 268 637 q 297 648 285 637 q 309 675 309 659 q 297 704 309 693 q 268 715 285 715 q 239 704 250 715 q 229 675 229 693 q 239 648 229 659 q 268 637 250 637 "},"à":{"ha":808,"x_min":91,"x_max":708,"o":"m 340 -7 q 496 8 435 -7 q 596 46 558 24 q 653 88 633 68 l 653 50 q 659 14 653 28 q 680 0 665 0 q 704 16 699 0 q 708 47 708 32 l 708 263 q 670 435 708 377 q 567 513 633 493 q 418 533 501 533 q 213 517 279 533 q 135 496 146 501 q 127 483 127 492 q 134 466 127 474 q 149 457 140 457 q 154 458 150 457 q 239 481 186 469 q 398 494 292 494 q 533 479 475 494 q 622 420 590 465 q 653 286 653 376 q 529 314 610 304 q 361 323 448 323 q 224 308 285 323 q 127 256 163 293 q 91 152 91 218 q 124 60 91 95 q 215 9 158 25 q 340 -7 271 -7 m 335 33 q 199 60 252 33 q 145 152 145 87 q 203 256 145 229 q 366 283 262 283 q 513 275 439 283 q 653 257 587 267 l 653 121 q 544 63 619 93 q 335 33 469 33 m 457 616 q 475 634 475 616 q 470 646 475 641 l 299 833 q 282 841 292 841 q 256 829 267 841 q 245 802 245 817 q 256 783 245 791 l 447 620 q 457 616 452 616 "},"ȃ":{"ha":808,"x_min":91,"x_max":708,"o":"m 340 -7 q 496 8 435 -7 q 596 46 558 24 q 653 88 633 68 l 653 50 q 659 14 653 28 q 680 0 665 0 q 704 16 699 0 q 708 47 708 32 l 708 263 q 670 435 708 377 q 567 513 633 493 q 418 533 501 533 q 213 517 279 533 q 135 496 146 501 q 127 483 127 492 q 134 466 127 474 q 149 457 140 457 q 154 458 150 457 q 239 481 186 469 q 398 494 292 494 q 533 479 475 494 q 622 420 590 465 q 653 286 653 376 q 529 314 610 304 q 361 323 448 323 q 224 308 285 323 q 127 256 163 293 q 91 152 91 218 q 124 60 91 95 q 215 9 158 25 q 340 -7 271 -7 m 335 33 q 199 60 252 33 q 145 152 145 87 q 203 256 145 229 q 366 283 262 283 q 513 275 439 283 q 653 257 587 267 l 653 121 q 544 63 619 93 q 335 33 469 33 m 297 616 q 314 625 310 616 q 317 647 317 634 q 336 707 317 678 q 404 735 355 735 q 472 707 453 735 q 491 647 491 678 q 495 625 491 634 q 511 616 498 616 q 530 626 526 616 q 534 647 534 636 q 522 703 534 674 q 481 751 510 731 q 404 770 453 770 q 327 751 356 770 q 286 703 298 731 q 274 647 274 674 q 278 626 274 636 q 297 616 282 616 "},"ā":{"ha":808,"x_min":91,"x_max":708,"o":"m 340 -7 q 496 8 435 -7 q 596 46 558 24 q 653 88 633 68 l 653 50 q 659 14 653 28 q 680 0 665 0 q 704 16 699 0 q 708 47 708 32 l 708 263 q 670 435 708 377 q 567 513 633 493 q 418 533 501 533 q 213 517 279 533 q 135 496 146 501 q 127 483 127 492 q 134 466 127 474 q 149 457 140 457 q 154 458 150 457 q 239 481 186 469 q 398 494 292 494 q 533 479 475 494 q 622 420 590 465 q 653 286 653 376 q 529 314 610 304 q 361 323 448 323 q 224 308 285 323 q 127 256 163 293 q 91 152 91 218 q 124 60 91 95 q 215 9 158 25 q 340 -7 271 -7 m 335 33 q 199 60 252 33 q 145 152 145 87 q 203 256 145 229 q 366 283 262 283 q 513 275 439 283 q 653 257 587 267 l 653 121 q 544 63 619 93 q 335 33 469 33 m 288 627 l 520 627 q 537 635 532 627 q 542 648 542 643 q 537 663 542 654 q 520 671 532 671 l 288 671 q 271 663 276 671 q 267 648 267 654 q 271 635 267 643 q 288 627 276 627 "},"ą":{"ha":808,"x_min":91,"x_max":727,"o":"m 340 -7 q 496 8 435 -7 q 596 46 558 24 q 653 88 633 68 l 653 50 q 659 14 653 28 q 680 0 665 0 q 704 16 699 0 q 708 47 708 32 l 708 263 q 670 435 708 377 q 567 513 633 493 q 418 533 501 533 q 213 517 279 533 q 135 496 146 501 q 127 483 127 492 q 134 466 127 474 q 149 457 140 457 q 154 458 150 457 q 239 481 186 469 q 398 494 292 494 q 533 479 475 494 q 622 420 590 465 q 653 286 653 376 q 529 314 610 304 q 361 323 448 323 q 224 308 285 323 q 127 256 163 293 q 91 152 91 218 q 124 60 91 95 q 215 9 158 25 q 340 -7 271 -7 m 335 33 q 199 60 252 33 q 145 152 145 87 q 203 256 145 229 q 366 283 262 283 q 513 275 439 283 q 653 257 587 267 l 653 121 q 544 63 619 93 q 335 33 469 33 m 642 -186 q 691 -172 667 -186 q 727 -134 715 -158 l 720 -128 q 699 -141 711 -134 q 672 -149 686 -149 q 649 -138 661 -149 q 637 -100 637 -127 q 649 -50 637 -78 q 685 7 661 -21 l 665 7 q 602 -56 627 -24 q 577 -121 577 -88 q 598 -171 577 -156 q 642 -186 618 -186 "},"å":{"ha":808,"x_min":91,"x_max":708,"o":"m 340 -7 q 496 8 435 -7 q 596 46 558 24 q 653 88 633 68 l 653 50 q 659 14 653 28 q 680 0 665 0 q 704 16 699 0 q 708 47 708 32 l 708 263 q 670 435 708 377 q 567 513 633 493 q 418 533 501 533 q 213 517 279 533 q 135 496 146 501 q 127 483 127 492 q 134 466 127 474 q 149 457 140 457 q 154 458 150 457 q 239 481 186 469 q 398 494 292 494 q 533 479 475 494 q 622 420 590 465 q 653 286 653 376 q 529 314 610 304 q 361 323 448 323 q 224 308 285 323 q 127 256 163 293 q 91 152 91 218 q 124 60 91 95 q 215 9 158 25 q 340 -7 271 -7 m 335 33 q 199 60 252 33 q 145 152 145 87 q 203 256 145 229 q 366 283 262 283 q 513 275 439 283 q 653 257 587 267 l 653 121 q 544 63 619 93 q 335 33 469 33 m 404 616 q 460 638 437 616 q 484 692 484 660 q 460 747 484 725 q 404 769 437 769 q 347 747 370 769 q 324 692 324 725 q 348 638 324 660 q 404 616 372 616 m 404 650 q 375 663 387 650 q 363 692 363 675 q 375 722 363 711 q 404 734 387 734 q 434 722 422 734 q 446 692 446 711 q 434 663 446 675 q 404 650 422 650 "},"ã":{"ha":808,"x_min":91,"x_max":708,"o":"m 340 -7 q 496 8 435 -7 q 596 46 558 24 q 653 88 633 68 l 653 50 q 659 14 653 28 q 680 0 665 0 q 704 16 699 0 q 708 47 708 32 l 708 263 q 670 435 708 377 q 567 513 633 493 q 418 533 501 533 q 213 517 279 533 q 135 496 146 501 q 127 483 127 492 q 134 466 127 474 q 149 457 140 457 q 154 458 150 457 q 239 481 186 469 q 398 494 292 494 q 533 479 475 494 q 622 420 590 465 q 653 286 653 376 q 529 314 610 304 q 361 323 448 323 q 224 308 285 323 q 127 256 163 293 q 91 152 91 218 q 124 60 91 95 q 215 9 158 25 q 340 -7 271 -7 m 335 33 q 199 60 252 33 q 145 152 145 87 q 203 256 145 229 q 366 283 262 283 q 513 275 439 283 q 653 257 587 267 l 653 121 q 544 63 619 93 q 335 33 469 33 m 271 616 q 286 625 282 616 q 290 646 290 634 q 297 671 290 665 q 315 676 304 676 q 365 661 332 676 q 433 631 397 646 q 493 616 468 616 q 545 635 530 616 q 560 684 560 655 q 556 706 560 696 q 537 715 552 715 q 522 706 526 715 q 517 685 517 697 q 510 661 517 666 q 493 655 503 655 q 438 670 465 655 q 382 701 412 686 q 315 715 352 715 q 262 696 277 715 q 248 647 248 676 q 252 626 248 636 q 271 616 256 616 "},"æ":{"ha":1203,"x_min":34,"x_max":1164,"o":"m 319 -7 q 499 12 415 -7 q 624 68 584 31 q 728 13 663 33 q 884 -7 793 -7 q 1008 5 944 -7 q 1131 47 1072 17 q 1145 68 1145 55 q 1126 86 1145 86 q 1112 83 1120 86 q 1053 60 1090 72 q 971 41 1016 49 q 884 33 927 33 q 734 54 795 33 q 645 93 673 74 l 645 257 l 1134 257 q 1154 282 1144 257 q 1164 325 1164 307 q 1094 479 1164 425 q 882 533 1023 533 q 734 517 800 533 q 625 462 667 501 q 541 510 592 494 q 432 529 489 525 q 328 533 376 533 q 219 523 272 533 q 127 493 167 513 q 72 440 88 472 q 66 422 66 429 q 83 404 66 404 q 106 421 96 404 q 192 477 130 461 q 319 493 253 493 q 507 475 434 493 q 604 439 579 456 l 604 264 q 480 305 560 287 q 312 323 399 323 q 173 307 236 323 q 72 253 110 291 q 34 149 34 215 q 72 58 34 92 q 176 8 111 24 q 319 -7 241 -7 m 645 297 l 645 439 q 730 474 672 456 q 882 493 788 493 q 1025 471 972 493 q 1101 411 1078 448 q 1124 329 1124 374 q 1121 310 1124 322 q 1119 297 1119 298 l 645 297 m 314 33 q 152 58 216 33 q 88 149 88 83 q 151 255 88 226 q 317 283 213 283 q 432 275 375 283 q 534 254 488 267 q 604 229 580 242 l 604 93 q 500 53 568 72 q 314 33 431 33 "},"b":{"ha":851,"x_min":108,"x_max":768,"o":"m 467 -7 q 689 55 611 -7 q 768 269 768 117 q 726 428 768 371 q 617 509 685 486 q 467 533 549 533 q 385 528 433 533 q 291 509 338 523 q 209 468 244 494 q 162 398 174 441 l 162 722 q 154 750 162 744 q 136 755 146 755 q 117 750 126 755 q 108 722 108 744 l 108 50 q 111 15 108 30 q 134 0 115 0 q 158 15 154 0 q 162 50 162 30 l 162 66 q 283 17 208 41 q 467 -7 357 -7 m 467 33 q 297 53 373 33 q 162 95 220 73 l 162 355 q 208 425 174 398 q 286 466 241 451 q 379 487 331 481 q 467 493 427 492 q 591 473 536 493 q 680 403 647 452 q 713 269 713 354 q 655 89 713 145 q 467 33 597 33 "},"c":{"ha":768,"x_min":81,"x_max":687,"o":"m 426 -7 q 550 5 486 -7 q 673 47 614 17 q 687 68 687 55 q 668 86 687 86 q 654 83 662 86 q 595 60 632 72 q 513 41 557 49 q 425 33 469 33 q 208 85 280 33 q 136 261 136 136 q 203 439 136 385 q 426 493 271 493 q 513 485 469 493 q 595 466 557 477 q 654 444 632 454 q 668 440 662 440 q 687 458 687 440 q 673 479 687 471 q 550 521 614 509 q 426 533 486 533 q 239 509 317 533 q 122 425 162 484 q 81 261 81 366 q 125 97 81 155 q 246 16 168 39 q 426 -7 323 -7 "},"ć":{"ha":768,"x_min":81,"x_max":687,"o":"m 426 -7 q 550 5 486 -7 q 673 47 614 17 q 687 68 687 55 q 668 86 687 86 q 654 83 662 86 q 595 60 632 72 q 513 41 557 49 q 425 33 469 33 q 208 85 280 33 q 136 261 136 136 q 203 439 136 385 q 426 493 271 493 q 513 485 469 493 q 595 466 557 477 q 654 444 632 454 q 668 440 662 440 q 687 458 687 440 q 673 479 687 471 q 550 521 614 509 q 426 533 486 533 q 239 509 317 533 q 122 425 162 484 q 81 261 81 366 q 125 97 81 155 q 246 16 168 39 q 426 -7 323 -7 m 331 615 q 341 618 336 615 l 532 781 q 543 800 543 789 q 532 827 543 815 q 506 840 521 840 q 489 832 496 840 l 318 645 q 313 633 313 640 q 331 615 313 615 "},"č":{"ha":768,"x_min":81,"x_max":687,"o":"m 426 -7 q 550 5 486 -7 q 673 47 614 17 q 687 68 687 55 q 668 86 687 86 q 654 83 662 86 q 595 60 632 72 q 513 41 557 49 q 425 33 469 33 q 208 85 280 33 q 136 261 136 136 q 203 439 136 385 q 426 493 271 493 q 513 485 469 493 q 595 466 557 477 q 654 444 632 454 q 668 440 662 440 q 687 458 687 440 q 673 479 687 471 q 550 521 614 509 q 426 533 486 533 q 239 509 317 533 q 122 425 162 484 q 81 261 81 366 q 125 97 81 155 q 246 16 168 39 q 426 -7 323 -7 m 384 616 q 420 642 403 616 l 511 793 q 511 814 519 806 q 492 822 504 822 q 456 794 470 822 l 384 653 l 311 794 q 275 822 296 822 q 256 814 263 822 q 256 793 248 806 l 348 642 q 384 616 364 616 "},"ç":{"ha":768,"x_min":81,"x_max":687,"o":"m 426 -7 q 550 5 486 -7 q 673 47 614 17 q 687 68 687 55 q 668 86 687 86 q 654 83 662 86 q 595 60 632 72 q 513 41 557 49 q 425 33 469 33 q 208 85 280 33 q 136 261 136 136 q 203 439 136 385 q 426 493 271 493 q 513 485 469 493 q 595 466 557 477 q 654 444 632 454 q 668 440 662 440 q 687 458 687 440 q 673 479 687 471 q 550 521 614 509 q 426 533 486 533 q 239 509 317 533 q 122 425 162 484 q 81 261 81 366 q 125 97 81 155 q 246 16 168 39 q 426 -7 323 -7 m 326 -220 q 341 -215 334 -220 q 356 -196 348 -210 l 463 -5 q 465 5 465 -1 q 453 20 465 20 q 435 7 444 20 l 307 -178 q 300 -196 300 -188 q 307 -213 300 -205 q 326 -220 315 -220 "},"ĉ":{"ha":768,"x_min":81,"x_max":687,"o":"m 426 -7 q 550 5 486 -7 q 673 47 614 17 q 687 68 687 55 q 668 86 687 86 q 654 83 662 86 q 595 60 632 72 q 513 41 557 49 q 425 33 469 33 q 208 85 280 33 q 136 261 136 136 q 203 439 136 385 q 426 493 271 493 q 513 485 469 493 q 595 466 557 477 q 654 444 632 454 q 668 440 662 440 q 687 458 687 440 q 673 479 687 471 q 550 521 614 509 q 426 533 486 533 q 239 509 317 533 q 122 425 162 484 q 81 261 81 366 q 125 97 81 155 q 246 16 168 39 q 426 -7 323 -7 m 275 616 q 311 644 296 616 l 384 785 l 456 644 q 492 616 470 616 q 511 624 504 616 q 511 644 519 632 l 420 796 q 384 822 404 822 q 348 796 364 822 l 256 644 q 256 624 248 632 q 275 616 263 616 "},"ċ":{"ha":768,"x_min":81,"x_max":687,"o":"m 426 -7 q 550 5 486 -7 q 673 47 614 17 q 687 68 687 55 q 668 86 687 86 q 654 83 662 86 q 595 60 632 72 q 513 41 557 49 q 425 33 469 33 q 208 85 280 33 q 136 261 136 136 q 203 439 136 385 q 426 493 271 493 q 513 485 469 493 q 595 466 557 477 q 654 444 632 454 q 668 440 662 440 q 687 458 687 440 q 673 479 687 471 q 550 521 614 509 q 426 533 486 533 q 239 509 317 533 q 122 425 162 484 q 81 261 81 366 q 125 97 81 155 q 246 16 168 39 q 426 -7 323 -7 m 383 637 q 412 648 400 637 q 424 675 424 659 q 412 704 424 693 q 383 715 400 715 q 355 704 366 715 q 344 675 344 693 q 355 648 344 659 q 383 637 366 637 "},"d":{"ha":851,"x_min":83,"x_max":743,"o":"m 384 -7 q 466 -2 418 -7 q 560 18 513 3 q 643 59 607 32 q 689 130 678 86 l 689 35 q 697 7 689 14 q 717 0 705 0 q 735 7 726 0 q 743 37 743 15 l 743 709 q 739 742 743 728 q 715 755 735 755 q 692 741 696 755 q 689 707 689 726 l 689 447 q 636 485 672 465 q 540 519 601 505 q 384 533 479 533 q 162 471 240 533 q 83 258 83 410 q 125 98 83 156 q 234 17 166 41 q 384 -7 302 -7 m 384 33 q 260 54 316 33 q 171 123 204 74 q 138 258 138 172 q 196 437 138 381 q 384 493 254 493 q 535 480 475 493 q 632 450 595 468 q 689 415 669 432 l 689 171 q 643 101 677 128 q 565 60 610 75 q 472 39 520 45 q 384 33 425 33 "},"ď":{"ha":851,"x_min":83,"x_max":970,"o":"m 384 -7 q 466 -2 418 -7 q 560 18 513 3 q 643 59 607 32 q 689 130 678 86 l 689 35 q 697 7 689 14 q 717 0 705 0 q 735 7 726 0 q 743 37 743 15 l 743 709 q 739 742 743 728 q 715 755 735 755 q 692 741 696 755 q 689 707 689 726 l 689 447 q 636 485 672 465 q 540 519 601 505 q 384 533 479 533 q 162 471 240 533 q 83 258 83 410 q 125 98 83 156 q 234 17 166 41 q 384 -7 302 -7 m 384 33 q 260 54 316 33 q 171 123 204 74 q 138 258 138 172 q 196 437 138 381 q 384 493 254 493 q 535 480 475 493 q 632 450 595 468 q 689 415 669 432 l 689 171 q 643 101 677 128 q 565 60 610 75 q 472 39 520 45 q 384 33 425 33 m 874 601 q 944 636 918 601 q 970 706 970 671 q 955 744 970 732 q 924 756 940 756 q 891 746 905 756 q 877 716 877 736 q 887 686 877 696 q 904 673 897 676 q 912 661 912 669 q 872 625 912 627 q 858 614 858 625 q 874 601 858 601 "},"đ":{"ha":851,"x_min":83,"x_max":851,"o":"m 384 -7 q 466 -2 418 -7 q 560 18 513 3 q 643 59 607 32 q 689 130 678 86 l 689 35 q 697 7 689 14 q 717 0 705 0 q 735 7 726 0 q 743 37 743 15 l 743 603 l 833 603 q 847 609 842 603 q 851 622 851 615 q 847 635 851 629 q 833 642 842 642 l 743 642 l 743 709 q 739 742 743 728 q 715 755 735 755 q 692 741 696 755 q 689 707 689 726 l 689 642 l 412 642 q 398 635 403 642 q 393 622 393 629 q 398 609 393 615 q 412 603 403 603 l 689 603 l 689 447 q 636 485 672 465 q 540 519 601 505 q 384 533 479 533 q 162 471 240 533 q 83 258 83 410 q 125 98 83 156 q 234 17 166 41 q 384 -7 302 -7 m 384 33 q 260 54 316 33 q 171 123 204 74 q 138 258 138 172 q 196 437 138 381 q 384 493 254 493 q 535 480 475 493 q 632 450 595 468 q 689 415 669 432 l 689 171 q 643 102 677 128 q 565 60 610 75 q 472 40 520 45 q 384 33 425 34 "},"ǳ":{"ha":1551,"x_min":83,"x_max":1487,"o":"m 384 -7 q 466 -2 418 -7 q 560 18 513 3 q 643 59 607 32 q 689 130 678 86 l 689 35 q 697 7 689 14 q 717 0 705 0 q 735 7 726 0 q 743 37 743 15 l 743 709 q 739 742 743 728 q 715 755 735 755 q 692 741 696 755 q 689 707 689 726 l 689 447 q 636 485 672 465 q 540 519 601 505 q 384 533 479 533 q 162 471 240 533 q 83 258 83 410 q 125 98 83 156 q 234 17 166 41 q 384 -7 302 -7 m 384 33 q 260 54 316 33 q 171 123 204 74 q 138 258 138 172 q 196 437 138 381 q 384 493 254 493 q 535 480 475 493 q 632 450 595 468 q 689 415 669 432 l 689 171 q 643 101 677 128 q 565 60 610 75 q 472 39 520 45 q 384 33 425 33 m 954 0 l 1439 0 q 1472 2 1457 0 q 1487 18 1487 3 q 1472 37 1487 35 q 1438 39 1457 39 l 987 39 l 1462 463 q 1478 494 1478 477 q 1471 511 1478 503 q 1444 519 1463 519 l 967 519 q 933 518 947 519 q 919 498 919 516 q 934 483 919 484 q 968 481 949 481 l 1414 481 l 943 60 q 925 27 925 45 q 933 7 925 14 q 954 0 942 0 "},"ǆ":{"ha":1551,"x_min":83,"x_max":1487,"o":"m 384 -7 q 466 -2 418 -7 q 560 18 513 3 q 643 59 607 32 q 689 130 678 86 l 689 35 q 697 7 689 14 q 717 0 705 0 q 735 7 726 0 q 743 37 743 15 l 743 709 q 739 742 743 728 q 715 755 735 755 q 692 741 696 755 q 689 707 689 726 l 689 447 q 636 485 672 465 q 540 519 601 505 q 384 533 479 533 q 162 471 240 533 q 83 258 83 410 q 125 98 83 156 q 234 17 166 41 q 384 -7 302 -7 m 384 33 q 260 54 316 33 q 171 123 204 74 q 138 258 138 172 q 196 437 138 381 q 384 493 254 493 q 535 480 475 493 q 632 450 595 468 q 689 415 669 432 l 689 171 q 643 101 677 128 q 565 60 610 75 q 472 39 520 45 q 384 33 425 33 m 954 0 l 1439 0 q 1472 2 1457 0 q 1487 18 1487 3 q 1472 37 1487 35 q 1438 39 1457 39 l 987 39 l 1462 463 q 1478 494 1478 477 q 1471 511 1478 503 q 1444 519 1463 519 l 967 519 q 933 518 947 519 q 919 498 919 516 q 934 483 919 484 q 968 481 949 481 l 1414 481 l 943 60 q 925 27 925 45 q 933 7 925 14 q 954 0 942 0 m 1201 616 q 1237 642 1220 616 l 1329 793 q 1329 814 1336 806 q 1310 822 1321 822 q 1273 794 1287 822 l 1201 653 l 1128 794 q 1092 822 1114 822 q 1073 814 1080 822 q 1073 793 1065 806 l 1165 642 q 1201 616 1181 616 "},"ð":{"ha":722,"x_min":83,"x_max":664,"o":"m 370 -14 q 594 74 524 -14 q 664 345 664 161 q 630 527 664 444 q 536 661 596 611 q 586 698 561 680 q 636 734 611 716 q 644 748 644 740 q 629 764 644 764 q 618 759 623 764 q 565 720 591 740 q 513 681 539 701 q 343 748 428 738 q 178 758 258 758 q 166 752 170 758 q 162 740 162 747 q 166 726 162 732 q 179 720 170 720 q 271 715 216 720 q 380 697 325 711 q 474 652 435 684 q 428 618 451 635 q 382 585 406 602 q 374 571 374 578 q 389 555 374 555 q 401 561 395 555 q 449 596 425 578 q 497 633 473 614 q 577 529 543 597 q 611 375 611 460 q 471 436 541 416 q 336 456 400 456 q 207 430 264 456 q 116 354 149 404 q 83 233 83 304 q 109 113 83 169 q 198 21 135 56 q 370 -14 260 -14 m 366 33 q 224 61 275 33 q 155 133 174 89 q 135 222 135 176 q 193 366 135 323 q 335 409 252 409 q 475 388 401 409 q 611 332 549 366 q 556 107 611 182 q 366 33 501 33 "},"e":{"ha":766,"x_min":82,"x_max":688,"o":"m 402 -7 q 550 9 492 -7 q 638 45 608 26 q 677 72 669 64 q 684 84 684 77 q 677 99 684 92 q 663 106 671 106 q 658 105 660 106 q 611 78 643 95 q 529 46 580 60 q 401 33 477 33 q 206 81 273 33 q 136 264 139 130 l 672 257 q 683 282 677 257 q 688 325 688 307 q 618 479 688 425 q 407 533 548 533 q 242 509 316 533 q 125 425 168 484 q 82 261 82 366 q 157 63 82 134 q 402 -7 233 -7 m 137 297 q 212 450 142 406 q 407 493 281 493 q 549 471 496 493 q 625 411 602 448 q 648 329 648 374 l 648 297 l 137 297 "},"é":{"ha":766,"x_min":82,"x_max":688,"o":"m 402 -7 q 550 9 492 -7 q 638 45 608 26 q 677 72 669 64 q 684 84 684 77 q 677 99 684 92 q 663 106 671 106 q 658 105 660 106 q 611 78 643 95 q 529 46 580 60 q 401 33 477 33 q 206 81 273 33 q 136 264 139 130 l 672 257 q 683 282 677 257 q 688 325 688 307 q 618 479 688 425 q 407 533 548 533 q 242 509 316 533 q 125 425 168 484 q 82 261 82 366 q 157 63 82 134 q 402 -7 233 -7 m 137 297 q 212 450 142 406 q 407 493 281 493 q 549 471 496 493 q 625 411 602 448 q 648 329 648 374 l 648 297 l 137 297 m 330 615 q 340 618 336 615 l 532 781 q 542 800 542 789 q 531 827 542 815 q 505 840 520 840 q 488 832 496 840 l 317 645 q 312 633 312 640 q 330 615 312 615 "},"ě":{"ha":766,"x_min":82,"x_max":688,"o":"m 402 -7 q 550 9 492 -7 q 638 45 608 26 q 677 72 669 64 q 684 84 684 77 q 677 99 684 92 q 663 106 671 106 q 658 105 660 106 q 611 78 643 95 q 529 46 580 60 q 401 33 477 33 q 206 81 273 33 q 136 264 139 130 l 672 257 q 683 282 677 257 q 688 325 688 307 q 618 479 688 425 q 407 533 548 533 q 242 509 316 533 q 125 425 168 484 q 82 261 82 366 q 157 63 82 134 q 402 -7 233 -7 m 137 297 q 212 450 142 406 q 407 493 281 493 q 549 471 496 493 q 625 411 602 448 q 648 329 648 374 l 648 297 l 137 297 m 383 616 q 419 642 402 616 l 511 793 q 511 814 518 806 q 492 822 503 822 q 455 794 469 822 l 383 653 l 311 794 q 274 822 296 822 q 255 814 262 822 q 255 793 248 806 l 347 642 q 383 616 363 616 "},"ê":{"ha":766,"x_min":82,"x_max":688,"o":"m 402 -7 q 550 9 492 -7 q 638 45 608 26 q 677 72 669 64 q 684 84 684 77 q 677 99 684 92 q 663 106 671 106 q 658 105 660 106 q 611 78 643 95 q 529 46 580 60 q 401 33 477 33 q 206 81 273 33 q 136 264 139 130 l 672 257 q 683 282 677 257 q 688 325 688 307 q 618 479 688 425 q 407 533 548 533 q 242 509 316 533 q 125 425 168 484 q 82 261 82 366 q 157 63 82 134 q 402 -7 233 -7 m 137 297 q 212 450 142 406 q 407 493 281 493 q 549 471 496 493 q 625 411 602 448 q 648 329 648 374 l 648 297 l 137 297 m 274 616 q 311 644 296 616 l 383 785 l 455 644 q 492 616 469 616 q 511 624 503 616 q 511 644 518 632 l 419 796 q 383 822 403 822 q 347 796 363 822 l 255 644 q 255 624 248 632 q 274 616 262 616 "},"ȅ":{"ha":766,"x_min":82,"x_max":688,"o":"m 402 -7 q 550 9 492 -7 q 638 45 608 26 q 677 72 669 64 q 684 84 684 77 q 677 99 684 92 q 663 106 671 106 q 658 105 660 106 q 611 78 643 95 q 529 46 580 60 q 401 33 477 33 q 206 81 273 33 q 136 264 139 130 l 672 257 q 683 282 677 257 q 688 325 688 307 q 618 479 688 425 q 407 533 548 533 q 242 509 316 533 q 125 425 168 484 q 82 261 82 366 q 157 63 82 134 q 402 -7 233 -7 m 137 297 q 212 450 142 406 q 407 493 281 493 q 549 471 496 493 q 625 411 602 448 q 648 329 648 374 l 648 297 l 137 297 m 472 616 q 490 633 490 616 q 485 646 490 640 l 307 826 q 290 833 300 833 q 269 823 278 833 q 260 801 260 813 q 271 782 260 790 l 462 619 q 472 616 467 616 m 317 616 q 336 633 336 616 q 330 646 336 640 l 153 826 q 136 833 145 833 q 115 823 123 833 q 106 801 106 813 q 116 782 106 790 l 307 619 q 317 616 312 616 "},"ë":{"ha":766,"x_min":82,"x_max":688,"o":"m 402 -7 q 550 9 492 -7 q 638 45 608 26 q 677 72 669 64 q 684 84 684 77 q 677 99 684 92 q 663 106 671 106 q 658 105 660 106 q 611 78 643 95 q 529 46 580 60 q 401 33 477 33 q 206 81 273 33 q 136 264 139 130 l 672 257 q 683 282 677 257 q 688 325 688 307 q 618 479 688 425 q 407 533 548 533 q 242 509 316 533 q 125 425 168 484 q 82 261 82 366 q 157 63 82 134 q 402 -7 233 -7 m 137 297 q 212 450 142 406 q 407 493 281 493 q 549 471 496 493 q 625 411 602 448 q 648 329 648 374 l 648 297 l 137 297 m 517 637 q 546 648 534 637 q 558 675 558 659 q 546 704 558 693 q 517 715 534 715 q 489 704 500 715 q 478 675 478 693 q 489 648 478 659 q 517 637 500 637 m 247 637 q 276 648 264 637 q 288 675 288 659 q 276 704 288 693 q 247 715 264 715 q 218 704 229 715 q 208 675 208 693 q 218 648 208 659 q 247 637 229 637 "},"ė":{"ha":766,"x_min":82,"x_max":688,"o":"m 402 -7 q 550 9 492 -7 q 638 45 608 26 q 677 72 669 64 q 684 84 684 77 q 677 99 684 92 q 663 106 671 106 q 658 105 660 106 q 611 78 643 95 q 529 46 580 60 q 401 33 477 33 q 206 81 273 33 q 136 264 139 130 l 672 257 q 683 282 677 257 q 688 325 688 307 q 618 479 688 425 q 407 533 548 533 q 242 509 316 533 q 125 425 168 484 q 82 261 82 366 q 157 63 82 134 q 402 -7 233 -7 m 137 297 q 212 450 142 406 q 407 493 281 493 q 549 471 496 493 q 625 411 602 448 q 648 329 648 374 l 648 297 l 137 297 m 382 637 q 411 648 399 637 q 423 675 423 659 q 411 704 423 693 q 382 715 399 715 q 354 704 365 715 q 343 675 343 693 q 354 648 343 659 q 382 637 365 637 "},"è":{"ha":766,"x_min":82,"x_max":688,"o":"m 402 -7 q 550 9 492 -7 q 638 45 608 26 q 677 72 669 64 q 684 84 684 77 q 677 99 684 92 q 663 106 671 106 q 658 105 660 106 q 611 78 643 95 q 529 46 580 60 q 401 33 477 33 q 206 81 273 33 q 136 264 139 130 l 672 257 q 683 282 677 257 q 688 325 688 307 q 618 479 688 425 q 407 533 548 533 q 242 509 316 533 q 125 425 168 484 q 82 261 82 366 q 157 63 82 134 q 402 -7 233 -7 m 137 297 q 212 450 142 406 q 407 493 281 493 q 549 471 496 493 q 625 411 602 448 q 648 329 648 374 l 648 297 l 137 297 m 436 616 q 454 634 454 616 q 449 646 454 641 l 278 833 q 261 841 271 841 q 235 829 246 841 q 224 802 224 817 q 235 783 224 791 l 426 620 q 436 616 431 616 "},"ȇ":{"ha":766,"x_min":82,"x_max":688,"o":"m 402 -7 q 550 9 492 -7 q 638 45 608 26 q 677 72 669 64 q 684 84 684 77 q 677 99 684 92 q 663 106 671 106 q 658 105 660 106 q 611 78 643 95 q 529 46 580 60 q 401 33 477 33 q 206 81 273 33 q 136 264 139 130 l 672 257 q 683 282 677 257 q 688 325 688 307 q 618 479 688 425 q 407 533 548 533 q 242 509 316 533 q 125 425 168 484 q 82 261 82 366 q 157 63 82 134 q 402 -7 233 -7 m 137 297 q 212 450 142 406 q 407 493 281 493 q 549 471 496 493 q 625 411 602 448 q 648 329 648 374 l 648 297 l 137 297 m 276 616 q 293 625 289 616 q 296 647 296 634 q 315 707 296 678 q 383 735 334 735 q 451 707 432 735 q 470 647 470 678 q 474 625 470 634 q 490 616 477 616 q 509 626 505 616 q 513 647 513 636 q 501 703 513 674 q 460 751 489 731 q 383 770 432 770 q 306 751 335 770 q 265 703 277 731 q 253 647 253 674 q 257 626 253 636 q 276 616 261 616 "},"ē":{"ha":766,"x_min":82,"x_max":688,"o":"m 402 -7 q 550 9 492 -7 q 638 45 608 26 q 677 72 669 64 q 684 84 684 77 q 677 99 684 92 q 663 106 671 106 q 658 105 660 106 q 611 78 643 95 q 529 46 580 60 q 401 33 477 33 q 206 81 273 33 q 136 264 139 130 l 672 257 q 683 282 677 257 q 688 325 688 307 q 618 479 688 425 q 407 533 548 533 q 242 509 316 533 q 125 425 168 484 q 82 261 82 366 q 157 63 82 134 q 402 -7 233 -7 m 137 297 q 212 450 142 406 q 407 493 281 493 q 549 471 496 493 q 625 411 602 448 q 648 329 648 374 l 648 297 l 137 297 m 267 627 l 499 627 q 516 635 511 627 q 521 648 521 643 q 516 663 521 654 q 499 671 511 671 l 267 671 q 250 663 255 671 q 245 648 245 654 q 250 635 245 643 q 267 627 255 627 "},"ę":{"ha":766,"x_min":82,"x_max":688,"o":"m 402 -7 q 550 9 492 -7 q 638 45 608 26 q 677 72 669 64 q 684 84 684 77 q 677 99 684 92 q 663 106 671 106 q 658 105 660 106 q 611 78 643 95 q 529 46 580 60 q 401 33 477 33 q 206 81 273 33 q 136 264 139 130 l 672 257 q 683 282 677 257 q 688 325 688 307 q 618 479 688 425 q 407 533 548 533 q 242 509 316 533 q 125 425 168 484 q 82 261 82 366 q 157 63 82 134 q 402 -7 233 -7 m 137 297 q 212 450 142 406 q 407 493 281 493 q 549 471 496 493 q 625 411 602 448 q 648 329 648 374 l 648 297 l 137 297 m 557 -164 q 607 -150 583 -164 q 643 -112 631 -136 l 636 -106 q 614 -119 627 -111 q 588 -126 602 -126 q 565 -116 577 -126 q 553 -77 553 -105 q 565 -27 553 -56 q 601 29 577 1 l 581 29 q 518 -34 543 -2 q 493 -98 493 -66 q 514 -149 493 -134 q 557 -164 534 -164 "},"f":{"ha":467,"x_min":46,"x_max":465,"o":"m 152 0 q 171 6 163 0 q 179 33 179 12 l 179 477 l 427 477 q 447 493 447 477 q 427 509 447 509 l 179 509 l 179 553 q 193 653 179 620 q 233 699 207 687 q 294 710 258 710 q 360 705 326 710 q 431 688 395 701 q 444 685 437 685 q 460 691 454 685 q 465 702 465 697 q 444 723 465 715 q 360 744 395 739 q 284 749 325 749 q 169 706 212 749 q 125 553 125 663 l 125 509 l 65 509 q 46 493 46 509 q 65 477 46 477 l 125 477 l 125 33 q 134 6 125 12 q 152 0 142 0 "},"g":{"ha":840,"x_min":82,"x_max":732,"o":"m 421 -231 q 651 -177 570 -231 q 732 -16 732 -123 l 732 472 q 726 504 732 488 q 700 519 720 519 q 681 503 685 519 q 676 463 676 486 q 677 431 676 447 q 678 403 678 415 q 648 459 671 429 q 570 511 625 490 q 414 533 515 533 q 240 509 315 533 q 124 426 165 484 q 82 267 82 368 q 120 99 82 159 q 232 16 159 39 q 408 -7 304 -7 q 548 9 475 -7 q 678 65 620 24 l 678 -16 q 605 -143 678 -103 q 421 -183 532 -183 q 277 -166 336 -183 q 182 -133 218 -150 q 163 -127 172 -127 q 146 -145 146 -127 q 152 -163 146 -153 q 172 -180 159 -173 q 266 -213 208 -196 q 421 -231 323 -231 m 411 33 q 249 55 309 33 q 162 127 189 77 q 136 260 136 176 q 208 436 136 385 q 420 486 279 486 q 571 464 517 486 q 648 412 624 442 q 678 355 671 381 l 678 102 q 552 49 623 65 q 411 33 481 33 "},"ǵ":{"ha":840,"x_min":82,"x_max":732,"o":"m 421 -231 q 651 -177 570 -231 q 732 -16 732 -123 l 732 472 q 726 504 732 488 q 700 519 720 519 q 681 503 685 519 q 676 463 676 486 q 677 431 676 447 q 678 403 678 415 q 648 459 671 429 q 570 511 625 490 q 414 533 515 533 q 240 509 315 533 q 124 426 165 484 q 82 267 82 368 q 120 99 82 159 q 232 16 159 39 q 408 -7 304 -7 q 548 9 475 -7 q 678 65 620 24 l 678 -16 q 605 -143 678 -103 q 421 -183 532 -183 q 277 -166 336 -183 q 182 -133 218 -150 q 163 -127 172 -127 q 146 -145 146 -127 q 152 -163 146 -153 q 172 -180 159 -173 q 266 -213 208 -196 q 421 -231 323 -231 m 411 33 q 249 55 309 33 q 162 127 189 77 q 136 260 136 176 q 208 436 136 385 q 420 486 279 486 q 571 464 517 486 q 648 412 624 442 q 678 355 671 381 l 678 102 q 552 49 623 65 q 411 33 481 33 m 368 615 q 378 618 373 615 l 569 781 q 579 800 579 789 q 568 827 579 815 q 543 840 557 840 q 526 832 533 840 l 355 645 q 349 633 349 640 q 368 615 349 615 "},"ğ":{"ha":840,"x_min":82,"x_max":732,"o":"m 421 -231 q 651 -177 570 -231 q 732 -16 732 -123 l 732 472 q 726 504 732 488 q 700 519 720 519 q 681 503 685 519 q 676 463 676 486 q 677 431 676 447 q 678 403 678 415 q 648 459 671 429 q 570 511 625 490 q 414 533 515 533 q 240 509 315 533 q 124 426 165 484 q 82 267 82 368 q 120 99 82 159 q 232 16 159 39 q 408 -7 304 -7 q 548 9 475 -7 q 678 65 620 24 l 678 -16 q 605 -143 678 -103 q 421 -183 532 -183 q 277 -166 336 -183 q 182 -133 218 -150 q 163 -127 172 -127 q 146 -145 146 -127 q 152 -163 146 -153 q 172 -180 159 -173 q 266 -213 208 -196 q 421 -231 323 -231 m 411 33 q 249 55 309 33 q 162 127 189 77 q 136 260 136 176 q 208 436 136 385 q 420 486 279 486 q 571 464 517 486 q 648 412 624 442 q 678 355 671 381 l 678 102 q 552 49 623 65 q 411 33 481 33 m 420 616 q 498 635 469 616 q 540 684 527 655 q 553 739 553 712 q 548 761 553 751 q 528 770 544 770 q 509 761 513 770 q 505 739 505 752 q 487 681 505 708 q 420 654 469 654 q 354 681 372 654 q 336 739 336 708 q 332 761 336 752 q 313 770 328 770 q 293 761 297 770 q 288 739 288 751 q 301 684 288 712 q 343 635 314 655 q 420 616 372 616 "},"ĝ":{"ha":840,"x_min":82,"x_max":732,"o":"m 421 -231 q 651 -177 570 -231 q 732 -16 732 -123 l 732 472 q 726 504 732 488 q 700 519 720 519 q 681 503 685 519 q 676 463 676 486 q 677 431 676 447 q 678 403 678 415 q 648 459 671 429 q 570 511 625 490 q 414 533 515 533 q 240 509 315 533 q 124 426 165 484 q 82 267 82 368 q 120 99 82 159 q 232 16 159 39 q 408 -7 304 -7 q 548 9 475 -7 q 678 65 620 24 l 678 -16 q 605 -143 678 -103 q 421 -183 532 -183 q 277 -166 336 -183 q 182 -133 218 -150 q 163 -127 172 -127 q 146 -145 146 -127 q 152 -163 146 -153 q 172 -180 159 -173 q 266 -213 208 -196 q 421 -231 323 -231 m 411 33 q 249 55 309 33 q 162 127 189 77 q 136 260 136 176 q 208 436 136 385 q 420 486 279 486 q 571 464 517 486 q 648 412 624 442 q 678 355 671 381 l 678 102 q 552 49 623 65 q 411 33 481 33 m 311 616 q 348 644 333 616 l 420 785 l 492 644 q 529 616 507 616 q 548 624 541 616 q 548 644 555 632 l 456 796 q 420 822 440 822 q 385 796 401 822 l 292 644 q 292 624 285 632 q 311 616 300 616 "},"ģ":{"ha":840,"x_min":82,"x_max":732,"o":"m 421 -231 q 651 -177 570 -231 q 732 -16 732 -123 l 732 472 q 726 504 732 488 q 700 519 720 519 q 681 503 685 519 q 676 463 676 486 q 677 431 676 447 q 678 403 678 415 q 648 459 671 429 q 570 511 625 490 q 414 533 515 533 q 240 509 315 533 q 124 426 165 484 q 82 267 82 368 q 120 99 82 159 q 232 16 159 39 q 408 -7 304 -7 q 548 9 475 -7 q 678 65 620 24 l 678 -16 q 605 -143 678 -103 q 421 -183 532 -183 q 277 -166 336 -183 q 182 -133 218 -150 q 163 -127 172 -127 q 146 -145 146 -127 q 152 -163 146 -153 q 172 -180 159 -173 q 266 -213 208 -196 q 421 -231 323 -231 m 411 33 q 249 55 309 33 q 162 127 189 77 q 136 260 136 176 q 208 436 136 385 q 420 486 279 486 q 571 464 517 486 q 648 412 624 442 q 678 355 671 381 l 678 102 q 552 49 623 65 q 411 33 481 33 m 471 772 q 400 736 427 772 q 374 667 374 701 q 390 629 374 642 q 420 616 405 616 q 454 627 440 616 q 468 656 468 637 q 458 687 468 677 q 441 700 448 696 q 433 712 433 704 q 473 747 433 745 q 487 759 487 748 q 471 772 487 772 "},"ġ":{"ha":840,"x_min":82,"x_max":732,"o":"m 421 -231 q 651 -177 570 -231 q 732 -16 732 -123 l 732 472 q 726 504 732 488 q 700 519 720 519 q 681 503 685 519 q 676 463 676 486 q 677 431 676 447 q 678 403 678 415 q 648 459 671 429 q 570 511 625 490 q 414 533 515 533 q 240 509 315 533 q 124 426 165 484 q 82 267 82 368 q 120 99 82 159 q 232 16 159 39 q 408 -7 304 -7 q 548 9 475 -7 q 678 65 620 24 l 678 -16 q 605 -143 678 -103 q 421 -183 532 -183 q 277 -166 336 -183 q 182 -133 218 -150 q 163 -127 172 -127 q 146 -145 146 -127 q 152 -163 146 -153 q 172 -180 159 -173 q 266 -213 208 -196 q 421 -231 323 -231 m 411 33 q 249 55 309 33 q 162 127 189 77 q 136 260 136 176 q 208 436 136 385 q 420 486 279 486 q 571 464 517 486 q 648 412 624 442 q 678 355 671 381 l 678 102 q 552 49 623 65 q 411 33 481 33 m 420 637 q 449 648 437 637 q 460 675 460 659 q 449 704 460 693 q 420 715 437 715 q 391 704 402 715 q 380 675 380 693 q 391 648 380 659 q 420 637 402 637 "},"h":{"ha":812,"x_min":108,"x_max":713,"o":"m 136 0 q 157 16 153 0 q 162 49 162 31 l 162 355 q 227 439 178 409 q 337 481 276 469 q 450 493 398 493 q 582 470 537 493 q 643 400 627 447 q 659 283 659 354 l 659 49 q 663 16 659 31 q 687 0 667 0 q 708 16 703 0 q 713 49 713 31 l 713 283 q 688 432 713 378 q 605 510 663 486 q 450 533 548 533 q 371 528 416 533 q 283 509 326 523 q 207 469 239 495 q 162 403 174 444 l 162 708 q 157 741 162 726 q 136 755 153 755 q 113 740 117 755 q 108 708 108 724 l 108 49 q 113 16 108 31 q 136 0 117 0 "},"ħ":{"ha":736,"x_min":0,"x_max":673,"o":"m 97 0 q 118 16 113 0 q 123 49 123 31 l 123 355 q 188 439 139 409 q 298 481 237 469 q 411 493 359 493 q 543 470 498 493 q 603 400 587 447 q 619 283 619 354 l 619 49 q 624 16 619 31 q 648 0 628 0 q 669 16 664 0 q 673 49 673 31 l 673 283 q 648 432 673 378 q 566 510 623 486 q 411 533 509 533 q 332 528 376 533 q 243 509 287 523 q 167 469 200 495 q 123 403 134 444 l 123 618 l 295 618 q 314 639 314 618 q 295 659 314 659 l 123 659 l 123 708 q 118 741 123 726 q 97 755 113 755 q 73 740 78 755 q 68 708 68 724 l 68 659 l 19 659 q 0 639 0 659 q 19 618 0 618 l 68 618 l 68 49 q 73 16 68 31 q 97 0 78 0 "},"ĥ":{"ha":812,"x_min":108,"x_max":713,"o":"m 136 0 q 157 16 153 0 q 162 49 162 31 l 162 355 q 227 439 178 409 q 337 481 276 469 q 450 493 398 493 q 582 470 537 493 q 643 400 627 447 q 659 283 659 354 l 659 49 q 663 16 659 31 q 687 0 667 0 q 708 16 703 0 q 713 49 713 31 l 713 283 q 688 432 713 378 q 605 510 663 486 q 450 533 548 533 q 371 528 416 533 q 283 509 326 523 q 207 469 239 495 q 162 403 174 444 l 162 708 q 157 741 162 726 q 136 755 153 755 q 113 740 117 755 q 108 708 108 724 l 108 49 q 113 16 108 31 q 136 0 117 0 m 297 616 q 334 644 319 616 l 406 785 l 478 644 q 515 616 492 616 q 534 624 526 616 q 534 644 541 632 l 442 796 q 406 822 426 822 q 370 796 387 822 l 278 644 q 278 624 271 632 q 297 616 286 616 "},"i":{"ha":212,"x_min":66,"x_max":146,"o":"m 106 0 q 129 13 125 0 q 133 43 133 25 l 133 479 q 128 511 133 497 q 106 526 123 526 q 83 512 87 526 q 79 478 79 498 l 79 43 q 83 12 79 23 q 106 0 87 0 m 105 637 q 134 648 122 637 q 146 675 146 659 q 134 704 146 693 q 105 715 122 715 q 77 704 87 715 q 66 675 66 693 q 77 648 66 659 q 105 637 87 637 "},"ı":{"ha":212,"x_min":79,"x_max":133,"o":"m 106 0 q 129 13 125 0 q 133 43 133 25 l 133 479 q 128 511 133 497 q 106 526 123 526 q 83 512 87 526 q 79 478 79 498 l 79 43 q 83 12 79 23 q 106 0 87 0 "},"í":{"ha":212,"x_min":35,"x_max":264,"o":"m 106 0 q 129 13 125 0 q 133 43 133 25 l 133 479 q 128 511 133 497 q 106 526 123 526 q 83 512 87 526 q 79 478 79 498 l 79 43 q 83 12 79 23 q 106 0 87 0 m 53 615 q 63 618 58 615 l 254 781 q 264 800 264 789 q 254 827 264 815 q 228 840 243 840 q 211 832 218 840 l 40 645 q 35 633 35 640 q 53 615 35 615 "},"ĭ":{"ha":212,"x_min":-26,"x_max":238,"o":"m 106 0 q 129 13 125 0 q 133 43 133 25 l 133 479 q 128 511 133 497 q 106 526 123 526 q 83 512 87 526 q 79 478 79 498 l 79 43 q 83 12 79 23 q 106 0 87 0 m 106 616 q 183 635 155 616 q 225 684 212 655 q 238 739 238 712 q 234 761 238 751 q 213 770 229 770 q 195 761 199 770 q 191 739 191 752 q 173 681 191 708 q 106 654 155 654 q 39 681 57 654 q 21 739 21 708 q 17 761 21 752 q -1 770 13 770 q -22 761 -18 770 q -26 739 -26 751 q -14 684 -26 712 q 28 635 -1 655 q 106 616 58 616 "},"î":{"ha":212,"x_min":-30,"x_max":241,"o":"m 106 0 q 129 13 125 0 q 133 43 133 25 l 133 479 q 128 511 133 497 q 106 526 123 526 q 83 512 87 526 q 79 478 79 498 l 79 43 q 83 12 79 23 q 106 0 87 0 m -3 616 q 33 644 18 616 l 106 785 l 178 644 q 214 616 192 616 q 233 624 226 616 q 233 644 241 632 l 142 796 q 106 822 125 822 q 70 796 86 822 l -22 644 q -22 624 -30 632 q -3 616 -15 616 "},"ȉ":{"ha":212,"x_min":-172,"x_max":213,"o":"m 106 0 q 129 13 125 0 q 133 43 133 25 l 133 479 q 128 511 133 497 q 106 526 123 526 q 83 512 87 526 q 79 478 79 498 l 79 43 q 83 12 79 23 q 106 0 87 0 m 195 616 q 213 633 213 616 q 208 646 213 640 l 30 826 q 13 833 22 833 q -8 823 1 833 q -17 801 -17 813 q -7 782 -17 790 l 184 619 q 195 616 189 616 m 40 616 q 58 633 58 616 q 53 646 58 640 l -125 826 q -142 833 -132 833 q -163 823 -154 833 q -172 801 -172 813 q -161 782 -172 790 l 30 619 q 40 616 35 616 "},"ï":{"ha":212,"x_min":-16,"x_max":227,"o":"m 106 0 q 129 13 125 0 q 133 43 133 25 l 133 479 q 128 511 133 497 q 106 526 123 526 q 83 512 87 526 q 79 478 79 498 l 79 43 q 83 12 79 23 q 106 0 87 0 m 186 637 q 215 648 203 637 q 227 675 227 659 q 215 704 227 693 q 186 715 203 715 q 157 704 168 715 q 146 675 146 693 q 157 648 146 659 q 186 637 168 637 m 24 637 q 53 648 41 637 q 64 675 64 659 q 53 704 64 693 q 24 715 41 715 q -5 704 6 715 q -16 675 -16 693 q -5 648 -16 659 q 24 637 6 637 "},"ì":{"ha":212,"x_min":-53,"x_max":177,"o":"m 106 0 q 129 13 125 0 q 133 43 133 25 l 133 479 q 128 511 133 497 q 106 526 123 526 q 83 512 87 526 q 79 478 79 498 l 79 43 q 83 12 79 23 q 106 0 87 0 m 159 616 q 177 634 177 616 q 172 646 177 641 l 1 833 q -16 841 -7 841 q -42 829 -31 841 q -53 802 -53 817 q -43 783 -53 791 l 149 620 q 159 616 153 616 "},"ȋ":{"ha":212,"x_min":-24,"x_max":236,"o":"m 106 0 q 129 13 125 0 q 133 43 133 25 l 133 479 q 128 511 133 497 q 106 526 123 526 q 83 512 87 526 q 79 478 79 498 l 79 43 q 83 12 79 23 q 106 0 87 0 m -1 616 q 15 625 12 616 q 19 647 19 634 q 38 707 19 678 q 106 735 57 735 q 174 707 155 735 q 193 647 193 678 q 196 625 193 634 q 213 616 200 616 q 232 626 228 616 q 236 647 236 636 q 224 703 236 674 q 183 751 212 731 q 106 770 155 770 q 29 751 58 770 q -12 703 0 731 q -24 647 -24 674 q -20 626 -24 636 q -1 616 -16 616 "},"ī":{"ha":212,"x_min":-32,"x_max":243,"o":"m 106 0 q 129 13 125 0 q 133 43 133 25 l 133 479 q 128 511 133 497 q 106 526 123 526 q 83 512 87 526 q 79 478 79 498 l 79 43 q 83 12 79 23 q 106 0 87 0 m -10 627 l 222 627 q 239 635 234 627 q 243 648 243 643 q 239 663 243 654 q 222 671 234 671 l -10 671 q -27 663 -22 671 q -32 648 -32 654 q -27 635 -32 643 q -10 627 -22 627 "},"į":{"ha":212,"x_min":14,"x_max":163,"o":"m 106 0 q 129 13 125 0 q 133 43 133 25 l 133 479 q 128 511 133 497 q 106 526 123 526 q 83 512 87 526 q 79 478 79 498 l 79 43 q 83 12 79 23 q 106 0 87 0 m 105 637 q 134 648 122 637 q 146 675 146 659 q 134 704 146 693 q 105 715 122 715 q 77 704 87 715 q 66 675 66 693 q 77 648 66 659 q 105 637 87 637 m 78 -186 q 128 -172 104 -186 q 163 -134 152 -158 l 157 -128 q 135 -141 148 -134 q 109 -149 122 -149 q 86 -138 98 -149 q 74 -100 74 -127 q 86 -50 74 -78 q 121 7 98 -21 l 101 7 q 38 -56 63 -24 q 14 -121 14 -88 q 34 -171 14 -156 q 78 -186 55 -186 "},"ĩ":{"ha":212,"x_min":-51,"x_max":262,"o":"m 106 0 q 129 13 125 0 q 133 43 133 25 l 133 479 q 128 511 133 497 q 106 526 123 526 q 83 512 87 526 q 79 478 79 498 l 79 43 q 83 12 79 23 q 106 0 87 0 m -28 616 q -12 625 -16 616 q -8 646 -8 634 q -1 671 -8 665 q 16 676 6 676 q 66 661 34 676 q 134 631 99 646 q 195 616 170 616 q 247 635 232 616 q 262 684 262 655 q 258 706 262 696 q 239 715 254 715 q 223 706 227 715 q 219 685 219 697 q 212 661 219 666 q 195 655 205 655 q 140 670 167 655 q 83 701 113 686 q 16 715 54 715 q -36 696 -21 715 q -51 647 -51 676 q -47 626 -51 636 q -28 616 -43 616 "},"ĳ":{"ha":539,"x_min":66,"x_max":469,"o":"m 106 0 q 129 13 125 0 q 133 43 133 25 l 133 479 q 128 511 133 497 q 106 526 123 526 q 83 512 87 526 q 79 478 79 498 l 79 43 q 83 12 79 23 q 106 0 87 0 m 105 637 q 134 648 122 637 q 146 675 146 659 q 134 704 146 693 q 105 715 122 715 q 77 704 87 715 q 66 675 66 693 q 77 648 66 659 q 105 637 87 637 m 256 -180 q 370 -156 330 -180 q 429 -94 411 -132 q 451 -14 447 -56 q 455 64 455 28 l 455 484 q 452 514 455 502 q 429 526 448 526 q 406 514 411 526 q 401 484 401 502 l 401 64 q 399 -6 401 28 q 385 -70 397 -41 q 342 -116 372 -99 q 256 -134 313 -134 q 225 -136 239 -134 q 212 -157 212 -139 q 225 -177 212 -174 q 256 -180 239 -180 m 428 637 q 457 648 445 637 q 469 675 469 659 q 457 704 469 693 q 428 715 445 715 q 399 704 410 715 q 389 675 389 693 q 399 648 389 659 q 428 637 410 637 "},"j":{"ha":328,"x_min":0,"x_max":257,"o":"m 45 -180 q 159 -156 118 -180 q 217 -94 199 -132 q 239 -14 235 -56 q 243 64 243 28 l 243 484 q 240 514 243 502 q 217 526 237 526 q 194 514 199 526 q 189 484 189 502 l 189 64 q 187 -6 189 28 q 173 -70 185 -41 q 131 -116 161 -99 q 45 -134 101 -134 q 14 -136 27 -134 q 0 -157 0 -139 q 14 -177 0 -174 q 45 -180 27 -180 m 216 637 q 245 648 233 637 q 257 675 257 659 q 245 704 257 693 q 216 715 233 715 q 188 704 199 715 q 177 675 177 693 q 188 648 177 659 q 216 637 199 637 "},"ȷ":{"ha":328,"x_min":0,"x_max":243,"o":"m 45 -180 q 159 -156 118 -180 q 217 -94 199 -132 q 239 -14 235 -56 q 243 64 243 28 l 243 484 q 240 514 243 502 q 217 526 237 526 q 194 514 199 526 q 189 484 189 502 l 189 64 q 187 -6 189 28 q 173 -70 185 -41 q 131 -116 161 -99 q 45 -134 101 -134 q 14 -136 27 -134 q 0 -157 0 -139 q 14 -177 0 -174 q 45 -180 27 -180 "},"ĵ":{"ha":328,"x_min":0,"x_max":352,"o":"m 45 -180 q 159 -156 118 -180 q 217 -94 199 -132 q 239 -14 235 -56 q 243 64 243 28 l 243 484 q 240 514 243 502 q 217 526 237 526 q 194 514 199 526 q 189 484 189 502 l 189 64 q 187 -6 189 28 q 173 -70 185 -41 q 131 -116 161 -99 q 45 -134 101 -134 q 14 -136 27 -134 q 0 -157 0 -139 q 14 -177 0 -174 q 45 -180 27 -180 m 108 616 q 144 644 130 616 l 217 785 l 289 644 q 326 616 303 616 q 345 624 337 616 q 345 644 352 632 l 253 796 q 217 822 237 822 q 181 796 197 822 l 89 644 q 89 624 81 632 q 108 616 96 616 "},"k":{"ha":677,"x_min":109,"x_max":622,"o":"m 136 0 q 154 7 145 0 q 163 30 163 14 l 163 234 l 266 292 l 577 11 q 600 0 589 0 q 622 20 622 0 q 613 40 622 32 l 307 313 l 605 490 q 616 506 616 497 q 611 520 616 513 q 596 527 605 527 q 587 525 591 527 l 163 278 l 163 726 q 155 746 163 739 q 137 753 146 753 q 118 746 128 753 q 109 726 109 739 l 109 30 q 118 7 109 14 q 136 0 127 0 "},"ķ":{"ha":677,"x_min":109,"x_max":622,"o":"m 136 0 q 154 7 145 0 q 163 30 163 14 l 163 234 l 266 292 l 577 11 q 600 0 589 0 q 622 20 622 0 q 613 40 622 32 l 307 313 l 605 490 q 616 506 616 497 q 611 520 616 513 q 596 527 605 527 q 587 525 591 527 l 163 278 l 163 726 q 155 746 163 739 q 137 753 146 753 q 118 746 128 753 q 109 726 109 739 l 109 30 q 118 7 109 14 q 136 0 127 0 m 317 -240 q 387 -205 361 -240 q 413 -135 413 -170 q 398 -97 413 -109 q 367 -85 382 -85 q 334 -95 348 -85 q 319 -125 319 -105 q 330 -155 319 -145 q 347 -168 340 -165 q 355 -180 355 -172 q 315 -216 355 -214 q 300 -227 300 -216 q 317 -240 300 -240 "},"ĸ":{"ha":625,"x_min":68,"x_max":602,"o":"m 95 0 q 113 7 104 0 q 122 30 122 14 l 122 216 l 273 301 l 555 12 q 578 1 566 1 q 600 22 600 1 q 591 41 600 33 l 315 321 l 591 488 q 602 504 602 493 q 597 519 602 512 q 583 526 591 526 q 574 524 578 526 l 122 261 l 122 500 q 114 520 122 513 q 96 527 106 527 q 78 520 87 527 q 68 500 68 513 l 68 30 q 77 7 68 14 q 95 0 86 0 "},"l":{"ha":271,"x_min":109,"x_max":163,"o":"m 136 0 q 158 14 153 0 q 163 47 163 28 l 163 708 q 159 741 163 726 q 138 755 155 755 q 113 741 117 755 q 109 707 109 726 l 109 46 q 113 14 109 28 q 136 0 117 0 "},"ĺ":{"ha":271,"x_min":71,"x_max":301,"o":"m 136 0 q 158 14 153 0 q 163 47 163 28 l 163 708 q 159 741 163 726 q 138 755 155 755 q 113 741 117 755 q 109 707 109 726 l 109 46 q 113 14 109 28 q 136 0 117 0 m 90 831 q 100 834 95 831 l 291 997 q 301 1016 301 1005 q 290 1043 301 1031 q 264 1055 279 1055 q 248 1048 255 1055 l 77 861 q 71 848 71 855 q 90 831 71 831 "},"ľ":{"ha":271,"x_min":109,"x_max":387,"o":"m 136 0 q 158 14 153 0 q 163 47 163 28 l 163 708 q 159 741 163 726 q 138 755 155 755 q 113 741 117 755 q 109 707 109 726 l 109 46 q 113 14 109 28 q 136 0 117 0 m 291 601 q 361 636 335 601 q 387 706 387 671 q 372 744 387 732 q 341 756 357 756 q 308 746 322 756 q 294 716 294 736 q 304 686 294 696 q 321 673 314 676 q 329 661 329 669 q 289 625 329 627 q 275 614 275 625 q 291 601 275 601 "},"ļ":{"ha":271,"x_min":69,"x_max":182,"o":"m 136 0 q 158 14 153 0 q 163 47 163 28 l 163 708 q 159 741 163 726 q 138 755 155 755 q 113 741 117 755 q 109 707 109 726 l 109 46 q 113 14 109 28 q 136 0 117 0 m 85 -240 q 156 -205 130 -240 q 182 -135 182 -170 q 166 -97 182 -109 q 136 -85 151 -85 q 102 -95 117 -85 q 88 -125 88 -105 q 98 -155 88 -145 q 115 -168 109 -165 q 123 -180 123 -172 q 83 -216 123 -214 q 69 -227 69 -216 q 85 -240 69 -240 "},"ŀ":{"ha":439,"x_min":109,"x_max":406,"o":"m 136 0 q 158 14 153 0 q 163 47 163 28 l 163 708 q 159 741 163 726 q 138 755 155 755 q 113 741 117 755 q 109 707 109 726 l 109 46 q 113 14 109 28 q 136 0 117 0 m 361 298 q 392 310 379 298 q 406 340 406 321 q 392 372 406 360 q 361 385 379 385 q 329 372 341 385 q 317 340 317 360 q 329 310 317 321 q 361 298 341 298 "},"ǉ":{"ha":598,"x_min":109,"x_max":528,"o":"m 136 0 q 158 14 153 0 q 163 47 163 28 l 163 708 q 159 741 163 726 q 138 755 155 755 q 113 741 117 755 q 109 707 109 726 l 109 46 q 113 14 109 28 q 136 0 117 0 m 315 -180 q 429 -156 389 -180 q 488 -94 470 -132 q 510 -14 506 -56 q 514 64 514 28 l 514 484 q 511 514 514 502 q 488 526 507 526 q 465 514 470 526 q 460 484 460 502 l 460 64 q 458 -6 460 28 q 444 -70 456 -41 q 401 -116 431 -99 q 315 -134 372 -134 q 284 -136 298 -134 q 271 -157 271 -139 q 284 -177 271 -174 q 315 -180 298 -180 m 487 637 q 516 648 504 637 q 528 675 528 659 q 516 704 528 693 q 487 715 504 715 q 458 704 469 715 q 448 675 448 693 q 458 648 448 659 q 487 637 469 637 "},"ł":{"ha":352,"x_min":-6,"x_max":372,"o":"m 177 1 q 198 15 195 1 q 201 49 201 29 l 201 415 l 372 490 l 358 533 l 201 467 l 201 708 q 198 742 201 728 q 177 755 195 755 q 155 742 158 755 q 153 708 153 729 l 153 446 l -6 375 l 7 332 l 153 396 l 153 87 q 152 64 153 76 q 151 43 151 53 q 156 13 151 24 q 177 1 161 1 "},"m":{"ha":1105,"x_min":108,"x_max":1006,"o":"m 138 0 q 154 6 146 0 q 162 35 162 12 l 162 358 q 246 453 178 413 q 409 493 313 493 q 502 458 473 493 q 530 361 530 422 l 530 35 q 540 5 530 9 q 559 0 549 0 q 576 6 567 0 q 585 35 585 12 l 585 361 q 680 458 623 422 q 824 493 737 493 q 920 459 888 493 q 951 332 951 426 l 951 35 q 960 5 951 9 q 979 0 969 0 q 997 6 987 0 q 1006 35 1006 12 l 1006 332 q 961 485 1006 437 q 823 533 916 533 q 704 513 753 533 q 623 464 654 493 q 575 406 591 435 q 558 457 571 427 q 511 510 545 487 q 408 533 477 533 q 251 499 319 533 q 161 403 183 465 l 161 486 q 154 514 161 508 q 136 519 147 519 q 117 514 127 519 q 108 486 108 508 l 108 35 q 118 5 108 9 q 138 0 129 0 "},"n":{"ha":808,"x_min":108,"x_max":709,"o":"m 137 0 q 158 16 154 0 q 162 49 162 31 l 162 355 q 227 439 178 409 q 335 481 275 469 q 448 493 395 493 q 579 470 534 493 q 639 400 623 447 q 654 283 654 354 l 654 49 q 658 16 654 31 q 681 0 661 0 q 703 16 697 0 q 709 49 709 31 l 709 283 q 684 432 709 378 q 603 510 660 486 q 450 533 547 533 q 351 525 404 533 q 250 492 299 517 q 162 414 200 467 l 162 488 q 158 510 162 501 q 136 519 153 519 q 113 510 117 519 q 108 488 108 500 l 108 49 q 113 16 108 31 q 137 0 118 0 "},"ń":{"ha":808,"x_min":108,"x_max":709,"o":"m 137 0 q 158 16 154 0 q 162 49 162 31 l 162 355 q 227 439 178 409 q 335 481 275 469 q 448 493 395 493 q 579 470 534 493 q 639 400 623 447 q 654 283 654 354 l 654 49 q 658 16 654 31 q 681 0 661 0 q 703 16 697 0 q 709 49 709 31 l 709 283 q 684 432 709 378 q 603 510 660 486 q 450 533 547 533 q 351 525 404 533 q 250 492 299 517 q 162 414 200 467 l 162 488 q 158 510 162 501 q 136 519 153 519 q 113 510 117 519 q 108 488 108 500 l 108 49 q 113 16 108 31 q 137 0 118 0 m 351 615 q 361 618 357 615 l 553 781 q 563 800 563 789 q 552 827 563 815 q 526 840 541 840 q 509 832 517 840 l 338 645 q 333 633 333 640 q 351 615 333 615 "},"ň":{"ha":808,"x_min":108,"x_max":709,"o":"m 137 0 q 158 16 154 0 q 162 49 162 31 l 162 355 q 227 439 178 409 q 335 481 275 469 q 448 493 395 493 q 579 470 534 493 q 639 400 623 447 q 654 283 654 354 l 654 49 q 658 16 654 31 q 681 0 661 0 q 703 16 697 0 q 709 49 709 31 l 709 283 q 684 432 709 378 q 603 510 660 486 q 450 533 547 533 q 351 525 404 533 q 250 492 299 517 q 162 414 200 467 l 162 488 q 158 510 162 501 q 136 519 153 519 q 113 510 117 519 q 108 488 108 500 l 108 49 q 113 16 108 31 q 137 0 118 0 m 404 616 q 440 642 423 616 l 532 793 q 532 814 539 806 q 513 822 524 822 q 476 794 490 822 l 404 653 l 332 794 q 295 822 317 822 q 276 814 283 822 q 276 793 269 806 l 368 642 q 404 616 385 616 "},"ņ":{"ha":808,"x_min":108,"x_max":709,"o":"m 137 0 q 158 16 154 0 q 162 49 162 31 l 162 355 q 227 439 178 409 q 335 481 275 469 q 448 493 395 493 q 579 470 534 493 q 639 400 623 447 q 654 283 654 354 l 654 49 q 658 16 654 31 q 681 0 661 0 q 703 16 697 0 q 709 49 709 31 l 709 283 q 684 432 709 378 q 603 510 660 486 q 450 533 547 533 q 351 525 404 533 q 250 492 299 517 q 162 414 200 467 l 162 488 q 158 510 162 501 q 136 519 153 519 q 113 510 117 519 q 108 488 108 500 l 108 49 q 113 16 108 31 q 137 0 118 0 m 354 -240 q 424 -205 398 -240 q 450 -135 450 -170 q 435 -97 450 -109 q 404 -85 420 -85 q 371 -95 385 -85 q 357 -125 357 -105 q 367 -155 357 -145 q 384 -168 377 -165 q 392 -180 392 -172 q 352 -216 392 -214 q 338 -227 338 -216 q 354 -240 338 -240 "},"ǌ":{"ha":1136,"x_min":108,"x_max":1065,"o":"m 137 0 q 158 16 154 0 q 162 49 162 31 l 162 355 q 227 439 178 409 q 335 481 275 469 q 448 493 395 493 q 579 470 534 493 q 639 400 623 447 q 654 283 654 354 l 654 49 q 658 16 654 31 q 681 0 661 0 q 703 16 697 0 q 709 49 709 31 l 709 283 q 684 432 709 378 q 603 510 660 486 q 450 533 547 533 q 351 525 404 533 q 250 492 299 517 q 162 414 200 467 l 162 488 q 158 510 162 501 q 136 519 153 519 q 113 510 117 519 q 108 488 108 500 l 108 49 q 113 16 108 31 q 137 0 118 0 m 853 -180 q 967 -156 926 -180 q 1026 -94 1008 -132 q 1048 -14 1044 -56 q 1052 64 1052 28 l 1052 484 q 1048 514 1052 502 q 1025 526 1045 526 q 1003 514 1008 526 q 998 484 998 502 l 998 64 q 996 -6 998 28 q 981 -70 994 -41 q 939 -116 969 -99 q 853 -134 909 -134 q 822 -136 836 -134 q 808 -157 808 -139 q 822 -177 808 -174 q 853 -180 836 -180 m 1025 637 q 1054 648 1042 637 q 1065 675 1065 659 q 1054 704 1065 693 q 1025 715 1042 715 q 996 704 1007 715 q 985 675 985 693 q 996 648 985 659 q 1025 637 1007 637 "},"ñ":{"ha":808,"x_min":108,"x_max":709,"o":"m 137 0 q 158 16 154 0 q 162 49 162 31 l 162 355 q 227 439 178 409 q 335 481 275 469 q 448 493 395 493 q 579 470 534 493 q 639 400 623 447 q 654 283 654 354 l 654 49 q 658 16 654 31 q 681 0 661 0 q 703 16 697 0 q 709 49 709 31 l 709 283 q 684 432 709 378 q 603 510 660 486 q 450 533 547 533 q 351 525 404 533 q 250 492 299 517 q 162 414 200 467 l 162 488 q 158 510 162 501 q 136 519 153 519 q 113 510 117 519 q 108 488 108 500 l 108 49 q 113 16 108 31 q 137 0 118 0 m 271 616 q 286 625 282 616 q 290 646 290 634 q 297 671 290 665 q 315 676 304 676 q 365 661 332 676 q 433 631 397 646 q 493 616 468 616 q 545 635 530 616 q 560 684 560 655 q 556 706 560 696 q 537 715 552 715 q 522 706 526 715 q 517 685 517 697 q 510 661 517 666 q 493 655 503 655 q 438 670 465 655 q 382 701 412 686 q 315 715 352 715 q 262 696 277 715 q 248 647 248 676 q 252 626 248 636 q 271 616 256 616 "},"ŋ":{"ha":779,"x_min":108,"x_max":709,"o":"m 137 0 q 158 16 154 0 q 162 49 162 31 l 162 355 q 227 439 178 409 q 335 481 275 469 q 448 493 395 493 q 579 470 534 493 q 639 400 623 447 q 654 283 654 354 l 654 42 q 647 -42 654 -1 q 610 -108 640 -82 q 510 -134 579 -134 q 479 -136 492 -134 q 465 -157 465 -139 q 479 -177 465 -174 q 510 -180 492 -180 q 618 -159 578 -180 q 678 -104 659 -138 q 703 -31 697 -70 q 709 43 709 8 l 709 283 q 684 432 709 378 q 603 510 660 486 q 450 533 547 533 q 351 525 404 533 q 250 492 299 517 q 162 414 200 467 l 162 488 q 158 510 162 501 q 136 519 153 519 q 113 510 117 519 q 108 488 108 500 l 108 49 q 113 16 108 31 q 137 0 118 0 "},"o":{"ha":841,"x_min":83,"x_max":758,"o":"m 420 -7 q 619 26 545 -7 q 725 118 693 58 q 758 261 758 178 q 676 469 758 405 q 420 533 594 533 q 165 469 247 533 q 83 261 83 405 q 116 118 83 178 q 222 26 148 58 q 420 -7 296 -7 m 420 33 q 272 53 328 33 q 187 106 216 73 q 148 179 158 139 q 138 261 138 220 q 205 440 138 387 q 420 493 272 493 q 636 440 569 493 q 703 261 703 387 q 693 179 703 220 q 654 106 683 139 q 569 53 625 73 q 420 33 513 33 "},"ó":{"ha":841,"x_min":83,"x_max":758,"o":"m 420 -7 q 619 26 545 -7 q 725 118 693 58 q 758 261 758 178 q 676 469 758 405 q 420 533 594 533 q 165 469 247 533 q 83 261 83 405 q 116 118 83 178 q 222 26 148 58 q 420 -7 296 -7 m 420 33 q 272 53 328 33 q 187 106 216 73 q 148 179 158 139 q 138 261 138 220 q 205 440 138 387 q 420 493 272 493 q 636 440 569 493 q 703 261 703 387 q 693 179 703 220 q 654 106 683 139 q 569 53 625 73 q 420 33 513 33 m 368 615 q 378 618 373 615 l 569 781 q 579 800 579 789 q 568 827 579 815 q 543 840 557 840 q 526 832 533 840 l 355 645 q 349 633 349 640 q 368 615 349 615 "},"ŏ":{"ha":841,"x_min":83,"x_max":758,"o":"m 420 -7 q 619 26 545 -7 q 725 118 693 58 q 758 261 758 178 q 676 469 758 405 q 420 533 594 533 q 165 469 247 533 q 83 261 83 405 q 116 118 83 178 q 222 26 148 58 q 420 -7 296 -7 m 420 33 q 272 53 328 33 q 187 106 216 73 q 148 179 158 139 q 138 261 138 220 q 205 440 138 387 q 420 493 272 493 q 636 440 569 493 q 703 261 703 387 q 693 179 703 220 q 654 106 683 139 q 569 53 625 73 q 420 33 513 33 m 420 616 q 498 635 469 616 q 540 684 527 655 q 553 739 553 712 q 548 761 553 751 q 528 770 544 770 q 509 761 513 770 q 505 739 505 752 q 487 681 505 708 q 420 654 469 654 q 354 681 372 654 q 336 739 336 708 q 332 761 336 752 q 313 770 328 770 q 293 761 297 770 q 288 739 288 751 q 301 684 288 712 q 343 635 314 655 q 420 616 372 616 "},"ô":{"ha":841,"x_min":83,"x_max":758,"o":"m 420 -7 q 619 26 545 -7 q 725 118 693 58 q 758 261 758 178 q 676 469 758 405 q 420 533 594 533 q 165 469 247 533 q 83 261 83 405 q 116 118 83 178 q 222 26 148 58 q 420 -7 296 -7 m 420 33 q 272 53 328 33 q 187 106 216 73 q 148 179 158 139 q 138 261 138 220 q 205 440 138 387 q 420 493 272 493 q 636 440 569 493 q 703 261 703 387 q 693 179 703 220 q 654 106 683 139 q 569 53 625 73 q 420 33 513 33 m 311 616 q 348 644 333 616 l 420 785 l 492 644 q 529 616 507 616 q 548 624 541 616 q 548 644 555 632 l 456 796 q 420 822 440 822 q 385 796 401 822 l 292 644 q 292 624 285 632 q 311 616 300 616 "},"ȍ":{"ha":841,"x_min":83,"x_max":758,"o":"m 420 -7 q 619 26 545 -7 q 725 118 693 58 q 758 261 758 178 q 676 469 758 405 q 420 533 594 533 q 165 469 247 533 q 83 261 83 405 q 116 118 83 178 q 222 26 148 58 q 420 -7 296 -7 m 420 33 q 272 53 328 33 q 187 106 216 73 q 148 179 158 139 q 138 261 138 220 q 205 440 138 387 q 420 493 272 493 q 636 440 569 493 q 703 261 703 387 q 693 179 703 220 q 654 106 683 139 q 569 53 625 73 q 420 33 513 33 m 509 616 q 528 633 528 616 q 522 646 528 640 l 345 826 q 328 833 337 833 q 307 823 315 833 q 298 801 298 813 q 308 782 298 790 l 499 619 q 509 616 504 616 m 355 616 q 373 633 373 616 q 368 646 373 640 l 190 826 q 173 833 182 833 q 152 823 161 833 q 143 801 143 813 q 153 782 143 790 l 345 619 q 355 616 349 616 "},"ö":{"ha":841,"x_min":83,"x_max":758,"o":"m 420 -7 q 619 26 545 -7 q 725 118 693 58 q 758 261 758 178 q 676 469 758 405 q 420 533 594 533 q 165 469 247 533 q 83 261 83 405 q 116 118 83 178 q 222 26 148 58 q 420 -7 296 -7 m 420 33 q 272 53 328 33 q 187 106 216 73 q 148 179 158 139 q 138 261 138 220 q 205 440 138 387 q 420 493 272 493 q 636 440 569 493 q 703 261 703 387 q 693 179 703 220 q 654 106 683 139 q 569 53 625 73 q 420 33 513 33 m 555 637 q 584 648 572 637 q 595 675 595 659 q 584 704 595 693 q 555 715 572 715 q 526 704 537 715 q 515 675 515 693 q 526 648 515 659 q 555 637 537 637 m 284 637 q 313 648 301 637 q 325 675 325 659 q 313 704 325 693 q 284 715 301 715 q 256 704 267 715 q 245 675 245 693 q 256 648 245 659 q 284 637 267 637 "},"ò":{"ha":841,"x_min":83,"x_max":758,"o":"m 420 -7 q 619 26 545 -7 q 725 118 693 58 q 758 261 758 178 q 676 469 758 405 q 420 533 594 533 q 165 469 247 533 q 83 261 83 405 q 116 118 83 178 q 222 26 148 58 q 420 -7 296 -7 m 420 33 q 272 53 328 33 q 187 106 216 73 q 148 179 158 139 q 138 261 138 220 q 205 440 138 387 q 420 493 272 493 q 636 440 569 493 q 703 261 703 387 q 693 179 703 220 q 654 106 683 139 q 569 53 625 73 q 420 33 513 33 m 473 616 q 492 634 492 616 q 486 646 492 641 l 315 833 q 298 841 308 841 q 273 829 283 841 q 262 802 262 817 q 272 783 262 791 l 463 620 q 473 616 468 616 "},"ő":{"ha":841,"x_min":83,"x_max":758,"o":"m 420 -7 q 619 26 545 -7 q 725 118 693 58 q 758 261 758 178 q 676 469 758 405 q 420 533 594 533 q 165 469 247 533 q 83 261 83 405 q 116 118 83 178 q 222 26 148 58 q 420 -7 296 -7 m 420 33 q 272 53 328 33 q 187 106 216 73 q 148 179 158 139 q 138 261 138 220 q 205 440 138 387 q 420 493 272 493 q 636 440 569 493 q 703 261 703 387 q 693 179 703 220 q 654 106 683 139 q 569 53 625 73 q 420 33 513 33 m 492 614 q 503 618 498 614 l 701 779 q 711 798 711 787 q 699 821 711 810 q 675 832 688 832 q 659 825 666 832 l 479 644 q 474 632 474 639 q 492 614 474 614 m 338 614 q 348 618 343 614 l 546 779 q 556 798 556 787 q 545 821 556 810 q 521 832 533 832 q 504 825 511 832 l 325 644 q 319 632 319 639 q 338 614 319 614 "},"ȏ":{"ha":841,"x_min":83,"x_max":758,"o":"m 420 -7 q 619 26 545 -7 q 725 118 693 58 q 758 261 758 178 q 676 469 758 405 q 420 533 594 533 q 165 469 247 533 q 83 261 83 405 q 116 118 83 178 q 222 26 148 58 q 420 -7 296 -7 m 420 33 q 272 53 328 33 q 187 106 216 73 q 148 179 158 139 q 138 261 138 220 q 205 440 138 387 q 420 493 272 493 q 636 440 569 493 q 703 261 703 387 q 693 179 703 220 q 654 106 683 139 q 569 53 625 73 q 420 33 513 33 m 313 616 q 330 625 326 616 q 334 647 334 634 q 353 707 334 678 q 420 735 372 735 q 488 707 469 735 q 507 647 507 678 q 511 625 507 634 q 528 616 515 616 q 547 626 543 616 q 551 647 551 636 q 538 703 551 674 q 498 751 526 731 q 420 770 469 770 q 343 751 372 770 q 302 703 315 731 q 290 647 290 674 q 294 626 290 636 q 313 616 298 616 "},"ō":{"ha":841,"x_min":83,"x_max":758,"o":"m 420 -7 q 619 26 545 -7 q 725 118 693 58 q 758 261 758 178 q 676 469 758 405 q 420 533 594 533 q 165 469 247 533 q 83 261 83 405 q 116 118 83 178 q 222 26 148 58 q 420 -7 296 -7 m 420 33 q 272 53 328 33 q 187 106 216 73 q 148 179 158 139 q 138 261 138 220 q 205 440 138 387 q 420 493 272 493 q 636 440 569 493 q 703 261 703 387 q 693 179 703 220 q 654 106 683 139 q 569 53 625 73 q 420 33 513 33 m 304 627 l 536 627 q 553 635 549 627 q 558 648 558 643 q 553 663 558 654 q 536 671 549 671 l 304 671 q 288 663 292 671 q 283 648 283 654 q 288 635 283 643 q 304 627 292 627 "},"ø":{"ha":841,"x_min":83,"x_max":758,"o":"m 278 -158 q 296 -146 290 -158 q 309 -119 301 -135 l 352 -4 q 385 -6 368 -5 q 420 -7 402 -7 q 619 26 545 -7 q 725 118 693 58 q 758 261 758 178 q 707 438 758 374 q 550 522 656 501 l 588 623 q 593 637 591 630 q 595 652 595 645 q 591 668 595 661 q 572 675 587 675 q 550 664 557 675 q 539 636 544 652 l 499 530 q 461 532 481 532 q 420 533 441 533 q 165 469 247 533 q 83 261 83 405 q 133 92 83 159 q 302 3 182 24 l 261 -105 q 255 -120 258 -113 q 253 -134 252 -126 q 258 -150 253 -141 q 278 -158 263 -158 m 316 42 q 201 91 239 57 q 150 170 163 125 q 138 261 138 215 q 205 440 138 387 q 420 493 272 493 q 454 492 438 493 q 484 490 469 492 l 316 42 m 420 33 q 367 35 393 33 l 536 484 q 663 413 623 466 q 703 261 703 359 q 693 179 703 220 q 654 106 683 139 q 569 53 625 73 q 420 33 513 33 "},"õ":{"ha":841,"x_min":83,"x_max":758,"o":"m 420 -7 q 619 26 545 -7 q 725 118 693 58 q 758 261 758 178 q 676 469 758 405 q 420 533 594 533 q 165 469 247 533 q 83 261 83 405 q 116 118 83 178 q 222 26 148 58 q 420 -7 296 -7 m 420 33 q 272 53 328 33 q 187 106 216 73 q 148 179 158 139 q 138 261 138 220 q 205 440 138 387 q 420 493 272 493 q 636 440 569 493 q 703 261 703 387 q 693 179 703 220 q 654 106 683 139 q 569 53 625 73 q 420 33 513 33 m 287 616 q 302 625 298 616 q 307 646 307 634 q 314 671 307 665 q 331 676 321 676 q 381 661 349 676 q 449 631 414 646 q 509 616 484 616 q 562 635 547 616 q 576 684 576 655 q 572 706 576 696 q 553 715 568 715 q 538 706 542 715 q 534 685 534 697 q 527 661 534 666 q 509 655 519 655 q 455 670 481 655 q 398 701 428 686 q 331 715 368 715 q 279 696 294 715 q 264 647 264 676 q 268 626 264 636 q 287 616 272 616 "},"œ":{"ha":1234,"x_min":83,"x_max":1194,"o":"m 416 -7 q 567 12 511 -7 q 655 65 623 30 q 915 -7 734 -7 q 1039 5 975 -7 q 1162 47 1103 17 q 1176 68 1176 55 q 1157 86 1176 86 q 1143 83 1151 86 q 1084 60 1121 72 q 1002 41 1046 49 q 914 33 958 33 q 765 54 826 33 q 675 93 703 74 l 675 257 l 1164 257 q 1184 282 1175 257 q 1194 325 1194 307 q 1124 479 1194 425 q 913 533 1054 533 q 764 517 831 533 q 655 462 698 501 q 564 516 621 498 q 416 533 507 533 q 163 469 243 533 q 83 261 83 405 q 115 118 83 178 q 219 26 146 58 q 416 -7 292 -7 m 416 33 q 269 53 324 33 q 184 106 213 73 q 147 179 156 139 q 138 261 138 220 q 203 440 138 387 q 416 493 269 493 q 568 475 519 493 q 634 440 616 456 l 634 93 q 602 67 625 81 q 534 43 578 53 q 416 33 490 33 m 675 292 l 675 439 q 761 474 703 456 q 913 493 819 493 q 1055 471 1002 493 q 1131 411 1108 448 q 1154 329 1154 374 q 1154 318 1154 325 q 1152 307 1153 312 l 1149 292 l 675 292 "},"p":{"ha":851,"x_min":108,"x_max":768,"o":"m 134 -229 q 157 -214 154 -229 q 161 -181 161 -199 l 161 66 q 282 17 207 41 q 467 -7 357 -7 q 689 55 611 -7 q 768 269 768 117 q 726 428 768 371 q 617 509 685 486 q 467 533 549 533 q 384 528 432 533 q 290 508 336 522 q 207 467 243 494 q 159 397 171 440 l 159 486 q 152 514 159 508 q 134 519 145 519 q 116 514 124 519 q 108 486 108 508 l 108 -177 q 111 -213 108 -197 q 134 -229 115 -229 m 467 33 q 297 53 373 33 q 162 95 220 73 l 162 355 q 208 425 174 398 q 286 466 241 451 q 379 487 331 481 q 467 493 427 492 q 591 473 536 493 q 680 403 647 452 q 713 269 713 354 q 655 89 713 145 q 467 33 597 33 "},"þ":{"ha":811,"x_min":68,"x_max":728,"o":"m 94 -229 q 117 -214 114 -229 q 121 -181 121 -199 l 121 53 q 253 13 175 32 q 427 -7 331 -7 q 649 56 571 -7 q 728 269 728 119 q 686 425 728 368 q 577 508 645 483 q 427 533 509 533 q 345 529 393 533 q 249 511 297 524 q 166 472 201 498 q 119 403 130 446 l 119 720 q 112 747 119 741 q 93 753 104 753 q 76 747 83 753 q 68 720 68 741 l 68 -177 q 71 -213 68 -197 q 94 -229 75 -229 m 427 33 q 257 53 333 33 q 122 95 180 73 l 122 355 q 168 425 134 398 q 246 466 201 451 q 339 487 291 481 q 427 493 387 492 q 551 473 496 493 q 640 403 607 452 q 673 269 673 354 q 615 89 673 145 q 427 33 557 33 "},"q":{"ha":812,"x_min":83,"x_max":743,"o":"m 715 -229 q 739 -216 735 -229 q 743 -182 743 -202 l 743 483 q 735 512 743 505 q 718 519 728 519 q 698 513 707 519 q 689 484 689 506 l 689 397 q 642 467 677 440 q 560 508 606 494 q 467 528 513 522 q 384 533 420 533 q 234 509 302 533 q 125 428 166 486 q 83 269 83 371 q 162 55 83 117 q 384 -7 240 -7 q 540 7 479 -7 q 636 41 601 21 q 689 79 672 62 l 689 -181 q 692 -214 689 -199 q 715 -229 696 -229 m 384 33 q 196 89 254 33 q 138 269 138 145 q 171 403 138 354 q 260 473 204 452 q 384 493 316 493 q 472 487 425 492 q 565 466 520 481 q 643 425 610 451 q 689 355 677 398 l 689 111 q 631 76 668 94 q 534 45 594 58 q 384 33 475 33 "},"r":{"ha":549,"x_min":107,"x_max":522,"o":"m 135 0 q 157 15 152 0 q 161 47 161 30 l 161 359 q 245 458 183 427 q 387 490 307 490 q 439 486 415 490 q 490 474 464 481 q 495 473 494 473 q 498 473 496 473 q 516 480 510 473 q 522 496 522 488 q 507 517 522 513 q 464 528 488 522 q 387 533 439 533 q 304 524 352 533 q 217 486 257 514 q 161 403 176 458 l 161 481 q 157 509 161 498 q 138 519 153 519 q 113 508 119 519 q 107 481 107 497 l 107 47 q 112 15 107 30 q 135 0 116 0 "},"ŕ":{"ha":549,"x_min":107,"x_max":522,"o":"m 135 0 q 157 15 152 0 q 161 47 161 30 l 161 359 q 245 458 183 427 q 387 490 307 490 q 439 486 415 490 q 490 474 464 481 q 495 473 494 473 q 498 473 496 473 q 516 480 510 473 q 522 496 522 488 q 507 517 522 513 q 464 528 488 522 q 387 533 439 533 q 304 524 352 533 q 217 486 257 514 q 161 403 176 458 l 161 481 q 157 509 161 498 q 138 519 153 519 q 113 508 119 519 q 107 481 107 497 l 107 47 q 112 15 107 30 q 135 0 116 0 m 262 615 q 273 618 268 615 l 464 781 q 474 800 474 789 q 463 827 474 815 q 437 840 452 840 q 420 832 428 840 l 250 645 q 244 633 244 640 q 262 615 244 615 "},"ř":{"ha":549,"x_min":107,"x_max":522,"o":"m 135 0 q 157 15 152 0 q 161 47 161 30 l 161 359 q 245 458 183 427 q 387 490 307 490 q 439 486 415 490 q 490 474 464 481 q 495 473 494 473 q 498 473 496 473 q 516 480 510 473 q 522 496 522 488 q 507 517 522 513 q 464 528 488 522 q 387 533 439 533 q 304 524 352 533 q 217 486 257 514 q 161 403 176 458 l 161 481 q 157 509 161 498 q 138 519 153 519 q 113 508 119 519 q 107 481 107 497 l 107 47 q 112 15 107 30 q 135 0 116 0 m 315 616 q 351 642 334 616 l 443 793 q 443 814 450 806 q 424 822 435 822 q 387 794 401 822 l 315 653 l 243 794 q 206 822 228 822 q 187 814 195 822 q 187 793 180 806 l 279 642 q 315 616 296 616 "},"ŗ":{"ha":549,"x_min":68,"x_max":522,"o":"m 135 0 q 157 15 152 0 q 161 47 161 30 l 161 359 q 245 458 183 427 q 387 490 307 490 q 439 486 415 490 q 490 474 464 481 q 495 473 494 473 q 498 473 496 473 q 516 480 510 473 q 522 496 522 488 q 507 517 522 513 q 464 528 488 522 q 387 533 439 533 q 304 524 352 533 q 217 486 257 514 q 161 403 176 458 l 161 481 q 157 509 161 498 q 138 519 153 519 q 113 508 119 519 q 107 481 107 497 l 107 47 q 112 15 107 30 q 135 0 116 0 m 85 -240 q 155 -205 129 -240 q 181 -135 181 -170 q 166 -97 181 -109 q 135 -85 151 -85 q 102 -95 116 -85 q 87 -125 87 -105 q 98 -155 87 -145 q 115 -168 108 -165 q 123 -180 123 -172 q 83 -216 123 -214 q 68 -227 68 -216 q 85 -240 68 -240 "},"ȑ":{"ha":549,"x_min":38,"x_max":522,"o":"m 135 0 q 157 15 152 0 q 161 47 161 30 l 161 359 q 245 458 183 427 q 387 490 307 490 q 439 486 415 490 q 490 474 464 481 q 495 473 494 473 q 498 473 496 473 q 516 480 510 473 q 522 496 522 488 q 507 517 522 513 q 464 528 488 522 q 387 533 439 533 q 304 524 352 533 q 217 486 257 514 q 161 403 176 458 l 161 481 q 157 509 161 498 q 138 519 153 519 q 113 508 119 519 q 107 481 107 497 l 107 47 q 112 15 107 30 q 135 0 116 0 m 404 616 q 422 633 422 616 q 417 646 422 640 l 239 826 q 222 833 232 833 q 201 823 210 833 q 193 801 193 813 q 203 782 193 790 l 394 619 q 404 616 399 616 m 250 616 q 268 633 268 616 q 262 646 268 640 l 85 826 q 68 833 77 833 q 47 823 56 833 q 38 801 38 813 q 48 782 38 790 l 239 619 q 250 616 244 616 "},"ȓ":{"ha":549,"x_min":107,"x_max":522,"o":"m 135 0 q 157 15 152 0 q 161 47 161 30 l 161 359 q 245 458 183 427 q 387 490 307 490 q 439 486 415 490 q 490 474 464 481 q 495 473 494 473 q 498 473 496 473 q 516 480 510 473 q 522 496 522 488 q 507 517 522 513 q 464 528 488 522 q 387 533 439 533 q 304 524 352 533 q 217 486 257 514 q 161 403 176 458 l 161 481 q 157 509 161 498 q 138 519 153 519 q 113 508 119 519 q 107 481 107 497 l 107 47 q 112 15 107 30 q 135 0 116 0 m 208 616 q 225 625 221 616 q 229 647 229 634 q 248 707 229 678 q 315 735 267 735 q 383 707 364 735 q 402 647 402 678 q 406 625 402 634 q 422 616 410 616 q 441 626 437 616 q 446 647 446 636 q 433 703 446 674 q 393 751 421 731 q 315 770 364 770 q 238 751 267 770 q 197 703 210 731 q 185 647 185 674 q 189 626 185 636 q 208 616 193 616 "},"s":{"ha":802,"x_min":81,"x_max":727,"o":"m 418 -7 q 569 7 498 -7 q 683 54 640 22 q 727 142 727 86 q 695 223 727 195 q 610 265 663 252 q 494 281 557 278 q 368 286 431 285 q 252 294 304 288 q 167 320 199 301 q 135 378 135 338 q 170 447 135 422 q 259 483 204 472 q 376 493 315 493 q 538 476 465 493 q 670 429 612 458 q 675 428 671 428 q 688 435 682 428 q 693 450 693 441 q 681 469 692 463 q 538 518 616 503 q 373 533 460 533 q 234 520 301 533 q 124 474 167 507 q 81 378 81 440 q 113 298 81 326 q 198 259 145 271 q 314 244 250 247 q 440 240 377 241 q 556 231 503 239 q 641 203 608 224 q 673 142 673 183 q 636 76 673 100 q 539 43 599 52 q 412 33 479 33 q 252 45 326 33 q 121 96 178 56 q 113 98 119 98 q 96 77 96 98 q 105 59 96 66 q 199 15 144 28 q 312 -3 254 1 q 418 -7 370 -7 "},"ś":{"ha":802,"x_min":81,"x_max":727,"o":"m 418 -7 q 569 7 498 -7 q 683 54 640 22 q 727 142 727 86 q 695 223 727 195 q 610 265 663 252 q 494 281 557 278 q 368 286 431 285 q 252 294 304 288 q 167 320 199 301 q 135 378 135 338 q 170 447 135 422 q 259 483 204 472 q 376 493 315 493 q 538 476 465 493 q 670 429 612 458 q 675 428 671 428 q 688 435 682 428 q 693 450 693 441 q 681 469 692 463 q 538 518 616 503 q 373 533 460 533 q 234 520 301 533 q 124 474 167 507 q 81 378 81 440 q 113 298 81 326 q 198 259 145 271 q 314 244 250 247 q 440 240 377 241 q 556 231 503 239 q 641 203 608 224 q 673 142 673 183 q 636 76 673 100 q 539 43 599 52 q 412 33 479 33 q 252 45 326 33 q 121 96 178 56 q 113 98 119 98 q 96 77 96 98 q 105 59 96 66 q 199 15 144 28 q 312 -3 254 1 q 418 -7 370 -7 m 348 615 q 358 618 353 615 l 549 781 q 559 800 559 789 q 549 827 559 815 q 523 840 538 840 q 506 832 513 840 l 335 645 q 330 633 330 640 q 348 615 330 615 "},"š":{"ha":802,"x_min":81,"x_max":727,"o":"m 418 -7 q 569 7 498 -7 q 683 54 640 22 q 727 142 727 86 q 695 223 727 195 q 610 265 663 252 q 494 281 557 278 q 368 286 431 285 q 252 294 304 288 q 167 320 199 301 q 135 378 135 338 q 170 447 135 422 q 259 483 204 472 q 376 493 315 493 q 538 476 465 493 q 670 429 612 458 q 675 428 671 428 q 688 435 682 428 q 693 450 693 441 q 681 469 692 463 q 538 518 616 503 q 373 533 460 533 q 234 520 301 533 q 124 474 167 507 q 81 378 81 440 q 113 298 81 326 q 198 259 145 271 q 314 244 250 247 q 440 240 377 241 q 556 231 503 239 q 641 203 608 224 q 673 142 673 183 q 636 76 673 100 q 539 43 599 52 q 412 33 479 33 q 252 45 326 33 q 121 96 178 56 q 113 98 119 98 q 96 77 96 98 q 105 59 96 66 q 199 15 144 28 q 312 -3 254 1 q 418 -7 370 -7 m 401 616 q 437 642 420 616 l 528 793 q 528 814 536 806 q 509 822 521 822 q 473 794 487 822 l 401 653 l 328 794 q 292 822 313 822 q 273 814 280 822 q 273 793 265 806 l 365 642 q 401 616 381 616 "},"ş":{"ha":802,"x_min":81,"x_max":727,"o":"m 418 -7 q 569 7 498 -7 q 683 54 640 22 q 727 142 727 86 q 695 223 727 195 q 610 265 663 252 q 494 281 557 278 q 368 286 431 285 q 252 294 304 288 q 167 320 199 301 q 135 378 135 338 q 170 447 135 422 q 259 483 204 472 q 376 493 315 493 q 538 476 465 493 q 670 429 612 458 q 675 428 671 428 q 688 435 682 428 q 693 450 693 441 q 681 469 692 463 q 538 518 616 503 q 373 533 460 533 q 234 520 301 533 q 124 474 167 507 q 81 378 81 440 q 113 298 81 326 q 198 259 145 271 q 314 244 250 247 q 440 240 377 241 q 556 231 503 239 q 641 203 608 224 q 673 142 673 183 q 636 76 673 100 q 539 43 599 52 q 412 33 479 33 q 252 45 326 33 q 121 96 178 56 q 113 98 119 98 q 96 77 96 98 q 105 59 96 66 q 199 15 144 28 q 312 -3 254 1 q 418 -7 370 -7 m 280 -220 q 295 -215 288 -220 q 310 -196 302 -210 l 416 -5 q 419 5 419 -1 q 407 20 419 20 q 389 7 398 20 l 260 -178 q 254 -196 254 -188 q 261 -213 254 -205 q 280 -220 269 -220 "},"ŝ":{"ha":802,"x_min":81,"x_max":727,"o":"m 418 -7 q 569 7 498 -7 q 683 54 640 22 q 727 142 727 86 q 695 223 727 195 q 610 265 663 252 q 494 281 557 278 q 368 286 431 285 q 252 294 304 288 q 167 320 199 301 q 135 378 135 338 q 170 447 135 422 q 259 483 204 472 q 376 493 315 493 q 538 476 465 493 q 670 429 612 458 q 675 428 671 428 q 688 435 682 428 q 693 450 693 441 q 681 469 692 463 q 538 518 616 503 q 373 533 460 533 q 234 520 301 533 q 124 474 167 507 q 81 378 81 440 q 113 298 81 326 q 198 259 145 271 q 314 244 250 247 q 440 240 377 241 q 556 231 503 239 q 641 203 608 224 q 673 142 673 183 q 636 76 673 100 q 539 43 599 52 q 412 33 479 33 q 252 45 326 33 q 121 96 178 56 q 113 98 119 98 q 96 77 96 98 q 105 59 96 66 q 199 15 144 28 q 312 -3 254 1 q 418 -7 370 -7 m 292 616 q 328 644 313 616 l 401 785 l 473 644 q 509 616 487 616 q 528 624 521 616 q 528 644 536 632 l 437 796 q 401 822 420 822 q 365 796 381 822 l 273 644 q 273 624 265 632 q 292 616 280 616 "},"ș":{"ha":802,"x_min":81,"x_max":727,"o":"m 418 -7 q 569 7 498 -7 q 683 54 640 22 q 727 142 727 86 q 695 223 727 195 q 610 265 663 252 q 494 281 557 278 q 368 286 431 285 q 252 294 304 288 q 167 320 199 301 q 135 378 135 338 q 170 447 135 422 q 259 483 204 472 q 376 493 315 493 q 538 476 465 493 q 670 429 612 458 q 675 428 671 428 q 688 435 682 428 q 693 450 693 441 q 681 469 692 463 q 538 518 616 503 q 373 533 460 533 q 234 520 301 533 q 124 474 167 507 q 81 378 81 440 q 113 298 81 326 q 198 259 145 271 q 314 244 250 247 q 440 240 377 241 q 556 231 503 239 q 641 203 608 224 q 673 142 673 183 q 636 76 673 100 q 539 43 599 52 q 412 33 479 33 q 252 45 326 33 q 121 96 178 56 q 113 98 119 98 q 96 77 96 98 q 105 59 96 66 q 199 15 144 28 q 312 -3 254 1 q 418 -7 370 -7 m 351 -240 q 421 -205 395 -240 q 447 -135 447 -170 q 432 -97 447 -109 q 401 -85 416 -85 q 368 -95 382 -85 q 353 -125 353 -105 q 363 -155 353 -145 q 380 -168 374 -165 q 389 -180 389 -172 q 349 -216 389 -214 q 334 -227 334 -216 q 351 -240 334 -240 "},"ß":{"ha":820,"x_min":108,"x_max":793,"o":"m 134 -50 q 153 -36 151 -50 q 156 -3 156 -22 l 156 510 q 185 641 156 595 q 274 704 215 686 q 424 721 334 721 q 588 696 530 721 q 645 600 645 671 q 617 536 645 563 q 546 493 589 510 q 456 464 503 475 q 370 444 409 452 q 315 399 315 433 q 335 359 315 367 q 401 351 355 351 l 446 351 q 546 347 494 351 q 643 328 598 343 q 716 280 688 313 q 745 190 745 247 q 714 99 745 131 q 609 56 684 68 q 399 45 534 45 q 367 41 380 45 q 353 22 353 38 q 367 4 353 8 q 397 0 381 0 q 604 12 525 0 q 723 48 682 24 q 779 109 764 72 q 793 195 793 145 q 759 308 793 267 q 670 366 725 348 q 553 389 616 385 q 433 393 490 393 q 388 393 408 393 q 368 397 368 393 q 401 409 368 403 q 483 426 434 415 q 580 457 532 437 q 662 511 629 477 q 695 595 695 544 q 625 733 695 697 q 423 770 554 770 q 183 710 258 770 q 108 510 108 651 l 108 -3 q 111 -36 108 -22 q 134 -50 115 -50 "},"t":{"ha":484,"x_min":47,"x_max":478,"o":"m 298 -7 q 372 2 338 -7 q 463 43 406 12 q 478 64 478 51 q 459 82 478 82 q 444 78 452 82 q 372 45 403 56 q 308 33 340 33 q 243 45 273 33 q 197 90 214 56 q 180 189 180 123 l 180 477 l 405 477 q 425 493 425 477 q 405 509 425 509 l 180 509 l 180 678 q 172 706 180 700 q 153 711 164 711 q 134 706 143 711 q 125 678 125 700 l 125 509 l 66 509 q 47 493 47 509 q 66 477 47 477 l 125 477 l 125 189 q 175 36 125 79 q 298 -7 225 -7 "},"ť":{"ha":484,"x_min":47,"x_max":478,"o":"m 298 -7 q 372 2 338 -7 q 463 43 406 12 q 478 64 478 51 q 459 82 478 82 q 444 78 452 82 q 372 45 403 56 q 308 33 340 33 q 243 45 273 33 q 197 90 214 56 q 180 189 180 123 l 180 477 l 405 477 q 425 493 425 477 q 405 509 425 509 l 180 509 l 180 678 q 172 706 180 700 q 153 711 164 711 q 134 706 143 711 q 125 678 125 700 l 125 509 l 66 509 q 47 493 47 509 q 66 477 47 477 l 125 477 l 125 189 q 175 36 125 79 q 298 -7 225 -7 m 370 558 q 440 593 414 558 q 466 663 466 629 q 451 701 466 689 q 420 713 435 713 q 387 703 401 713 q 372 673 372 693 q 382 643 372 653 q 399 630 393 633 q 408 618 408 626 q 368 583 408 585 q 353 571 353 582 q 370 558 353 558 "},"ţ":{"ha":484,"x_min":47,"x_max":478,"o":"m 298 -7 q 372 2 338 -7 q 463 43 406 12 q 478 64 478 51 q 459 82 478 82 q 444 78 452 82 q 372 45 403 56 q 308 33 340 33 q 243 45 273 33 q 197 90 214 56 q 180 189 180 123 l 180 477 l 405 477 q 425 493 425 477 q 405 509 425 509 l 180 509 l 180 678 q 172 706 180 700 q 153 711 164 711 q 134 706 143 711 q 125 678 125 700 l 125 509 l 66 509 q 47 493 47 509 q 66 477 47 477 l 125 477 l 125 189 q 175 36 125 79 q 298 -7 225 -7 m 142 -220 q 156 -215 149 -220 q 172 -196 163 -210 l 278 -5 q 281 5 281 -1 q 269 20 281 20 q 251 7 260 20 l 122 -178 q 115 -196 115 -188 q 123 -213 115 -205 q 142 -220 130 -220 "},"ț":{"ha":484,"x_min":47,"x_max":478,"o":"m 298 -7 q 372 2 338 -7 q 463 43 406 12 q 478 64 478 51 q 459 82 478 82 q 444 78 452 82 q 372 45 403 56 q 308 33 340 33 q 243 45 273 33 q 197 90 214 56 q 180 189 180 123 l 180 477 l 405 477 q 425 493 425 477 q 405 509 425 509 l 180 509 l 180 678 q 172 706 180 700 q 153 711 164 711 q 134 706 143 711 q 125 678 125 700 l 125 509 l 66 509 q 47 493 47 509 q 66 477 47 477 l 125 477 l 125 189 q 175 36 125 79 q 298 -7 225 -7 m 212 -240 q 282 -205 256 -240 q 309 -135 309 -170 q 293 -97 309 -109 q 262 -85 278 -85 q 229 -95 243 -85 q 215 -125 215 -105 q 225 -155 215 -145 q 242 -168 235 -165 q 250 -180 250 -172 q 210 -216 250 -214 q 196 -227 196 -216 q 212 -240 196 -240 "},"u":{"ha":799,"x_min":100,"x_max":691,"o":"m 370 -7 q 498 9 446 -7 q 584 50 550 26 q 637 96 618 73 l 637 47 q 643 11 637 22 q 665 0 648 0 q 686 15 682 0 q 691 47 691 30 l 691 471 q 687 504 691 488 q 662 519 682 519 q 641 504 644 519 q 637 471 637 488 l 637 121 q 531 62 598 92 q 370 33 465 33 q 237 53 283 33 q 172 116 190 72 q 154 236 154 161 l 154 471 q 150 504 154 488 q 127 519 146 519 q 104 504 109 519 q 100 471 100 488 l 100 236 q 162 51 100 108 q 370 -7 224 -7 "},"ú":{"ha":799,"x_min":100,"x_max":691,"o":"m 370 -7 q 498 9 446 -7 q 584 50 550 26 q 637 96 618 73 l 637 47 q 643 11 637 22 q 665 0 648 0 q 686 15 682 0 q 691 47 691 30 l 691 471 q 687 504 691 488 q 662 519 682 519 q 641 504 644 519 q 637 471 637 488 l 637 121 q 531 62 598 92 q 370 33 465 33 q 237 53 283 33 q 172 116 190 72 q 154 236 154 161 l 154 471 q 150 504 154 488 q 127 519 146 519 q 104 504 109 519 q 100 471 100 488 l 100 236 q 162 51 100 108 q 370 -7 224 -7 m 347 615 q 357 618 352 615 l 548 781 q 558 800 558 789 q 547 827 558 815 q 522 840 536 840 q 505 832 512 840 l 334 645 q 328 633 328 640 q 347 615 328 615 "},"ŭ":{"ha":799,"x_min":100,"x_max":691,"o":"m 370 -7 q 498 9 446 -7 q 584 50 550 26 q 637 96 618 73 l 637 47 q 643 11 637 22 q 665 0 648 0 q 686 15 682 0 q 691 47 691 30 l 691 471 q 687 504 691 488 q 662 519 682 519 q 641 504 644 519 q 637 471 637 488 l 637 121 q 531 62 598 92 q 370 33 465 33 q 237 53 283 33 q 172 116 190 72 q 154 236 154 161 l 154 471 q 150 504 154 488 q 127 519 146 519 q 104 504 109 519 q 100 471 100 488 l 100 236 q 162 51 100 108 q 370 -7 224 -7 m 399 616 q 477 635 448 616 q 519 684 506 655 q 532 739 532 712 q 527 761 532 751 q 507 770 523 770 q 488 761 492 770 q 484 739 484 752 q 466 681 484 708 q 399 654 448 654 q 333 681 351 654 q 315 739 315 708 q 311 761 315 752 q 292 770 307 770 q 272 761 276 770 q 267 739 267 751 q 280 684 267 712 q 322 635 293 655 q 399 616 351 616 "},"û":{"ha":799,"x_min":100,"x_max":691,"o":"m 370 -7 q 498 9 446 -7 q 584 50 550 26 q 637 96 618 73 l 637 47 q 643 11 637 22 q 665 0 648 0 q 686 15 682 0 q 691 47 691 30 l 691 471 q 687 504 691 488 q 662 519 682 519 q 641 504 644 519 q 637 471 637 488 l 637 121 q 531 62 598 92 q 370 33 465 33 q 237 53 283 33 q 172 116 190 72 q 154 236 154 161 l 154 471 q 150 504 154 488 q 127 519 146 519 q 104 504 109 519 q 100 471 100 488 l 100 236 q 162 51 100 108 q 370 -7 224 -7 m 290 616 q 327 644 312 616 l 399 785 l 471 644 q 508 616 486 616 q 527 624 519 616 q 527 644 534 632 l 435 796 q 399 822 419 822 q 363 796 380 822 l 271 644 q 271 624 264 632 q 290 616 279 616 "},"ȕ":{"ha":799,"x_min":100,"x_max":691,"o":"m 370 -7 q 498 9 446 -7 q 584 50 550 26 q 637 96 618 73 l 637 47 q 643 11 637 22 q 665 0 648 0 q 686 15 682 0 q 691 47 691 30 l 691 471 q 687 504 691 488 q 662 519 682 519 q 641 504 644 519 q 637 471 637 488 l 637 121 q 531 62 598 92 q 370 33 465 33 q 237 53 283 33 q 172 116 190 72 q 154 236 154 161 l 154 471 q 150 504 154 488 q 127 519 146 519 q 104 504 109 519 q 100 471 100 488 l 100 236 q 162 51 100 108 q 370 -7 224 -7 m 488 616 q 507 633 507 616 q 501 646 507 640 l 323 826 q 307 833 316 833 q 286 823 294 833 q 277 801 277 813 q 287 782 277 790 l 478 619 q 488 616 483 616 m 334 616 q 352 633 352 616 q 347 646 352 640 l 169 826 q 152 833 161 833 q 131 823 140 833 q 122 801 122 813 q 132 782 122 790 l 323 619 q 334 616 328 616 "},"ü":{"ha":799,"x_min":100,"x_max":691,"o":"m 370 -7 q 498 9 446 -7 q 584 50 550 26 q 637 96 618 73 l 637 47 q 643 11 637 22 q 665 0 648 0 q 686 15 682 0 q 691 47 691 30 l 691 471 q 687 504 691 488 q 662 519 682 519 q 641 504 644 519 q 637 471 637 488 l 637 121 q 531 62 598 92 q 370 33 465 33 q 237 53 283 33 q 172 116 190 72 q 154 236 154 161 l 154 471 q 150 504 154 488 q 127 519 146 519 q 104 504 109 519 q 100 471 100 488 l 100 236 q 162 51 100 108 q 370 -7 224 -7 m 534 637 q 563 648 551 637 q 574 675 574 659 q 563 704 574 693 q 534 715 551 715 q 505 704 516 715 q 494 675 494 693 q 505 648 494 659 q 534 637 516 637 m 263 637 q 292 648 280 637 q 304 675 304 659 q 292 704 304 693 q 263 715 280 715 q 235 704 245 715 q 224 675 224 693 q 235 648 224 659 q 263 637 245 637 "},"ù":{"ha":799,"x_min":100,"x_max":691,"o":"m 370 -7 q 498 9 446 -7 q 584 50 550 26 q 637 96 618 73 l 637 47 q 643 11 637 22 q 665 0 648 0 q 686 15 682 0 q 691 47 691 30 l 691 471 q 687 504 691 488 q 662 519 682 519 q 641 504 644 519 q 637 471 637 488 l 637 121 q 531 62 598 92 q 370 33 465 33 q 237 53 283 33 q 172 116 190 72 q 154 236 154 161 l 154 471 q 150 504 154 488 q 127 519 146 519 q 104 504 109 519 q 100 471 100 488 l 100 236 q 162 51 100 108 q 370 -7 224 -7 m 452 616 q 471 634 471 616 q 465 646 471 641 l 294 833 q 277 841 287 841 q 252 829 262 841 q 241 802 241 817 q 251 783 241 791 l 442 620 q 452 616 447 616 "},"ű":{"ha":799,"x_min":100,"x_max":691,"o":"m 370 -7 q 498 9 446 -7 q 584 50 550 26 q 637 96 618 73 l 637 47 q 643 11 637 22 q 665 0 648 0 q 686 15 682 0 q 691 47 691 30 l 691 471 q 687 504 691 488 q 662 519 682 519 q 641 504 644 519 q 637 471 637 488 l 637 121 q 531 62 598 92 q 370 33 465 33 q 237 53 283 33 q 172 116 190 72 q 154 236 154 161 l 154 471 q 150 504 154 488 q 127 519 146 519 q 104 504 109 519 q 100 471 100 488 l 100 236 q 162 51 100 108 q 370 -7 224 -7 m 471 614 q 481 618 477 614 l 680 779 q 690 798 690 787 q 678 821 690 810 q 654 832 667 832 q 637 825 645 832 l 458 644 q 453 632 453 639 q 471 614 453 614 m 317 614 q 327 618 322 614 l 525 779 q 535 798 535 787 q 524 821 535 810 q 500 832 512 832 q 483 825 490 832 l 304 644 q 298 632 298 639 q 317 614 298 614 "},"ȗ":{"ha":799,"x_min":100,"x_max":691,"o":"m 370 -7 q 498 9 446 -7 q 584 50 550 26 q 637 96 618 73 l 637 47 q 643 11 637 22 q 665 0 648 0 q 686 15 682 0 q 691 47 691 30 l 691 471 q 687 504 691 488 q 662 519 682 519 q 641 504 644 519 q 637 471 637 488 l 637 121 q 531 62 598 92 q 370 33 465 33 q 237 53 283 33 q 172 116 190 72 q 154 236 154 161 l 154 471 q 150 504 154 488 q 127 519 146 519 q 104 504 109 519 q 100 471 100 488 l 100 236 q 162 51 100 108 q 370 -7 224 -7 m 292 616 q 309 625 305 616 q 313 647 313 634 q 332 707 313 678 q 399 735 351 735 q 467 707 448 735 q 486 647 486 678 q 490 625 486 634 q 507 616 494 616 q 526 626 522 616 q 530 647 530 636 q 517 703 530 674 q 477 751 505 731 q 399 770 448 770 q 322 751 351 770 q 281 703 294 731 q 269 647 269 674 q 273 626 269 636 q 292 616 277 616 "},"ū":{"ha":799,"x_min":100,"x_max":691,"o":"m 370 -7 q 498 9 446 -7 q 584 50 550 26 q 637 96 618 73 l 637 47 q 643 11 637 22 q 665 0 648 0 q 686 15 682 0 q 691 47 691 30 l 691 471 q 687 504 691 488 q 662 519 682 519 q 641 504 644 519 q 637 471 637 488 l 637 121 q 531 62 598 92 q 370 33 465 33 q 237 53 283 33 q 172 116 190 72 q 154 236 154 161 l 154 471 q 150 504 154 488 q 127 519 146 519 q 104 504 109 519 q 100 471 100 488 l 100 236 q 162 51 100 108 q 370 -7 224 -7 m 283 627 l 515 627 q 532 635 528 627 q 537 648 537 643 q 532 663 537 654 q 515 671 528 671 l 283 671 q 267 663 271 671 q 262 648 262 654 q 267 635 262 643 q 283 627 271 627 "},"ų":{"ha":799,"x_min":100,"x_max":719,"o":"m 370 -7 q 498 9 446 -7 q 584 50 550 26 q 637 96 618 73 l 637 47 q 643 11 637 22 q 665 0 648 0 q 686 15 682 0 q 691 47 691 30 l 691 471 q 687 504 691 488 q 662 519 682 519 q 641 504 644 519 q 637 471 637 488 l 637 121 q 531 62 598 92 q 370 33 465 33 q 237 53 283 33 q 172 116 190 72 q 154 236 154 161 l 154 471 q 150 504 154 488 q 127 519 146 519 q 104 504 109 519 q 100 471 100 488 l 100 236 q 162 51 100 108 q 370 -7 224 -7 m 633 -186 q 683 -172 659 -186 q 719 -134 707 -158 l 712 -128 q 690 -141 703 -134 q 664 -149 677 -149 q 641 -138 653 -149 q 629 -100 629 -127 q 641 -50 629 -78 q 677 7 653 -21 l 656 7 q 594 -56 618 -24 q 569 -121 569 -88 q 590 -171 569 -156 q 633 -186 610 -186 "},"ů":{"ha":799,"x_min":100,"x_max":691,"o":"m 370 -7 q 498 9 446 -7 q 584 50 550 26 q 637 96 618 73 l 637 47 q 643 11 637 22 q 665 0 648 0 q 686 15 682 0 q 691 47 691 30 l 691 471 q 687 504 691 488 q 662 519 682 519 q 641 504 644 519 q 637 471 637 488 l 637 121 q 531 62 598 92 q 370 33 465 33 q 237 53 283 33 q 172 116 190 72 q 154 236 154 161 l 154 471 q 150 504 154 488 q 127 519 146 519 q 104 504 109 519 q 100 471 100 488 l 100 236 q 162 51 100 108 q 370 -7 224 -7 m 399 616 q 455 638 432 616 q 479 692 479 660 q 455 747 479 725 q 399 769 432 769 q 342 747 366 769 q 319 692 319 725 q 343 638 319 660 q 399 616 368 616 m 399 650 q 370 663 382 650 q 358 692 358 675 q 370 722 358 711 q 399 734 382 734 q 429 722 417 734 q 441 692 441 711 q 429 663 441 675 q 399 650 417 650 "},"ũ":{"ha":799,"x_min":100,"x_max":691,"o":"m 370 -7 q 498 9 446 -7 q 584 50 550 26 q 637 96 618 73 l 637 47 q 643 11 637 22 q 665 0 648 0 q 686 15 682 0 q 691 47 691 30 l 691 471 q 687 504 691 488 q 662 519 682 519 q 641 504 644 519 q 637 471 637 488 l 637 121 q 531 62 598 92 q 370 33 465 33 q 237 53 283 33 q 172 116 190 72 q 154 236 154 161 l 154 471 q 150 504 154 488 q 127 519 146 519 q 104 504 109 519 q 100 471 100 488 l 100 236 q 162 51 100 108 q 370 -7 224 -7 m 266 616 q 281 625 277 616 q 286 646 286 634 q 293 671 286 665 q 310 676 300 676 q 360 661 328 676 q 428 631 393 646 q 488 616 463 616 q 541 635 526 616 q 555 684 555 655 q 551 706 555 696 q 532 715 547 715 q 517 706 521 715 q 513 685 513 697 q 506 661 513 666 q 488 655 498 655 q 434 670 460 655 q 377 701 407 686 q 310 715 347 715 q 258 696 273 715 q 243 647 243 676 q 247 626 243 636 q 266 616 251 616 "},"v":{"ha":694,"x_min":41,"x_max":653,"o":"m 347 -7 q 369 3 361 -7 q 382 20 377 12 l 646 471 q 653 495 653 484 q 646 513 653 507 q 630 519 640 519 q 600 498 612 519 l 347 50 l 94 498 q 64 519 82 519 q 41 495 41 519 q 48 471 41 482 l 313 20 q 325 3 317 12 q 347 -7 333 -7 "},"w":{"ha":920,"x_min":72,"x_max":848,"o":"m 274 -3 q 311 33 298 -3 l 460 457 l 608 33 q 646 -3 621 -3 q 685 33 671 -3 l 845 473 q 848 488 848 479 q 839 511 848 503 q 820 519 831 519 q 789 492 800 519 l 646 61 l 502 483 q 484 510 496 501 q 459 519 472 519 q 418 483 430 519 l 274 61 l 130 492 q 100 519 120 519 q 80 511 89 519 q 72 488 72 503 q 75 473 72 479 l 235 33 q 274 -3 248 -3 "},"ẃ":{"ha":920,"x_min":72,"x_max":848,"o":"m 274 -3 q 311 33 298 -3 l 460 457 l 608 33 q 646 -3 621 -3 q 685 33 671 -3 l 845 473 q 848 488 848 479 q 839 511 848 503 q 820 519 831 519 q 789 492 800 519 l 646 61 l 502 483 q 484 510 496 501 q 459 519 472 519 q 418 483 430 519 l 274 61 l 130 492 q 100 519 120 519 q 80 511 89 519 q 72 488 72 503 q 75 473 72 479 l 235 33 q 274 -3 248 -3 m 407 615 q 417 618 412 615 l 608 781 q 618 800 618 789 q 608 827 618 815 q 582 840 597 840 q 565 832 572 840 l 394 645 q 389 633 389 640 q 407 615 389 615 "},"ŵ":{"ha":920,"x_min":72,"x_max":848,"o":"m 274 -3 q 311 33 298 -3 l 460 457 l 608 33 q 646 -3 621 -3 q 685 33 671 -3 l 845 473 q 848 488 848 479 q 839 511 848 503 q 820 519 831 519 q 789 492 800 519 l 646 61 l 502 483 q 484 510 496 501 q 459 519 472 519 q 418 483 430 519 l 274 61 l 130 492 q 100 519 120 519 q 80 511 89 519 q 72 488 72 503 q 75 473 72 479 l 235 33 q 274 -3 248 -3 m 351 616 q 387 644 372 616 l 460 785 l 532 644 q 568 616 546 616 q 587 624 580 616 q 587 644 595 632 l 496 796 q 460 822 479 822 q 424 796 440 822 l 332 644 q 332 624 324 632 q 351 616 339 616 "},"ẅ":{"ha":920,"x_min":72,"x_max":848,"o":"m 274 -3 q 311 33 298 -3 l 460 457 l 608 33 q 646 -3 621 -3 q 685 33 671 -3 l 845 473 q 848 488 848 479 q 839 511 848 503 q 820 519 831 519 q 789 492 800 519 l 646 61 l 502 483 q 484 510 496 501 q 459 519 472 519 q 418 483 430 519 l 274 61 l 130 492 q 100 519 120 519 q 80 511 89 519 q 72 488 72 503 q 75 473 72 479 l 235 33 q 274 -3 248 -3 m 594 637 q 623 648 611 637 q 635 675 635 659 q 623 704 635 693 q 594 715 611 715 q 566 704 576 715 q 555 675 555 693 q 566 648 555 659 q 594 637 576 637 m 323 637 q 352 648 340 637 q 364 675 364 659 q 352 704 364 693 q 323 715 340 715 q 295 704 306 715 q 284 675 284 693 q 295 648 284 659 q 323 637 306 637 "},"ẁ":{"ha":920,"x_min":72,"x_max":848,"o":"m 274 -3 q 311 33 298 -3 l 460 457 l 608 33 q 646 -3 621 -3 q 685 33 671 -3 l 845 473 q 848 488 848 479 q 839 511 848 503 q 820 519 831 519 q 789 492 800 519 l 646 61 l 502 483 q 484 510 496 501 q 459 519 472 519 q 418 483 430 519 l 274 61 l 130 492 q 100 519 120 519 q 80 511 89 519 q 72 488 72 503 q 75 473 72 479 l 235 33 q 274 -3 248 -3 m 513 616 q 531 634 531 616 q 526 646 531 641 l 355 833 q 338 841 347 841 q 312 829 323 841 q 301 802 301 817 q 311 783 301 791 l 503 620 q 513 616 507 616 "},"x":{"ha":772,"x_min":98,"x_max":674,"o":"m 120 -2 q 149 12 134 -2 l 387 229 l 625 12 q 653 -2 639 -2 q 673 18 673 -2 q 659 47 673 33 l 423 262 l 661 473 q 674 498 674 486 q 652 519 674 519 q 625 507 639 519 l 387 296 l 149 507 q 121 519 136 519 q 98 498 98 519 q 112 473 98 485 l 350 262 l 115 47 q 99 19 99 33 q 120 -2 99 -2 "},"y":{"ha":793,"x_min":100,"x_max":696,"o":"m 398 -227 q 570 -194 505 -227 q 666 -81 635 -161 q 696 138 696 -1 l 696 471 q 691 504 696 488 q 667 519 687 519 q 646 504 651 519 q 642 471 642 488 l 642 163 q 580 82 627 110 q 474 44 533 54 q 363 33 416 33 q 232 54 277 33 q 171 124 187 74 q 154 262 154 174 l 154 471 q 150 504 154 488 q 126 519 146 519 q 104 504 108 519 q 100 471 100 488 l 100 262 q 125 102 100 161 q 209 18 151 43 q 363 -7 267 -7 q 441 -3 398 -7 q 526 13 484 1 q 599 50 568 25 q 642 115 631 74 q 620 -64 642 1 q 545 -158 597 -130 q 398 -186 492 -186 q 261 -169 307 -186 q 189 -132 214 -151 q 177 -127 182 -127 q 156 -150 156 -127 q 161 -163 156 -158 q 205 -191 179 -176 q 277 -216 231 -206 q 398 -227 322 -227 "},"ý":{"ha":793,"x_min":100,"x_max":696,"o":"m 398 -227 q 570 -194 505 -227 q 666 -81 635 -161 q 696 138 696 -1 l 696 471 q 691 504 696 488 q 667 519 687 519 q 646 504 651 519 q 642 471 642 488 l 642 163 q 580 82 627 110 q 474 44 533 54 q 363 33 416 33 q 232 54 277 33 q 171 124 187 74 q 154 262 154 174 l 154 471 q 150 504 154 488 q 126 519 146 519 q 104 504 108 519 q 100 471 100 488 l 100 262 q 125 102 100 161 q 209 18 151 43 q 363 -7 267 -7 q 441 -3 398 -7 q 526 13 484 1 q 599 50 568 25 q 642 115 631 74 q 620 -64 642 1 q 545 -158 597 -130 q 398 -186 492 -186 q 261 -169 307 -186 q 189 -132 214 -151 q 177 -127 182 -127 q 156 -150 156 -127 q 161 -163 156 -158 q 205 -191 179 -176 q 277 -216 231 -206 q 398 -227 322 -227 m 344 615 q 354 618 349 615 l 545 781 q 555 800 555 789 q 545 827 555 815 q 519 840 534 840 q 502 832 509 840 l 331 645 q 326 633 326 640 q 344 615 326 615 "},"ŷ":{"ha":793,"x_min":100,"x_max":696,"o":"m 398 -227 q 570 -194 505 -227 q 666 -81 635 -161 q 696 138 696 -1 l 696 471 q 691 504 696 488 q 667 519 687 519 q 646 504 651 519 q 642 471 642 488 l 642 163 q 580 82 627 110 q 474 44 533 54 q 363 33 416 33 q 232 54 277 33 q 171 124 187 74 q 154 262 154 174 l 154 471 q 150 504 154 488 q 126 519 146 519 q 104 504 108 519 q 100 471 100 488 l 100 262 q 125 102 100 161 q 209 18 151 43 q 363 -7 267 -7 q 441 -3 398 -7 q 526 13 484 1 q 599 50 568 25 q 642 115 631 74 q 620 -64 642 1 q 545 -158 597 -130 q 398 -186 492 -186 q 261 -169 307 -186 q 189 -132 214 -151 q 177 -127 182 -127 q 156 -150 156 -127 q 161 -163 156 -158 q 205 -191 179 -176 q 277 -216 231 -206 q 398 -227 322 -227 m 288 616 q 324 644 309 616 l 397 785 l 469 644 q 505 616 483 616 q 524 624 517 616 q 524 644 532 632 l 433 796 q 397 822 416 822 q 361 796 377 822 l 269 644 q 269 624 261 632 q 288 616 276 616 "},"ÿ":{"ha":793,"x_min":100,"x_max":696,"o":"m 398 -227 q 570 -194 505 -227 q 666 -81 635 -161 q 696 138 696 -1 l 696 471 q 691 504 696 488 q 667 519 687 519 q 646 504 651 519 q 642 471 642 488 l 642 163 q 580 82 627 110 q 474 44 533 54 q 363 33 416 33 q 232 54 277 33 q 171 124 187 74 q 154 262 154 174 l 154 471 q 150 504 154 488 q 126 519 146 519 q 104 504 108 519 q 100 471 100 488 l 100 262 q 125 102 100 161 q 209 18 151 43 q 363 -7 267 -7 q 441 -3 398 -7 q 526 13 484 1 q 599 50 568 25 q 642 115 631 74 q 620 -64 642 1 q 545 -158 597 -130 q 398 -186 492 -186 q 261 -169 307 -186 q 189 -132 214 -151 q 177 -127 182 -127 q 156 -150 156 -127 q 161 -163 156 -158 q 205 -191 179 -176 q 277 -216 231 -206 q 398 -227 322 -227 m 531 637 q 560 648 548 637 q 572 675 572 659 q 560 704 572 693 q 531 715 548 715 q 503 704 513 715 q 492 675 492 693 q 503 648 492 659 q 531 637 513 637 m 260 637 q 289 648 277 637 q 301 675 301 659 q 289 704 301 693 q 260 715 277 715 q 232 704 243 715 q 221 675 221 693 q 232 648 221 659 q 260 637 243 637 "},"ỳ":{"ha":793,"x_min":100,"x_max":696,"o":"m 398 -227 q 570 -194 505 -227 q 666 -81 635 -161 q 696 138 696 -1 l 696 471 q 691 504 696 488 q 667 519 687 519 q 646 504 651 519 q 642 471 642 488 l 642 163 q 580 82 627 110 q 474 44 533 54 q 363 33 416 33 q 232 54 277 33 q 171 124 187 74 q 154 262 154 174 l 154 471 q 150 504 154 488 q 126 519 146 519 q 104 504 108 519 q 100 471 100 488 l 100 262 q 125 102 100 161 q 209 18 151 43 q 363 -7 267 -7 q 441 -3 398 -7 q 526 13 484 1 q 599 50 568 25 q 642 115 631 74 q 620 -64 642 1 q 545 -158 597 -130 q 398 -186 492 -186 q 261 -169 307 -186 q 189 -132 214 -151 q 177 -127 182 -127 q 156 -150 156 -127 q 161 -163 156 -158 q 205 -191 179 -176 q 277 -216 231 -206 q 398 -227 322 -227 m 450 616 q 468 634 468 616 q 463 646 468 641 l 292 833 q 275 841 284 841 q 249 829 260 841 q 238 802 238 817 q 248 783 238 791 l 439 620 q 450 616 444 616 "},"z":{"ha":700,"x_min":68,"x_max":636,"o":"m 102 0 l 588 0 q 621 2 606 0 q 636 18 636 3 q 621 37 636 35 q 587 39 606 39 l 136 39 l 611 463 q 627 494 627 477 q 620 511 627 503 q 593 519 612 519 l 116 519 q 82 518 96 519 q 68 498 68 516 q 83 483 68 484 q 117 481 98 481 l 563 481 l 92 60 q 74 27 74 45 q 82 7 74 14 q 102 0 91 0 "},"ź":{"ha":700,"x_min":68,"x_max":636,"o":"m 102 0 l 588 0 q 621 2 606 0 q 636 18 636 3 q 621 37 636 35 q 587 39 606 39 l 136 39 l 611 463 q 627 494 627 477 q 620 511 627 503 q 593 519 612 519 l 116 519 q 82 518 96 519 q 68 498 68 516 q 83 483 68 484 q 117 481 98 481 l 563 481 l 92 60 q 74 27 74 45 q 82 7 74 14 q 102 0 91 0 m 297 615 q 307 618 302 615 l 498 781 q 509 800 509 789 q 498 827 509 815 q 472 840 487 840 q 455 832 463 840 l 284 645 q 279 633 279 640 q 297 615 279 615 "},"ž":{"ha":700,"x_min":68,"x_max":636,"o":"m 102 0 l 588 0 q 621 2 606 0 q 636 18 636 3 q 621 37 636 35 q 587 39 606 39 l 136 39 l 611 463 q 627 494 627 477 q 620 511 627 503 q 593 519 612 519 l 116 519 q 82 518 96 519 q 68 498 68 516 q 83 483 68 484 q 117 481 98 481 l 563 481 l 92 60 q 74 27 74 45 q 82 7 74 14 q 102 0 91 0 m 350 616 q 386 642 369 616 l 477 793 q 477 814 485 806 q 458 822 470 822 q 422 794 436 822 l 350 653 l 277 794 q 241 822 262 822 q 222 814 229 822 q 222 793 214 806 l 314 642 q 350 616 330 616 "},"ż":{"ha":700,"x_min":68,"x_max":636,"o":"m 102 0 l 588 0 q 621 2 606 0 q 636 18 636 3 q 621 37 636 35 q 587 39 606 39 l 136 39 l 611 463 q 627 494 627 477 q 620 511 627 503 q 593 519 612 519 l 116 519 q 82 518 96 519 q 68 498 68 516 q 83 483 68 484 q 117 481 98 481 l 563 481 l 92 60 q 74 27 74 45 q 82 7 74 14 q 102 0 91 0 m 349 637 q 378 648 366 637 q 390 675 390 659 q 378 704 390 693 q 349 715 366 715 q 321 704 332 715 q 310 675 310 693 q 321 648 310 659 q 349 637 332 637 "},"ﬁ":{"ha":679,"x_min":46,"x_max":613,"o":"m 152 0 q 171 6 163 0 q 179 33 179 12 l 179 477 l 427 477 q 447 493 447 477 q 427 509 447 509 l 179 509 l 179 553 q 193 653 179 620 q 233 699 207 687 q 294 710 258 710 q 360 705 326 710 q 431 688 395 701 q 444 685 437 685 q 460 691 454 685 q 465 702 465 697 q 444 723 465 715 q 360 744 395 739 q 284 749 325 749 q 169 706 212 749 q 125 553 125 663 l 125 509 l 65 509 q 46 493 46 509 q 65 477 46 477 l 125 477 l 125 33 q 134 6 125 12 q 152 0 142 0 m 573 0 q 596 13 593 0 q 600 43 600 25 l 600 479 q 595 511 600 497 q 573 526 590 526 q 550 512 554 526 q 546 478 546 498 l 546 43 q 550 12 546 23 q 573 0 554 0 m 572 637 q 601 648 589 637 q 613 675 613 659 q 601 704 613 693 q 572 715 589 715 q 544 704 555 715 q 533 675 533 693 q 544 648 533 659 q 572 637 555 637 "},"ﬂ":{"ha":738,"x_min":46,"x_max":630,"o":"m 152 0 q 171 6 163 0 q 179 33 179 12 l 179 477 l 427 477 q 447 493 447 477 q 427 509 447 509 l 179 509 l 179 553 q 193 653 179 620 q 233 699 207 687 q 294 710 258 710 q 360 705 326 710 q 431 688 395 701 q 444 685 437 685 q 460 691 454 685 q 465 702 465 697 q 444 723 465 715 q 360 744 395 739 q 284 749 325 749 q 169 706 212 749 q 125 553 125 663 l 125 509 l 65 509 q 46 493 46 509 q 65 477 46 477 l 125 477 l 125 33 q 134 6 125 12 q 152 0 142 0 m 604 0 q 625 14 621 0 q 630 47 630 28 l 630 708 q 626 741 630 726 q 605 755 622 755 q 580 741 585 755 q 576 707 576 726 l 576 46 q 580 14 576 28 q 604 0 584 0 "},"ª":{"ha":808,"x_min":91,"x_max":708,"o":"m 374 221 q 513 238 458 221 q 602 278 568 254 q 653 325 635 302 l 653 278 q 659 242 653 256 q 680 228 665 228 q 704 244 699 228 q 708 275 708 260 l 708 471 q 685 621 708 564 q 623 709 662 678 q 535 750 584 739 q 434 761 486 761 q 217 745 287 761 q 135 724 146 729 q 127 711 127 720 q 134 693 127 702 q 149 685 140 685 q 154 686 150 685 q 210 702 177 694 q 296 715 243 710 q 433 721 350 721 q 541 705 491 721 q 622 644 591 690 q 653 505 653 597 q 529 540 610 528 q 361 551 448 551 q 224 536 285 551 q 127 484 163 521 q 91 380 91 446 q 129 288 91 323 q 231 237 167 253 q 374 221 296 221 m 369 261 q 208 288 271 261 q 145 380 145 315 q 203 484 145 457 q 366 511 262 511 q 513 503 439 511 q 653 485 587 494 l 653 349 q 555 291 623 321 q 369 261 488 261 m 218 119 l 572 119 q 588 126 583 119 q 593 139 593 132 q 588 152 593 146 q 572 159 583 159 l 218 159 q 202 152 208 159 q 197 139 197 146 q 202 126 197 132 q 218 119 208 119 "},"º":{"ha":763,"x_min":45,"x_max":719,"o":"m 382 219 q 581 252 507 219 q 687 344 654 284 q 719 487 719 404 q 637 695 719 631 q 382 759 555 759 q 126 695 208 759 q 45 487 45 631 q 77 344 45 404 q 183 252 109 284 q 382 219 257 219 m 382 259 q 233 279 290 259 q 148 332 177 298 q 109 405 119 365 q 99 487 99 446 q 166 666 99 613 q 382 719 233 719 q 597 666 530 719 q 665 487 665 613 q 654 405 665 446 q 615 332 644 365 q 530 279 587 298 q 382 259 474 259 m 205 119 l 559 119 q 575 126 570 119 q 581 139 581 132 q 575 152 581 146 q 559 159 570 159 l 205 159 q 189 152 195 159 q 184 139 184 146 q 189 126 184 132 q 205 119 195 119 "},"⁄":{"ha":213,"x_min":-47,"x_max":294,"o":"m -22 -37 q -4 -25 -10 -37 q 8 2 2 -14 l 288 744 q 292 759 290 751 q 294 773 294 766 q 290 789 294 782 q 272 797 286 797 q 250 785 256 797 q 239 758 244 773 l -39 16 q -45 2 -42 8 q -47 -12 -47 -5 q -42 -28 -47 -20 q -22 -37 -37 -37 "},"½":{"ha":1093,"x_min":28,"x_max":1017,"o":"m 202 226 q 222 241 220 226 q 224 273 224 256 l 224 705 q 222 736 224 721 q 201 752 220 752 l 70 752 q 44 749 59 752 q 28 724 28 745 q 43 706 28 708 q 71 705 58 705 l 176 705 l 176 273 q 179 241 176 256 q 202 226 182 226 m 284 -37 q 302 -25 296 -37 q 315 2 309 -14 l 594 744 q 599 759 597 751 q 601 773 601 766 q 597 789 601 782 q 578 797 593 797 q 557 785 563 797 q 545 758 551 773 l 267 16 q 262 2 264 8 q 259 -12 259 -5 q 264 -28 259 -20 q 284 -37 269 -37 m 600 0 l 974 0 q 997 7 989 0 q 1004 24 1004 15 q 997 41 1004 34 q 974 49 989 49 l 631 49 q 676 107 631 83 q 781 156 721 132 q 889 206 835 178 q 981 273 944 233 q 1017 370 1017 312 q 989 467 1017 432 q 917 515 962 501 q 821 530 872 530 q 713 517 766 530 q 618 492 661 505 q 597 469 597 485 q 604 453 597 460 q 622 446 610 446 q 633 448 627 446 q 716 472 663 458 q 823 487 768 487 q 922 464 878 487 q 966 374 966 440 q 935 296 966 328 q 856 241 904 264 q 758 196 808 217 q 670 157 711 177 q 602 111 628 136 q 576 50 576 85 q 581 17 576 34 q 600 0 587 0 "},"¼":{"ha":1103,"x_min":28,"x_max":1059,"o":"m 202 226 q 222 241 220 226 q 224 273 224 256 l 224 705 q 222 736 224 721 q 201 752 220 752 l 70 752 q 44 749 59 752 q 28 724 28 745 q 43 706 28 708 q 71 705 58 705 l 176 705 l 176 273 q 179 241 176 256 q 202 226 182 226 m 251 -37 q 269 -25 263 -37 q 281 2 275 -14 l 561 744 q 566 759 564 751 q 568 773 568 766 q 564 789 568 782 q 545 797 559 797 q 524 785 530 797 q 512 758 517 773 l 234 16 q 229 2 231 8 q 226 -12 226 -5 q 231 -28 226 -20 q 251 -37 236 -37 m 872 0 q 893 15 890 0 q 896 47 896 30 l 896 195 l 1011 195 q 1047 199 1034 195 q 1059 218 1059 203 q 1046 240 1059 237 q 1010 243 1033 243 l 896 243 l 896 479 q 893 511 896 496 q 872 526 890 526 q 850 511 853 526 q 847 479 847 496 l 847 243 l 595 243 l 595 481 q 592 511 595 496 q 572 526 589 526 q 549 512 552 526 q 545 481 545 497 l 545 243 q 551 210 545 225 q 595 195 557 195 l 847 195 l 847 47 q 850 15 847 30 q 872 0 852 0 "}}}
